<svg width="411" height="324" viewBox="0 0 411 324" fill="none" xmlns="http://www.w3.org/2000/svg">
<g clip-path="url(#clip0)">
<path d="M296.93 291.48C296.93 291.48 277.72 281.48 267.02 278.88C262.07 277.66 255.55 270.83 249.35 262.8C247.35 260.16 245.35 257.38 243.35 254.63C243.35 254.63 210.22 200.94 228.24 189.21C228.24 189.21 235.97 189.04 240.24 191.34C244.51 193.64 253.89 213.1 255.46 216.54C257.03 219.98 274.11 251.87 275.25 252.59C276.39 253.31 278.3 255.93 285.13 259.59C293.49 264.09 306.63 277.27 306.63 277.27L296.93 291.48Z" fill="#87CFE0"/>
<path d="M296.93 291.48C296.93 291.48 277.72 281.48 267.02 278.88C262.07 277.66 255.55 270.83 249.35 262.8C247.35 260.16 245.35 257.38 243.35 254.63C243.35 254.63 210.22 200.94 228.24 189.21C228.24 189.21 235.97 189.04 240.24 191.34C244.51 193.64 253.89 213.1 255.46 216.54C257.03 219.98 274.11 251.87 275.25 252.59C276.39 253.31 278.3 255.93 285.13 259.59C293.49 264.09 306.63 277.27 306.63 277.27L296.93 291.48Z" fill="url(#paint0_linear)"/>
<path d="M238.01 220.81C238.797 210.37 239.337 200.617 239.63 191.55C237.11 190.22 234.09 188.66 231.63 187.55C224.14 183.98 213.69 179.17 206.99 176.1C203.07 174.3 199.23 172.98 199.23 172.98C199.23 172.98 172.44 170.41 170.23 170.55C167.36 171.325 164.544 172.288 161.8 173.43C152.31 177.04 133.99 184.37 131.08 186.43C126.8 189.49 111.5 264.43 111.08 269.58C110.68 274.52 131.89 281.29 151.52 286.48C151.52 294.08 151.35 304.73 151.18 314.48C151.18 316.14 151.12 317.77 151.09 319.35H237.02C236.9 317.68 236.8 316.03 236.72 314.48V313.86C236.39 307.28 235.11 295.48 235.44 283.99C235.44 283.99 235.23 271.89 236.44 266.67C236.62 243.6 238.01 220.81 238.01 220.81ZM129.06 264.9C129.19 255.14 142.19 236.97 142.19 236.97C142.389 236.883 142.593 236.806 142.8 236.74C142.8 236.74 143.47 236.65 143.47 236.66C143.47 236.67 145.47 234.75 145.47 234.75C145.94 236.48 150.25 261.01 151.31 275.29C139.19 272.89 128.99 269.55 129.06 264.9Z" fill="white"/>
<path d="M238.01 220.81C238.797 210.37 239.337 200.617 239.63 191.55C237.11 190.22 234.09 188.66 231.63 187.55C224.14 183.98 213.69 179.17 206.99 176.1C203.07 174.3 199.23 172.98 199.23 172.98C199.23 172.98 172.44 170.41 170.23 170.55C167.36 171.325 164.544 172.288 161.8 173.43C152.31 177.04 133.99 184.37 131.08 186.43C126.8 189.49 111.5 264.43 111.08 269.58C110.68 274.52 131.89 281.29 151.52 286.48C151.52 294.08 151.35 304.73 151.18 314.48C151.18 316.14 151.12 317.77 151.09 319.35H237.02C236.9 317.68 236.8 316.03 236.72 314.48V313.86C236.39 307.28 235.11 295.48 235.44 283.99C235.44 283.99 235.23 271.89 236.44 266.67C236.62 243.6 238.01 220.81 238.01 220.81ZM129.06 264.9C129.19 255.14 142.19 236.97 142.19 236.97C142.389 236.883 142.593 236.806 142.8 236.74C142.8 236.74 143.47 236.65 143.47 236.66C143.47 236.67 145.47 234.75 145.47 234.75C145.94 236.48 150.25 261.01 151.31 275.29C139.19 272.89 128.99 269.55 129.06 264.9Z" fill="url(#paint1_linear)"/>
<path d="M239.6 314.42C239.04 310.35 238.5 306.28 238.02 302.3C238.02 302.3 238.02 302.3 238.02 302.25C237.87 300.92 237.71 299.61 237.56 298.31C237.56 298.25 237.56 298.18 237.56 298.1C236.93 292.62 236.41 287.36 236.03 282.55C235.796 278.937 235.957 275.309 236.51 271.73C238.01 247.11 238.75 221.15 238.75 221.15C239.54 210.53 239.99 200.59 240.29 191.34C240.29 191.34 206.66 175.44 203.61 174.53C203.61 174.53 209.99 189.53 214.77 223C216.61 235.86 220.01 257.5 222.49 279.6C223.83 291.52 226.34 303.67 228.24 314.42C228.54 316.08 228.81 317.7 229.07 319.29H240.33C240.06 317.67 239.83 316.04 239.6 314.42Z" fill="#87CFE0"/>
<path d="M183.61 274.87C184.93 262.42 186.13 250 185.55 243.19C180.91 188.46 167.79 173.98 165.89 171.86C164.41 172.42 158.81 174.52 157.17 175.17C148.17 178.71 129.9 185.17 127.43 186.97C123.16 190.03 106.3 268.65 105.79 273.73C105.45 277.17 127.45 284.35 149.9 290.73C149.69 296.89 150.27 305.57 148.23 314.63C147.712 316.169 147.377 317.763 147.23 319.38L178.52 319.26C178.71 317.64 178.91 316.02 179.1 314.39C179.7 309.5 180.32 304.49 180.94 299.16C190.32 301.59 196.7 303.16 196.7 303.16C196.7 303.16 205.52 288.26 208.08 282.22C208.54 281.22 197.19 278.55 183.61 274.87ZM139.55 256.67C139.37 249.961 140.508 243.281 142.9 237.01C144.01 240.85 145.55 251.82 146.9 262.72C142.35 260.43 139.61 258.93 139.55 256.67V256.67Z" fill="#87CFE0"/>
<path d="M168.89 171.33C168.89 171.33 172.3 164.89 171.36 146.61C171.1 141.55 197.95 158.61 197.95 158.61C197.95 158.61 197.86 160.36 197.8 162.71C197.8 163.71 197.75 164.77 197.75 165.87C197.75 166.18 197.75 166.48 197.75 166.78C197.75 167.28 197.75 167.78 197.75 168.27C197.75 168.76 197.75 169.49 197.81 170.07C197.87 170.65 197.89 171.35 197.95 171.92C198.153 173.149 198.489 174.353 198.95 175.51C200.19 178.36 178.95 178.55 168.89 171.33Z" fill="#E4AA8B"/>
<path d="M191.41 182.95L195.12 187.95C196 189.13 196.61 189.87 196.52 191.45C196.409 193.225 195.626 194.891 194.33 196.11C194.172 196.293 193.972 196.436 193.748 196.526C193.524 196.617 193.281 196.652 193.04 196.63C192.75 196.528 192.494 196.348 192.3 196.11C190.831 194.811 189.596 193.268 188.65 191.55C188.12 190.39 188.78 189.45 189.24 188.31L191.41 182.95Z" fill="#18202D"/>
<path d="M194.61 190.45C196.23 191.52 196.96 195.95 197.82 197.75C199.82 201.97 202.3 205.96 204.01 210.33C206.18 215.88 207.01 221.84 207.75 227.75C208.91 237.483 209.663 247.25 210.01 257.05C210.27 264.32 210.3 271.62 211.4 278.81C212.09 283.33 213.18 288.07 211.54 292.33C210.29 295.58 207.62 298.04 204.97 300.33C202.89 298.5 200.74 296.56 199.71 293.99C199.166 292.493 198.83 290.928 198.71 289.34L196.55 270.25C195.76 263.19 194.96 256.14 194.35 249.06C193.91 244.06 193.57 239.06 193.58 234.06C193.58 229.7 193.87 225.34 193.45 221C193.01 216.41 191.78 211.92 191.2 207.34C190.67 203.18 188.84 194.39 192.25 191.02C193.24 190.12 193.99 190.03 194.61 190.45Z" fill="#18202D"/>
<path d="M196.71 176.75L191.41 182.95C191.41 182.95 182.9 181.3 180.41 176.86C177.92 172.42 196.71 176.75 196.71 176.75Z" fill="#E4AA8B"/>
<path d="M197.92 171.33C197.92 171.33 197.31 176.05 191.41 182.95L201.97 194.95L201.33 173.7L197.92 171.33Z" fill="white"/>
<path d="M170.51 165.64C170.51 165.64 182.81 179.55 191.41 182.95L185.29 197.16L167.78 171.16L170.51 165.64Z" fill="white"/>
<path d="M197.92 171.33C197.92 171.33 197.31 176.05 191.41 182.95L201.97 194.95L201.33 173.7L197.92 171.33Z" fill="url(#paint2_linear)"/>
<path d="M170.51 165.64C170.51 165.64 182.81 179.55 191.41 182.95L185.29 197.16L167.78 171.16L170.51 165.64Z" fill="url(#paint3_linear)"/>
<path d="M218.58 309.8C217.468 309.77 216.368 309.564 215.32 309.19C215.32 309.19 213.62 308.09 212.32 307.39C211.997 307.201 211.663 307.03 211.32 306.88C209.363 306.315 207.512 305.433 205.84 304.27C203.69 302.64 196.69 296.09 196.69 296.09L201.22 289.09L203.3 282.2C203.3 282.2 219.62 283.83 221.8 285.12C222.004 285.243 222.201 285.376 222.39 285.52C224.13 286.79 224.89 288.52 225.72 289.24C226.03 289.53 228.87 292.57 228.72 293.8C228.68 294.492 228.463 295.163 228.09 295.747C227.717 296.332 227.201 296.812 226.59 297.14C226.59 297.14 226.02 300.47 224.29 301.96C224.143 302.873 223.787 303.74 223.249 304.493C222.711 305.246 222.006 305.865 221.19 306.3C221.19 306.3 220.43 309.43 218.58 309.8Z" fill="#E5AB8C"/>
<path d="M192.6 99.46C192.6 99.46 222.09 92.36 215.88 129.69C209.67 167.02 202.59 170.05 184.63 162.61C166.67 155.17 167.92 131.29 166.85 119.61C165.78 107.93 183.19 100.01 192.6 99.46Z" fill="#E4A98A"/>
<path d="M177.11 125.32C176.67 122.04 170.16 120.93 169.71 125.86C169.26 130.79 172.86 139.39 175.31 138.5C177.76 137.61 177.71 129.84 177.11 125.32Z" fill="#E4A98A"/>
<path d="M208.91 282.25L196.73 303.19C196.73 303.19 164.48 294.87 156.95 292.75L174.19 272.28C174.19 272.28 199.52 278.07 208.91 282.25Z" fill="#87CFE0"/>
<path d="M197.84 170.08C193.337 169.711 188.988 168.265 185.16 165.865C181.331 163.466 178.135 160.182 175.84 156.29C181.657 162.128 189.465 165.553 197.7 165.88C197.7 166.19 197.7 166.49 197.7 166.79C197.7 167.29 197.7 167.79 197.7 168.28C197.7 168.77 197.81 169.55 197.84 170.08Z" fill="#A07A64"/>
<path d="M181.28 323.33H333.58C337.849 323.33 341.31 319.869 341.31 315.6V315.59C341.31 311.321 337.849 307.86 333.58 307.86H181.28C177.011 307.86 173.55 311.321 173.55 315.59V315.6C173.55 319.869 177.011 323.33 181.28 323.33Z" fill="#87CFE0"/>
<path d="M181.28 323.33H333.58C337.849 323.33 341.31 319.869 341.31 315.6V315.59C341.31 311.321 337.849 307.86 333.58 307.86H181.28C177.011 307.86 173.55 311.321 173.55 315.59V315.6C173.55 319.869 177.011 323.33 181.28 323.33Z" fill="url(#paint4_linear)"/>
<path d="M240.19 308.55L242.74 316.76L350.96 323.34L381.79 245.16C382.201 244.118 382.351 242.992 382.227 241.879C382.103 240.766 381.708 239.701 381.079 238.775C380.449 237.849 379.602 237.092 378.612 236.568C377.622 236.044 376.52 235.77 375.4 235.77H283.68C279.24 235.771 274.903 237.107 271.232 239.603C267.56 242.099 264.724 245.642 263.09 249.77L240.19 308.55Z" fill="#87CFE0"/>
<path d="M240.19 308.55L242.74 316.76L350.96 323.34L381.79 245.16C382.201 244.118 382.351 242.992 382.227 241.879C382.103 240.766 381.708 239.701 381.079 238.775C380.449 237.849 379.602 237.092 378.612 236.568C377.622 236.044 376.52 235.77 375.4 235.77H283.68C279.24 235.771 274.903 237.107 271.232 239.603C267.56 242.099 264.724 245.642 263.09 249.77L240.19 308.55Z" fill="url(#paint5_linear)"/>
<path d="M240.03 323.43H351.03L380.31 249.17C380.699 248.18 380.841 247.111 380.723 246.054C380.604 244.997 380.23 243.985 379.632 243.106C379.033 242.227 378.23 241.507 377.29 241.01C376.35 240.512 375.303 240.251 374.24 240.25H287.13C282.913 240.247 278.792 241.515 275.305 243.887C271.818 246.259 269.126 249.626 267.58 253.55L240.03 323.43Z" fill="#87CFE0"/>
<path d="M240.03 323.43H351.03L380.31 249.17C380.699 248.18 380.841 247.111 380.723 246.054C380.604 244.997 380.23 243.985 379.632 243.106C379.033 242.227 378.23 241.507 377.29 241.01C376.35 240.512 375.303 240.251 374.24 240.25H287.13C282.913 240.247 278.792 241.515 275.305 243.887C271.818 246.259 269.126 249.626 267.58 253.55L240.03 323.43Z" fill="url(#paint6_linear)"/>
<path d="M93.06 181.35V215.22C93.06 216.079 92.8908 216.929 92.5621 217.723C92.2335 218.516 91.7518 219.237 91.1445 219.844C90.5372 220.452 89.8162 220.934 89.0227 221.262C88.2293 221.591 87.3788 221.76 86.52 221.76H31.52C29.7863 221.757 28.1243 221.067 26.8984 219.842C25.6725 218.616 24.9826 216.954 24.98 215.22V181.35C24.9843 180.985 25.0143 180.621 25.07 180.26L63.99 206.44L92.87 179.94C92.9843 180.402 93.048 180.875 93.06 181.35Z" fill="white"/>
<path d="M180.19 129.66C179.41 127.66 178.41 125.5 176.4 124.82C173.77 123.94 170.92 126.56 170.79 129.34C170.66 132.12 172.51 134.65 174.73 136.34C173.425 140.804 171.752 145.152 169.73 149.34C167.245 141.58 165.954 133.488 165.9 125.34C164.9 125.05 164.37 123.87 164.15 122.82C162.75 116.17 166.21 109.52 169.98 103.82C171.5 101.274 173.473 99.0275 175.8 97.19C181.01 93.49 187.94 93.95 194.3 93.38C199.54 92.91 205.01 91.67 209.89 93.62C213.369 95.1805 216.198 97.9027 217.89 101.32C219.569 104.72 220.725 108.355 221.32 112.1C222.172 115.857 222.485 119.715 222.25 123.56C221.994 127.431 220.504 131.118 218 134.08C217.3 134.85 215.48 135.76 214.64 135.15C215.45 131.9 215.83 128.559 215.77 125.21C215.67 122.33 215.65 120.6 213.77 118.43C213.403 117.95 212.942 117.548 212.417 117.249C211.891 116.95 211.311 116.76 210.71 116.69C209.56 116.69 208.48 117.32 207.34 117.36C205.27 117.45 203.69 115.64 201.88 114.63C200.754 114.032 199.505 113.705 198.231 113.674C196.957 113.643 195.693 113.908 194.54 114.45C193.383 114.999 192.345 115.77 191.487 116.721C190.629 117.672 189.967 118.783 189.54 119.99C189.02 121.44 188.54 123.29 187.02 123.62C185.02 124.04 183.54 121.14 181.81 122.29C180.27 123.36 180.35 128.04 180.19 129.66Z" fill="#18202D"/>
<path d="M146.9 262.72L169.9 270.26C169.9 270.26 162.4 224.9 160.53 223.02C158.66 221.14 136.53 197.16 136.53 197.16C136.53 197.16 148.11 220.63 142.88 237.01" fill="url(#paint7_linear)"/>
<path d="M196.73 303.19L202.19 293.13C202.19 293.13 118.09 267.55 116.97 265.86C115.85 264.17 118.37 221.15 118.37 221.15L105.79 273.73C105.79 273.73 132.26 289.06 196.73 303.19Z" fill="url(#paint8_linear)"/>
<path d="M170.39 297.06V319.28L147.26 319.41C147.26 319.41 150.5 303.58 149.9 290.76L170.39 297.06Z" fill="url(#paint9_linear)"/>
<path d="M92.19 176.19L63.31 202.69L24.36 176.55C24.6216 175.029 25.4122 173.648 26.5923 172.653C27.7724 171.658 29.2662 171.111 30.81 171.11H85.81C87.2921 171.107 88.7311 171.608 89.8905 172.532C91.05 173.455 91.8609 174.745 92.19 176.19V176.19Z" fill="white"/>
<path d="M142.92 92.63C155.026 92.63 164.84 82.8161 164.84 70.71C164.84 58.6039 155.026 48.79 142.92 48.79C130.814 48.79 121 58.6039 121 70.71C121 82.8161 130.814 92.63 142.92 92.63Z" fill="white"/>
<path d="M134.12 103.21L128.15 86.65H157.97L153.24 102.78L134.12 103.21Z" fill="white"/>
<path d="M135.06 106.34H151.93V107.72C151.93 108.327 151.811 108.927 151.578 109.488C151.346 110.049 151.006 110.558 150.577 110.987C150.148 111.416 149.639 111.756 149.078 111.988C148.517 112.221 147.917 112.34 147.31 112.34H139.68C139.073 112.34 138.473 112.221 137.912 111.988C137.351 111.756 136.842 111.416 136.413 110.987C135.984 110.558 135.644 110.049 135.412 109.488C135.18 108.927 135.06 108.327 135.06 107.72V106.34Z" fill="white"/>
<g opacity="0.42">
<path opacity="0.42" d="M138.64 103.55C137.062 100.057 136.179 96.2903 136.04 92.46C135.883 88.5318 137.236 84.6926 139.82 81.73C140.155 81.2987 140.572 80.9385 141.048 80.6706C141.523 80.4027 142.048 80.2325 142.59 80.17C143.257 80.1921 143.905 80.3992 144.461 80.7683C145.018 81.1374 145.46 81.6538 145.74 82.26C146.365 81.8693 147.094 81.6807 147.83 81.72C149.74 81.86 151.03 83.67 151.47 85.41C151.808 87.0558 151.855 88.7479 151.61 90.41C151.123 94.8411 150.133 99.2025 148.66 103.41L147.72 103.08C149.17 98.9346 150.14 94.6365 150.61 90.27C150.859 88.7063 150.822 87.1104 150.5 85.56C150.15 84.17 149.17 82.73 147.76 82.63C147.198 82.5993 146.642 82.7577 146.18 83.08C146.24 83.23 146.29 83.37 146.34 83.52C146.93 85.3699 147.08 87.3318 146.78 89.25C146.689 90.194 146.28 91.0792 145.62 91.76C145.39 91.9645 145.12 92.1189 144.828 92.2136C144.535 92.3083 144.226 92.3411 143.92 92.31C143.681 92.2921 143.449 92.2251 143.237 92.1133C143.026 92.0014 142.839 91.8471 142.69 91.66C142.418 91.2578 142.269 90.7854 142.26 90.3C142.061 88.0581 142.648 85.8168 143.92 83.96C144.206 83.5292 144.542 83.1332 144.92 82.78C144.731 82.3111 144.416 81.9034 144.01 81.6017C143.605 81.3 143.124 81.116 142.62 81.07C141.787 81.198 141.037 81.6466 140.53 82.32C138.149 85.096 136.896 88.6647 137.02 92.32C137.159 96.0226 138.015 99.6632 139.54 103.04L138.64 103.55ZM145.37 83.85C145.14 84.0834 144.933 84.3379 144.75 84.61C143.615 86.2797 143.086 88.2877 143.25 90.3C143.255 90.5962 143.338 90.8859 143.49 91.14C143.552 91.2199 143.631 91.2854 143.72 91.332C143.81 91.3786 143.909 91.4052 144.01 91.41C144.189 91.4337 144.371 91.4183 144.544 91.3647C144.717 91.3112 144.876 91.2209 145.01 91.1C145.495 90.5715 145.787 89.8951 145.84 89.18C146.118 87.4161 145.981 85.6117 145.44 83.91C145.44 83.91 145.38 83.88 145.37 83.86V83.85Z" fill="#87CFE0"/>
</g>
<path d="M318.04 114.87H246.56C243.473 114.87 240.97 117.373 240.97 120.46V167.2C240.97 170.287 243.473 172.79 246.56 172.79H318.04C321.127 172.79 323.63 170.287 323.63 167.2V120.46C323.63 117.373 321.127 114.87 318.04 114.87Z" fill="white"/>
<path opacity="0.42" d="M261.03 130.24H244.53V145.42H261.03V130.24Z" fill="#87CFE0"/>
<path opacity="0.42" d="M280.9 130.24H264.4V145.42H280.9V130.24Z" fill="#87CFE0"/>
<path opacity="0.42" d="M261.03 148.61H244.53V163.79H261.03V148.61Z" fill="#87CFE0"/>
<path opacity="0.42" d="M280.9 148.61H264.4V163.79H280.9V148.61Z" fill="#87CFE0"/>
<path opacity="0.42" d="M300.02 130.24H283.52V145.42H300.02V130.24Z" fill="#87CFE0"/>
<path opacity="0.42" d="M319.88 130.24H303.38V145.42H319.88V130.24Z" fill="#87CFE0"/>
<path opacity="0.42" d="M300.02 148.61H283.52V163.79H300.02V148.61Z" fill="#87CFE0"/>
<path opacity="0.42" d="M319.88 148.61H303.38V163.79H319.88V148.61Z" fill="#87CFE0"/>
</g>
<defs>
<linearGradient id="paint0_linear" x1="232.13" y1="266.76" x2="266.44" y2="236.95" gradientUnits="userSpaceOnUse">
<stop offset="0.01"/>
<stop offset="0.83" stop-opacity="0.07"/>
<stop offset="1" stop-opacity="0"/>
</linearGradient>
<linearGradient id="paint1_linear" x1="11596.2" y1="37730.5" x2="29527.6" y2="39736.9" gradientUnits="userSpaceOnUse">
<stop offset="0.01"/>
<stop offset="0.83" stop-opacity="0.07"/>
<stop offset="1" stop-opacity="0"/>
</linearGradient>
<linearGradient id="paint2_linear" x1="2174.16" y1="3995.41" x2="2733.33" y2="4526.03" gradientUnits="userSpaceOnUse">
<stop offset="0.01"/>
<stop offset="0.83" stop-opacity="0.07"/>
<stop offset="1" stop-opacity="0"/>
</linearGradient>
<linearGradient id="paint3_linear" x1="4291.45" y1="5465.41" x2="4964.43" y2="6536.86" gradientUnits="userSpaceOnUse">
<stop offset="0.01"/>
<stop offset="0.83" stop-opacity="0.07"/>
<stop offset="1" stop-opacity="0"/>
</linearGradient>
<linearGradient id="paint4_linear" x1="257.1" y1="330.61" x2="257.81" y2="298.34" gradientUnits="userSpaceOnUse">
<stop offset="0.01"/>
<stop offset="0.12" stop-opacity="0.75"/>
<stop offset="1" stop-opacity="0"/>
</linearGradient>
<linearGradient id="paint5_linear" x1="43175" y1="20969.7" x2="45176.6" y2="31904.2" gradientUnits="userSpaceOnUse">
<stop offset="0.01"/>
<stop offset="0.12" stop-opacity="0.75"/>
<stop offset="1" stop-opacity="0"/>
</linearGradient>
<linearGradient id="paint6_linear" x1="44659.6" y1="30932.8" x2="44895.4" y2="20833.7" gradientUnits="userSpaceOnUse">
<stop offset="0.01"/>
<stop offset="0.12" stop-opacity="0.75"/>
<stop offset="1" stop-opacity="0"/>
</linearGradient>
<linearGradient id="paint7_linear" x1="4261.73" y1="20958.3" x2="6904.52" y2="19931.5" gradientUnits="userSpaceOnUse">
<stop offset="0.01"/>
<stop offset="0.83" stop-opacity="0.07"/>
<stop offset="1" stop-opacity="0"/>
</linearGradient>
<linearGradient id="paint8_linear" x1="12419.9" y1="29717" x2="15483.5" y2="22224.9" gradientUnits="userSpaceOnUse">
<stop offset="0.01"/>
<stop offset="0.83" stop-opacity="0.07"/>
<stop offset="1" stop-opacity="0"/>
</linearGradient>
<linearGradient id="paint9_linear" x1="4084.22" y1="8261.47" x2="3865.32" y2="11204.2" gradientUnits="userSpaceOnUse">
<stop offset="0.01"/>
<stop offset="0.83" stop-opacity="0.07"/>
<stop offset="1" stop-opacity="0"/>
</linearGradient>
<clipPath id="clip0">
<rect width="410.73" height="323.43" fill="white"/>
</clipPath>
</defs>
</svg>
