<?xml version="1.0" encoding="UTF-8" standalone="no"?>
<svg
   xmlns:dc="http://purl.org/dc/elements/1.1/"
   xmlns:cc="http://creativecommons.org/ns#"
   xmlns:rdf="http://www.w3.org/1999/02/22-rdf-syntax-ns#"
   xmlns:svg="http://www.w3.org/2000/svg"
   xmlns="http://www.w3.org/2000/svg"
   viewBox="0 0 1000 666.66669"
   height="666.66669"
   width="1000"
   xml:space="preserve"
   id="svg6147"
   version="1.1"><metadata
     id="metadata6153"><rdf:RDF><cc:Work
         rdf:about=""><dc:format>image/svg+xml</dc:format><dc:type
           rdf:resource="http://purl.org/dc/dcmitype/StillImage" /><dc:title></dc:title></cc:Work></rdf:RDF></metadata><defs
     id="defs6151"><clipPath
       id="clipPath6165"
       clipPathUnits="userSpaceOnUse"><path
         id="path6163"
         d="M 0,500 H 750 V 0 H 0 Z" /></clipPath><clipPath
       id="clipPath6885"
       clipPathUnits="userSpaceOnUse"><path
         id="path6883"
         d="M 0,500 H 750 V 0 H 0 Z" /></clipPath></defs><g
     transform="matrix(1.3333333,0,0,-1.3333333,0,666.66667)"
     id="g6155"><g
       style="fill:#eef8f4;fill-opacity:1"
       transform="translate(132.8672,219.0469)"
       id="g6167"><path
         id="path6169"
         style="fill:#eef8f4;fill-opacity:1;fill-rule:evenodd;stroke:none"
         d="m 0,0 h -15.993 -1.577 c -33.483,0 -60.877,-27.395 -60.877,-60.877 0,-33.482 27.393,-60.877 60.877,-60.877 h 133.085 30.609 317.709 c 54.22,0 98.578,44.359 98.578,98.577 0,54.219 -44.358,98.577 -98.578,98.578 -22.925,0 -41.679,18.756 -41.679,41.682 0,22.925 18.754,41.681 41.679,41.681 h 9.744 c 23.837,0 43.337,19.5 43.337,43.335 v 0.001 c 0,23.833 -19.504,43.333 -43.337,43.333 h -3.982 -163.818 c -23.274,-0.633 -26.889,-7.56 -31.322,-20.713 -4.654,-13.815 -28.832,-14.929 -28.832,-14.929 H 141.836 c -50.549,0 -55.693,-15.496 -66.079,-46.316 -10.386,-30.821 -64.32,-33.306 -64.32,-33.306 H -3.797 c -18.246,0 -33.176,-14.93 -33.176,-33.174 v -0.001 c 0,-18.246 14.929,-33.175 33.176,-33.175 H 0 C 17.551,63.819 31.909,49.46 31.909,31.91 31.909,14.359 17.551,0 0,0" /></g><g
       transform="translate(240.5029,139.29)"
       id="g6171"><path
         id="path6173"
         style="fill:#f6f4f9;fill-opacity:1;fill-rule:evenodd;stroke:none"
         d="m 0,0 v 159.797 c 0,62.887 51.453,114.341 114.341,114.341 62.887,0 114.341,-51.454 114.341,-114.341 V 0 Z" /></g><g
       style="fill:#eef8f4;fill-opacity:1"
       transform="translate(202.5078,84.6543)"
       id="g6175"><path
         id="path6177"
         style="fill:#eef8f4;fill-opacity:1;fill-rule:evenodd;stroke:none"
         d="m 0,0 v 106.821 c 0.048,0.876 0.8,1.564 1.721,1.574 l 8.621,0.085 0.094,50.075 c 0.005,0.903 0.775,1.637 1.722,1.645 l 4.403,0.15 c 0.481,0.004 0.897,-0.158 1.241,-0.48 0.342,-0.321 0.516,-0.719 0.516,-1.176 l 0.015,-12.978 10.896,-0.024 0.049,56.22 c 0,0.096 0.008,0.175 0.024,0.269 0.152,0.878 0.386,1.714 1.195,2.259 0.277,0.186 0.56,0.28 0.839,0.38 l 0.823,6.666 c 0.098,0.787 0.746,1.388 1.576,1.457 l 2.777,0.233 0.193,16.818 c 0.006,0.504 0.223,0.936 0.63,1.258 0.655,0.519 1.283,0.9 2.119,1.095 0.085,0.019 0.165,0.037 0.242,0.052 l 0.117,13.204 c 0.009,0.911 0.795,1.648 1.752,1.642 l 13.76,-0.085 c 0.915,-0.006 1.667,-0.682 1.725,-1.554 0.155,-2.339 0.107,-4.665 0.086,-7.005 0.295,0.496 0.848,0.829 1.485,0.837 l 12.836,0.206 c 0.904,0.013 1.666,-0.627 1.761,-1.486 0.102,-0.941 0.088,-1.932 0.095,-2.881 0.002,-0.641 -0.029,-2.278 0.168,-2.852 0.031,-0.089 0.082,-0.235 0.137,-0.354 0.036,-0.013 0.072,-0.029 0.108,-0.047 0.876,-0.41 1.216,-1.17 1.352,-2.04 0.17,-1.092 0.138,-2.394 0.124,-3.5 -0.04,-3.392 -0.165,-6.789 -0.192,-10.179 -0.003,-0.496 -0.03,-2.408 0.152,-3.125 0.224,-0.016 0.517,-0.005 0.661,-0.002 0.74,0.015 1.47,0.041 2.213,0.025 0.945,-0.021 1.703,-0.762 1.699,-1.663 l -0.02,-6.628 c 0.104,-0.017 0.213,-0.033 0.32,-0.046 0.667,-0.074 1.191,-0.104 1.743,-0.553 0.644,-0.524 0.782,-1.22 0.801,-1.979 0.02,-0.721 -0.009,-1.455 -0.009,-2.177 l 0.003,-57.363 12.918,0.014 0.139,94.137 c 0.001,0.913 0.783,1.656 1.74,1.656 l 1.561,-0.001 0.085,6.767 c 0.011,0.887 0.753,1.609 1.682,1.637 l 3.131,0.1 0.002,32.284 c 0,0.891 0.739,1.623 1.675,1.656 l 3.163,0.112 0.014,11.953 c 0.002,0.566 0.273,1.052 0.764,1.369 1.193,0.771 1.643,0.915 2.312,0.917 l 0.079,12.896 c 0.007,0.909 0.786,1.646 1.741,1.646 h 25.743 c 0.485,0 0.904,-0.166 1.24,-0.496 0.34,-0.33 0.507,-0.732 0.499,-1.194 -0.07,-3.351 -0.205,-6.704 -0.267,-10.055 -0.008,-0.474 -0.055,-2.056 0.05,-2.888 0.032,0.003 0.062,0.005 0.091,0.006 0.452,0.022 0.901,0.044 1.356,0.043 0.952,-0.004 1.727,-0.744 1.732,-1.652 l 0.053,-12.414 3.013,-0.131 c 0.927,-0.039 1.657,-0.763 1.662,-1.647 l 0.158,-32.309 2.892,-0.089 c 0.914,-0.026 1.646,-0.719 1.682,-1.59 0.075,-1.746 0.102,-3.482 0.123,-5.228 0.004,-0.316 -0.011,-1.129 0.053,-1.555 0.111,-0.058 0.24,-0.119 0.352,-0.17 l 1.885,-0.608 c 0.719,-0.232 1.182,-0.846 1.182,-1.568 l 0.045,-66.097 v -6.354 c 0.147,0.773 0.86,1.362 1.713,1.362 h 3.76 c 0.959,0 1.739,-0.744 1.739,-1.658 v -3.012 h 6.342 v 11.774 c 0,0.457 0.172,0.85 0.51,1.173 0.34,0.322 0.753,0.486 1.232,0.485 l 7.923,-0.015 0.079,34.479 c 0.004,0.908 0.777,1.651 1.731,1.656 l 7.747,0.042 c 0.482,0.003 0.898,-0.158 1.238,-0.483 0.34,-0.322 0.512,-0.716 0.512,-1.174 v -6.436 h 8.719 v 14.012 c 0,0.914 0.782,1.657 1.74,1.657 l 21.456,-0.001 c 0.943,0 1.717,-0.717 1.741,-1.615 l 0.155,-5.948 20.186,-0.002 0.042,3.995 c 0.008,0.9 0.77,1.628 1.71,1.642 l 6.016,0.089 c 0.482,0.006 0.901,-0.154 1.247,-0.477 0.344,-0.325 0.521,-0.72 0.521,-1.181 V 201.11 h 2.654 v 5.554 0.165 c 0,0.817 0.703,1.484 1.561,1.484 h 1.919 c 0.856,0 1.559,-0.669 1.559,-1.484 v -21.882 c 0,-0.814 -0.703,-1.483 -1.559,-1.483 h -1.919 v -16.449 h 13.591 v 59.978 c 0,1.028 0.386,1.913 1.152,2.639 0.765,0.724 1.696,1.089 2.776,1.082 l 9.006,-0.094 c 2.14,-0.012 3.881,-1.676 3.885,-3.717 v -6.251 l 0.004,0.001 V 199.12 h 19.581 v 14.451 c 0,1.028 0.386,1.913 1.152,2.639 0.766,0.725 1.696,1.088 2.776,1.082 l 17.396,-0.096 c 2.144,-0.01 3.884,-1.674 3.884,-3.715 l 0.18,-73.651 17.788,0.033 c 1.077,0.004 2.005,-0.361 2.77,-1.088 0.762,-0.724 1.146,-1.606 1.146,-2.63 v -26.441 h 3.967 L 360.451,0 Z" /></g><g
       style="fill:#2598b5;fill-opacity:1"
       transform="translate(423.8809,272.1816)"
       id="g6179"><path
         id="path6181"
         style="fill:#2598b5;fill-opacity:1;fill-rule:evenodd;stroke:none"
         d="m 0,0 h -81.324 c -3.516,0 -6.396,-2.877 -6.396,-6.396 v 0 c 0,-3.517 2.88,-6.396 6.396,-6.396 H 0 c 3.515,0 6.394,2.879 6.394,6.396 v 0 C 6.394,-2.877 3.515,0 0,0" /></g><g
       style="fill:#2598b5;fill-opacity:1"
       transform="translate(389.6133,89.7676)"
       id="g6183"><path
         id="path6185"
         style="fill:#2598b5;fill-opacity:1;fill-rule:evenodd;stroke:none"
         d="m 0,0 v 179.279 c 0,3.517 -2.875,6.399 -6.395,6.399 -3.518,0 -6.397,-2.882 -6.397,-6.399 V 0 c 0,-3.519 2.879,-6.397 6.397,-6.397 C -2.875,-6.397 0,-3.519 0,0" /></g><g
       style="fill:#f4d7d7"
       transform="translate(477.3506,278.5771)"
       id="g6187"><path
         id="path6189"
         style="fill:#f4d7d7;fill-opacity:1;fill-rule:evenodd;stroke:none"
         d="m 0,0 h -188.266 c -3.522,0 -6.398,-2.878 -6.398,-6.396 0,-3.517 2.876,-6.395 6.398,-6.395 H 0 c 3.522,0 6.397,2.878 6.397,6.395 C 6.397,-2.878 3.522,0 0,0" /></g><g
       style="fill:#999999"
       transform="translate(374.501,320.7119)"
       id="g6191"><path
         id="path6193"
         style="fill:#999999;fill-opacity:1;fill-rule:evenodd;stroke:none"
         d="m 0,0 h -54.059 c -1.435,0 -2.968,-1.174 -3.404,-2.609 l -11.22,-36.912 c -0.436,-1.438 0.381,-2.614 1.818,-2.614 h 54.057 c 1.436,0 2.968,1.176 3.406,2.614 L 1.816,-2.609 C 2.253,-1.174 1.436,0 0,0" /></g><g
       style="fill:#ff9955"
       transform="translate(363.8105,278.5771)"
       id="g6195"><path
         id="path6197"
         style="fill:#ff9955;fill-opacity:1;fill-rule:evenodd;stroke:none"
         d="m 0,0 h -70.563 c -1.49,0 -2.709,1.22 -2.709,2.711 0,1.492 1.219,2.711 2.709,2.711 H 0 C 1.488,5.422 2.709,4.203 2.709,2.711 2.709,1.22 1.488,0 0,0" /></g><g
       style="fill:#ff9955"
       transform="translate(307.1904,278.5771)"
       id="g6199"><path
         id="path6201"
         style="fill:#ff9955;fill-opacity:1;fill-rule:evenodd;stroke:none"
         d="m 0,0 h -13.94 c -1.493,0 -2.712,1.22 -2.712,2.711 0,1.492 1.219,2.711 2.712,2.711 H 0 C 1.493,5.422 2.712,4.203 2.712,2.711 2.712,1.22 1.493,0 0,0" /></g><g
       transform="translate(343.1934,308.1953)"
       id="g6203"><path
         id="path6205"
         style="fill:#ffffff;fill-opacity:1;fill-rule:evenodd;stroke:none"
         d="m 0,0 c -0.455,0 -0.91,-0.052 -1.355,-0.146 0.435,-0.65 0.617,-1.511 0.445,-2.456 -0.365,-2.019 -2.207,-3.658 -4.112,-3.658 -0.921,0 -1.689,0.384 -2.194,1.007 -0.204,-0.504 -0.359,-1.031 -0.457,-1.573 -0.684,-3.77 1.642,-6.826 5.195,-6.826 3.555,0 6.992,3.056 7.675,6.826 C 5.881,-3.057 3.554,0 0,0" /></g><g
       style="fill:#ffffff;fill-opacity:1"
       transform="translate(438.4053,405.9854)"
       id="g6207"><path
         id="path6209"
         style="fill:#ffffff;fill-opacity:1;fill-rule:evenodd;stroke:none"
         d="M 0,0 C 6.924,0 12.569,5.646 12.569,12.569 12.569,19.493 6.924,25.14 0,25.14 -6.925,25.14 -12.57,19.493 -12.57,12.569 -12.57,5.646 -6.925,0 0,0" /></g><g
       transform="translate(438.4053,345.085)"
       id="g6211"><path
         id="path6213"
         style="fill:#ffffff;fill-opacity:1;fill-rule:evenodd;stroke:none"
         d="m 0,0 c 6.924,0 12.569,5.648 12.569,12.571 0,6.924 -5.645,12.571 -12.569,12.571 -6.925,0 -12.57,-5.647 -12.57,-12.571 C -12.57,5.648 -6.925,0 0,0" /></g><g
       style="fill:#2598b5;fill-opacity:1"
       transform="translate(436.249,419.2246)"
       id="g6215"><path
         id="path6217"
         style="fill:#2598b5;fill-opacity:1;fill-rule:evenodd;stroke:none"
         d="m 0,0 c -3.209,-0.86 -5.652,-3.592 -6.088,-6.955 1.893,-2.481 4.882,-4.081 8.244,-4.081 3.362,0 6.351,1.6 8.243,4.081 C 9.964,-3.592 7.521,-0.86 4.308,0 5.451,0.717 6.213,1.987 6.213,3.437 6.213,5.678 4.395,7.493 2.156,7.493 -0.083,7.493 -1.901,5.678 -1.901,3.437 -1.901,1.987 -1.142,0.717 0,0" /></g><g
       style="fill:#5fcaff;fill-opacity:1"
       transform="translate(436.249,358.3252)"
       id="g6219"><path
         id="path6221"
         style="fill:#5fcaff;fill-opacity:1;fill-rule:evenodd;stroke:none"
         d="m 0,0 c -3.209,-0.859 -5.652,-3.591 -6.088,-6.954 1.893,-2.481 4.882,-4.081 8.244,-4.081 3.362,0 6.351,1.6 8.243,4.081 C 9.964,-3.591 7.521,-0.859 4.308,0 c 1.143,0.718 1.905,1.989 1.905,3.438 0,2.24 -1.818,4.056 -4.057,4.056 -2.239,0 -4.057,-1.816 -4.057,-4.056 C -1.901,1.989 -1.142,0.718 0,0" /></g><g
       transform="translate(400.6592,350.3281)"
       id="g6223"><path
         id="path6225"
         style="fill:#ef96bd;fill-opacity:1;fill-rule:evenodd;stroke:none"
         d="m 0,0 h 1.903 c 0.514,0 0.935,-0.419 0.935,-0.935 0,-0.515 -0.421,-0.933 -0.935,-0.933 H 0 c -0.517,0 -0.933,0.418 -0.933,0.933 C -0.933,-0.419 -0.517,0 0,0" /></g><g
       transform="translate(420.4248,348.46)"
       id="g6227"><path
         id="path6229"
         style="fill:#ef96bd;fill-opacity:1;fill-rule:evenodd;stroke:none"
         d="m 0,0 h -15.224 c -0.518,0 -0.934,0.418 -0.934,0.934 0,0.515 0.416,0.934 0.934,0.934 H 0 C 0.515,1.868 0.935,1.449 0.935,0.934 0.935,0.418 0.515,0 0,0" /></g><g
       transform="translate(420.4248,354.9717)"
       id="g6231"><path
         id="path6233"
         style="fill:#ef96bd;fill-opacity:1;fill-rule:evenodd;stroke:none"
         d="m 0,0 h -16.527 c -0.515,0 -0.935,0.418 -0.935,0.933 0,0.514 0.42,0.933 0.935,0.933 H 0 C 0.515,1.866 0.935,1.447 0.935,0.933 0.935,0.418 0.515,0 0,0" /></g><g
       transform="translate(420.4248,359.8799)"
       id="g6235"><path
         id="path6237"
         style="fill:#ef96bd;fill-opacity:1;fill-rule:evenodd;stroke:none"
         d="m 0,0 h -7.612 c -0.514,0 -0.935,0.418 -0.935,0.933 0,0.514 0.421,0.932 0.935,0.932 L 0,1.865 C 0.515,1.865 0.935,1.448 0.935,0.933 0.935,0.418 0.515,0 0,0" /></g><g
       transform="translate(420.4248,366.1895)"
       id="g6239"><path
         id="path6241"
         style="fill:#ef96bd;fill-opacity:1;fill-rule:evenodd;stroke:none"
         d="m 0,0 h -14.324 c -0.515,0 -0.933,0.418 -0.933,0.934 0,0.515 0.418,0.933 0.933,0.933 H 0 C 0.515,1.867 0.935,1.449 0.935,0.934 0.935,0.418 0.515,0 0,0" /></g><g
       style="fill:#5fcaff;fill-opacity:1"
       transform="translate(438.4053,375.5342)"
       id="g6243"><path
         id="path6245"
         style="fill:#5fcaff;fill-opacity:1;fill-rule:evenodd;stroke:none"
         d="m 0,0 c 6.924,0 12.569,5.648 12.569,12.571 0,6.924 -5.645,12.571 -12.569,12.571 -6.925,0 -12.57,-5.647 -12.57,-12.571 C -12.57,5.648 -6.925,0 0,0" /></g><g
       transform="translate(436.249,388.7744)"
       id="g6247"><path
         id="path6249"
         style="fill:#ffffff;fill-opacity:1;fill-rule:evenodd;stroke:none"
         d="m 0,0 c -3.209,-0.858 -5.652,-3.591 -6.088,-6.954 1.893,-2.48 4.882,-4.082 8.244,-4.082 3.362,0 6.351,1.602 8.243,4.082 C 9.964,-3.591 7.521,-0.858 4.308,0 c 1.143,0.719 1.905,1.988 1.905,3.438 0,2.24 -1.818,4.056 -4.057,4.056 -2.239,0 -4.057,-1.816 -4.057,-4.056 C -1.901,1.988 -1.142,0.719 0,0" /></g><g
       transform="translate(420.4248,379.1709)"
       id="g6251"><path
         id="path6253"
         style="fill:#998fc3;fill-opacity:1;fill-rule:evenodd;stroke:none"
         d="m 0,0 h -7.011 c -0.514,0 -0.934,0.418 -0.934,0.933 0,0.515 0.42,0.933 0.934,0.933 H 0 C 0.515,1.866 0.935,1.448 0.935,0.933 0.935,0.418 0.515,0 0,0" /></g><g
       transform="translate(420.4248,383.7314)"
       id="g6255"><path
         id="path6257"
         style="fill:#998fc3;fill-opacity:1;fill-rule:evenodd;stroke:none"
         d="m 0,0 h -10.816 c -0.515,0 -0.936,0.418 -0.936,0.934 0,0.515 0.421,0.932 0.936,0.932 H 0 C 0.515,1.866 0.935,1.449 0.935,0.934 0.935,0.418 0.515,0 0,0" /></g><g
       transform="translate(420.4248,388.5684)"
       id="g6259"><path
         id="path6261"
         style="fill:#998fc3;fill-opacity:1;fill-rule:evenodd;stroke:none"
         d="m 0,0 h -5.558 c -0.516,0 -0.934,0.418 -0.934,0.935 0,0.514 0.418,0.932 0.934,0.932 H 0 C 0.515,1.867 0.935,1.449 0.935,0.935 0.935,0.418 0.515,0 0,0" /></g><g
       transform="translate(399.9971,396.001)"
       id="g6263"><path
         id="path6265"
         style="fill:#998fc3;fill-opacity:1;fill-rule:evenodd;stroke:none"
         d="M 0,0 H 1.905 C 2.42,0 2.84,-0.418 2.84,-0.933 2.84,-1.448 2.42,-1.866 1.905,-1.866 H 0 c -0.515,0 -0.931,0.418 -0.931,0.933 C -0.931,-0.418 -0.515,0 0,0" /></g><g
       transform="translate(420.4248,394.1348)"
       id="g6267"><path
         id="path6269"
         style="fill:#998fc3;fill-opacity:1;fill-rule:evenodd;stroke:none"
         d="m 0,0 h -15.224 c -0.518,0 -0.934,0.418 -0.934,0.934 0,0.514 0.416,0.932 0.934,0.932 H 0 C 0.515,1.866 0.935,1.448 0.935,0.934 0.935,0.418 0.515,0 0,0" /></g><g
       transform="translate(420.4248,410.167)"
       id="g6271"><path
         id="path6273"
         style="fill:#ef96bd;fill-opacity:1;fill-rule:evenodd;stroke:none"
         d="m 0,0 h -4.407 c -0.515,0 -0.935,0.419 -0.935,0.934 0,0.514 0.42,0.932 0.935,0.932 H 0 C 0.515,1.866 0.935,1.448 0.935,0.934 0.935,0.417 0.515,0 0,0" /></g><g
       transform="translate(420.4248,415.4238)"
       id="g6275"><path
         id="path6277"
         style="fill:#ef96bd;fill-opacity:1;fill-rule:evenodd;stroke:none"
         d="m 0,0 h -9.314 c -0.517,0 -0.933,0.417 -0.933,0.933 0,0.515 0.416,0.933 0.933,0.933 H 0 C 0.515,1.866 0.935,1.448 0.935,0.933 0.935,0.417 0.515,0 0,0" /></g><g
       transform="translate(420.4248,422.4795)"
       id="g6279"><path
         id="path6281"
         style="fill:#ef96bd;fill-opacity:1;fill-rule:evenodd;stroke:none"
         d="m 0,0 h -4.407 c -0.515,0 -0.935,0.418 -0.935,0.933 0,0.515 0.42,0.933 0.935,0.933 H 0 C 0.515,1.866 0.935,1.448 0.935,0.933 0.935,0.417 0.515,0 0,0" /></g><g
       transform="translate(420.4248,427.0869)"
       id="g6283"><path
         id="path6285"
         style="fill:#ef96bd;fill-opacity:1;fill-rule:evenodd;stroke:none"
         d="m 0,0 h -17.729 c -0.515,0 -0.931,0.418 -0.931,0.934 0,0.515 0.416,0.932 0.931,0.932 H 0 C 0.515,1.866 0.935,1.449 0.935,0.934 0.935,0.418 0.515,0 0,0" /></g><g
       style="fill:#5fcaff;fill-opacity:1"
       transform="translate(185.6348,269.3447)"
       id="g6291"><path
         id="path6293"
         style="fill:#5fcaff;fill-opacity:1;fill-rule:evenodd;stroke:none"
         d="m 0,0 h -16.741 c -0.776,0 -1.411,-0.635 -1.411,-1.41 v -0.001 c 0,-0.776 0.635,-1.41 1.411,-1.41 H 0 c 0.776,0 1.409,0.634 1.409,1.41 V -1.41 C 1.409,-0.635 0.776,0 0,0" /></g><g
       style="fill:#5fcaff;fill-opacity:1"
       transform="translate(185.6338,263.5137)"
       id="g6295"><path
         id="path6297"
         style="fill:#5fcaff;fill-opacity:1;fill-rule:evenodd;stroke:none"
         d="m 0,0 h -10.157 c -0.776,0 -1.41,-0.634 -1.41,-1.41 0,-0.777 0.634,-1.41 1.41,-1.41 H 0 c 0.776,0 1.41,0.633 1.41,1.41 C 1.41,-0.634 0.776,0 0,0" /></g><g
       style="fill:#5fcaff;fill-opacity:1"
       transform="translate(578.2646,259.998)"
       id="g6299"><path
         id="path6301"
         style="fill:#5fcaff;fill-opacity:1;fill-rule:evenodd;stroke:none"
         d="m 0,0 h 16.743 c 0.774,0 1.41,-0.634 1.41,-1.41 v -0.001 c 0,-0.776 -0.636,-1.41 -1.41,-1.41 L 0,-2.821 c -0.773,0 -1.41,0.634 -1.41,1.41 V -1.41 C -1.41,-0.634 -0.773,0 0,0" /></g><g
       style="fill:#5fcaff;fill-opacity:1"
       transform="translate(578.2646,254.167)"
       id="g6303"><path
         id="path6305"
         style="fill:#5fcaff;fill-opacity:1;fill-rule:evenodd;stroke:none"
         d="m 0,0 h 10.16 c 0.775,0 1.41,-0.634 1.41,-1.41 0,-0.777 -0.635,-1.411 -1.41,-1.411 H 0 c -0.773,0 -1.41,0.634 -1.41,1.411 C -1.41,-0.634 -0.773,0 0,0" /></g><g
       style="fill:#5fcaff;fill-opacity:1"
       transform="translate(542.5713,384.3594)"
       id="g6307"><path
         id="path6309"
         style="fill:#5fcaff;fill-opacity:1;fill-rule:evenodd;stroke:none"
         d="m 0,0 h 16.743 c 0.774,0 1.41,0.635 1.41,1.41 0,0.777 -0.636,1.411 -1.41,1.411 L 0,2.821 C -0.773,2.821 -1.41,2.187 -1.41,1.41 -1.41,0.635 -0.773,0 0,0" /></g><g
       style="fill:#5fcaff;fill-opacity:1"
       transform="translate(542.5713,390.1914)"
       id="g6311"><path
         id="path6313"
         style="fill:#5fcaff;fill-opacity:1;fill-rule:evenodd;stroke:none"
         d="m 0,0 h 10.16 c 0.775,0 1.41,0.633 1.41,1.41 0,0.776 -0.635,1.411 -1.41,1.411 L 0,2.821 C -0.773,2.821 -1.41,2.186 -1.41,1.41 -1.41,0.633 -0.773,0 0,0" /></g><g
       style="fill:#2598b5;fill-opacity:1"
       transform="translate(164.8213,434.666)"
       id="g6375"><path
         id="path6377"
         style="fill:#2598b5;fill-opacity:1;fill-rule:evenodd;stroke:none"
         d="m 0,0 h 48.215 c 3.503,0 6.367,-2.864 6.367,-6.368 v -26.258 -1.943 -16.716 c 0,-0.294 -0.168,-0.544 -0.439,-0.656 -0.271,-0.113 -0.568,-0.054 -0.775,0.153 l -10.85,10.85 H 0 c -3.504,0 -6.368,2.866 -6.368,6.369 V -6.368 C -6.368,-2.864 -3.504,0 0,0" /></g><g
       transform="translate(185.9668,416.5068)"
       id="g6379"><path
         id="path6381"
         style="fill:#ffffff;fill-opacity:1;fill-rule:evenodd;stroke:none"
         d="m 0,0 c -4.41,-1.181 -7.769,-4.935 -8.367,-9.556 2.602,-3.409 6.708,-5.609 11.329,-5.609 4.618,0 8.725,2.2 11.329,5.609 -0.6,4.621 -3.957,8.375 -8.37,9.556 1.571,0.985 2.614,2.732 2.614,4.723 0,3.079 -2.495,5.575 -5.573,5.575 -3.079,0 -5.574,-2.496 -5.574,-5.575 C -2.612,2.732 -1.568,0.985 0,0" /></g><g
       style="fill:#2598b5;fill-opacity:1"
       transform="translate(594.002,452.7637)"
       id="g6383"><path
         id="path6385"
         style="fill:#2598b5;fill-opacity:1;fill-rule:evenodd;stroke:none"
         d="m 0,0 h -48.214 c -3.504,0 -6.369,-2.864 -6.369,-6.367 v -26.259 -1.943 -16.715 c 0,-0.294 0.167,-0.545 0.438,-0.656 0.271,-0.114 0.57,-0.054 0.774,0.153 l 10.851,10.85 H 0 c 3.504,0 6.367,2.866 6.367,6.368 V -6.367 C 6.367,-2.864 3.504,0 0,0" /></g><g
       transform="translate(569.8955,416.9287)"
       id="g6387"><path
         id="path6389"
         style="fill:#ffffff;fill-opacity:1;fill-rule:evenodd;stroke:none"
         d="m 0,0 c 8.408,0 15.266,6.857 15.266,15.266 0,8.408 -6.858,15.265 -15.266,15.265 -8.409,0 -15.267,-6.857 -15.267,-15.265 C -15.267,6.857 -8.409,0 0,0" /></g><g
       style="fill:#00bb00;fill-opacity:1"
       transform="translate(561.7725,430.2412)"
       id="g6391"><path
         id="path6393"
         style="fill:#00bb00;fill-opacity:1;fill-rule:evenodd;stroke:none"
         d="M 0,0 C -0.538,0.57 -0.51,1.471 0.06,2.009 0.633,2.546 1.532,2.519 2.07,1.948 L 5.495,-1.707 14.12,8.668 c 0.503,0.603 1.397,0.686 1.999,0.184 0.601,-0.5 0.684,-1.395 0.185,-1.998 L 6.705,-4.695 C 6.653,-4.762 6.597,-4.827 6.532,-4.887 5.963,-5.425 5.062,-5.397 4.525,-4.827 Z" /></g><g
       style="fill:#5fcaff;fill-opacity:1"
       transform="translate(110.6006,126.9697)"
       id="g6395"><path
         id="path6397"
         style="fill:#5fcaff;fill-opacity:1;fill-rule:evenodd;stroke:none"
         d="M 0,0 C 17.942,0 32.576,14.636 32.576,32.579 32.576,50.52 17.942,65.155 0,65.155 -17.943,65.155 -32.578,50.52 -32.578,32.579 -32.578,14.636 -17.943,0 0,0" /></g><g
       style="fill:#2598b5;fill-opacity:1"
       transform="translate(105.623,129.082)"
       id="g6399"><path
         id="path6401"
         style="fill:#2598b5;fill-opacity:1;fill-rule:evenodd;stroke:none"
         d="M 0,0 C 17.943,0 32.576,14.635 32.576,32.577 32.576,50.521 17.943,65.154 0,65.154 -17.942,65.154 -32.578,50.521 -32.578,32.577 -32.578,14.635 -17.942,0 0,0" /></g><g
       style="fill:#ffffff;fill-opacity:1"
       transform="translate(86.5996,158.5645)"
       id="g6403"><path
         id="path6405"
         style="fill:#ffffff;fill-opacity:1;fill-rule:evenodd;stroke:none"
         d="m 0,0 c -4.412,-1.18 -7.771,-4.935 -8.369,-9.554 2.603,-3.409 6.709,-5.61 11.329,-5.61 4.62,0 8.725,2.201 11.329,5.61 C 13.69,-4.935 10.332,-1.18 5.919,0 7.49,0.988 8.533,2.733 8.533,4.723 c 0,3.079 -2.495,5.575 -5.573,5.575 -3.079,0 -5.574,-2.496 -5.574,-5.575 C -2.614,2.733 -1.57,0.988 0,0" /></g><g
       style="fill:#ffffff;fill-opacity:1"
       transform="translate(118.7236,158.5645)"
       id="g6407"><path
         id="path6409"
         style="fill:#ffffff;fill-opacity:1;fill-rule:evenodd;stroke:none"
         d="m 0,0 c -4.411,-1.18 -7.77,-4.935 -8.367,-9.554 2.601,-3.409 6.708,-5.61 11.328,-5.61 4.619,0 8.726,2.201 11.328,5.61 -0.598,4.619 -3.957,8.374 -8.368,9.554 1.57,0.988 2.613,2.733 2.613,4.723 0,3.079 -2.496,5.575 -5.573,5.575 -3.079,0 -5.575,-2.496 -5.575,-5.575 C -2.614,2.733 -1.569,0.988 0,0" /></g><g
       style="fill:#ffffff;fill-opacity:1"
       transform="translate(122.8369,158.6943)"
       id="g6411"><path
         id="path6413"
         style="fill:#ffffff;fill-opacity:1;fill-rule:evenodd;stroke:none"
         d="m 0,0 c 0,-0.395 -0.319,-0.713 -0.712,-0.713 -0.393,0 -0.713,0.318 -0.713,0.713 v 16.592 c 0,0.88 -0.362,1.684 -0.942,2.264 -0.583,0.583 -1.385,0.945 -2.266,0.945 h -25.164 c -0.881,0 -1.682,-0.362 -2.265,-0.945 -0.58,-0.58 -0.942,-1.384 -0.942,-2.264 V 0 c 0,-0.395 -0.319,-0.713 -0.713,-0.713 -0.393,0 -0.712,0.318 -0.712,0.713 v 16.592 c 0,1.274 0.522,2.432 1.36,3.271 0.839,0.841 1.997,1.362 3.272,1.362 h 25.164 c 1.276,0 2.435,-0.521 3.273,-1.362 C -0.521,19.024 0,17.866 0,16.592 Z" /></g><g
       transform="translate(339.8955,362.1484)"
       id="g6415"><path
         id="path6417"
         style="fill:#f4ad85;fill-opacity:1;fill-rule:evenodd;stroke:none"
         d="m 0,0 c 0,0 3.854,6.095 5.497,8.114 1.643,2.02 5.156,1.888 6.94,2.534 1.784,0.647 4.567,1.419 5.082,1.665 0.514,0.247 1.003,-1.872 0.262,-2.912 C 17.039,8.362 14.748,6.444 14.109,6.091 15.098,4.948 16.592,4.85 17.534,4.384 21.624,2.361 25.428,5.689 30.065,5.841 31.716,5.895 33.032,5.104 33.013,3.793 33.005,3.237 32.414,2.458 31.464,1.514 31.391,1.226 31.263,0.92 31.076,0.608 30.531,0.228 29.968,-0.096 29.394,-0.368 L 28.696,-0.964 C 28.054,-1.951 26.554,-2.878 26.116,-3.134 22.524,-6.148 13.36,-4.753 9.245,-4.06 c 0,0 -1.698,0.403 -2.965,-1.153 C 5.014,-6.77 4.568,-7.317 4.568,-7.317 Z" /></g><g
       transform="translate(339.8955,362.1484)"
       id="g6419"><path
         id="path6421"
         style="fill:#ef8871;fill-opacity:1;fill-rule:evenodd;stroke:none"
         d="M 0,0 C 0,0 2.883,4.557 4.725,7.097 3.643,4.529 4.002,2.489 5.206,0.88 c 3.025,-4.039 11.376,-5.372 15.619,-5.496 3.066,-0.091 1.169,-0.03 1.709,-0.034 -4.284,-0.844 -10.205,0.07 -13.289,0.59 0,0 -1.698,0.403 -2.965,-1.153 C 5.014,-6.77 4.568,-7.317 4.568,-7.317 Z" /></g><g
       transform="translate(365.9365,358.9541)"
       id="g6423"><path
         id="path6425"
         style="fill:#ef8871;fill-opacity:1;fill-rule:evenodd;stroke:none"
         d="M 0,0 C -0.199,-0.159 -0.414,-0.308 -0.644,-0.443 -0.723,-0.066 -0.892,0.401 -1.263,0.626 -1.937,1.035 -3.035,0.564 -4.48,0.599 -5.926,0.633 -8.3,1.124 -8.3,1.124 l 0.287,0.567 c 0,0 0.095,-0.043 0.608,-0.214 0.512,-0.172 2.81,-0.365 4.753,-0.101 1.939,0.264 2.238,0.053 2.761,-1.186 z M 3.611,2.953 C 2.707,4.535 2.231,4.765 -0.4,4.091 -3.069,3.407 -6.312,3.304 -7.055,3.462 -7.799,3.619 -7.939,3.664 -7.939,3.664 L -8.247,2.822 c 0,0 3.393,-0.301 5.419,-0.113 C -0.803,2.896 0.654,3.731 1.666,3.27 2.123,3.059 2.417,2.595 2.601,2.15 L 2.655,2.23 3.353,2.826 Z M 5.794,5.088 C 5.678,4.965 5.554,4.837 5.423,4.708 5.37,4.498 5.287,4.279 5.174,4.056 4.993,4.647 4.562,5.7 3.725,6.018 2.535,6.468 0.937,5.402 -1.359,5.033 -3.656,4.665 -7.551,4.747 -7.551,4.747 l 0.287,0.983 c 0,0 0.163,-0.041 1.025,-0.164 0.861,-0.122 4.551,0.246 7.545,1.23 2.992,0.985 3.525,0.739 4.715,-1.066 z" /></g><g
       transform="translate(358.0381,373.3135)"
       id="g6427"><path
         id="path6429"
         style="fill:#ef8871;fill-opacity:1;fill-rule:evenodd;stroke:none"
         d="M 0,0 C 0.059,-0.595 0.178,-1.007 -0.361,-1.764 -0.9,-2.52 -3.354,-4.925 -3.993,-5.28 l 0.095,-0.106 c -1.062,0.634 -3.15,0.962 -0.469,1.923 C -2.429,-2.769 -0.979,-1.073 0,0" /></g><g
       transform="translate(342.0254,365.915)"
       id="g6431"><path
         id="path6433"
         style="fill:#b4b5b5;fill-opacity:1;fill-rule:evenodd;stroke:none"
         d="m 0,0 c 2.542,-3.689 8.282,-8.282 8.282,-8.282 l -5.945,-2.419 c 0,0 -5.126,3.279 -5.208,5.043 C -2.953,-3.896 0,0 0,0" /></g><g
       transform="translate(359.1641,365.9971)"
       id="g6435"><path
         id="path6437"
         style="fill:#ef8871;fill-opacity:1;fill-rule:evenodd;stroke:none"
         d="m 0,0 c 0.287,-5.413 -4.429,-8.036 -4.429,-8.036 0,0 4.573,5.74 3.178,7.545 -0.561,0.725 -1.072,1.037 -1.076,1.21 C -2.331,0.975 -1.469,0.783 0,0" /></g><g
       style="fill:#f4eed7"
       transform="translate(349.6665,354.333)"
       id="g6439"><path
         id="path6441"
         style="fill:#f4eed7;fill-opacity:1;fill-rule:evenodd;stroke:none"
         d="m 0,0 c 0,0 -28.277,-25.023 -32.359,-27.556 -4.08,-2.532 -10.713,-3.548 -17.474,-1.806 -6.759,1.742 -29.866,7.967 -33.438,10.299 -3.573,2.331 -11.343,10.874 -8.676,20.527 0,0 4.212,4.462 15.419,0.387 11.209,-4.076 29.205,-12.08 31.55,-12.767 2.345,-0.688 5.097,-1.14 8.623,0.638 C -32.83,-8.5 -8.665,9.659 -8.665,9.659 -8.253,6.657 -4.226,1.978 0,0" /></g><g
       style="fill:#212850;fill-opacity:1"
       transform="translate(238.8711,93.1924)"
       id="g6443"><path
         id="path6445"
         style="fill:#212850;fill-opacity:1;fill-rule:evenodd;stroke:none"
         d="m 0,0 c -0.279,-2.627 1.624,-4.987 4.254,-5.267 2.627,-0.279 4.985,1.626 5.265,4.254 l 10.804,101.449 c 0.309,2.89 1.795,5.538 3.938,7.475 2.127,1.923 4.89,3.117 7.773,3.117 h 40.409 c 2.883,0 5.647,-1.194 7.773,-3.117 2.143,-1.937 3.63,-4.585 3.937,-7.475 L 94.958,-1.013 c 0.279,-2.628 2.638,-4.533 5.266,-4.254 2.628,0.28 4.532,2.64 4.253,5.267 L 93.672,101.444 c -0.564,5.299 -3.223,10.094 -7.047,13.551 -3.842,3.472 -8.879,5.628 -14.182,5.628 H 32.034 c -5.304,0 -10.341,-2.156 -14.181,-5.628 -3.826,-3.457 -6.484,-8.252 -7.048,-13.551 z" /></g><g
       style="fill:#999999;fill-opacity:1"
       transform="translate(193.6221,93.1924)"
       id="g6447"><path
         id="path6449"
         style="fill:#999999;fill-opacity:1;fill-rule:evenodd;stroke:none"
         d="m 0,0 c -0.278,-2.627 1.626,-4.987 4.253,-5.267 2.629,-0.279 4.986,1.626 5.267,4.254 l 10.804,101.449 c 0.307,2.89 1.794,5.538 3.938,7.475 2.127,1.923 4.89,3.117 7.773,3.117 h 40.408 c 2.883,0 5.646,-1.194 7.774,-3.117 2.143,-1.937 3.63,-4.585 3.937,-7.475 L 94.96,-1.013 c 0.279,-2.628 2.637,-4.533 5.265,-4.254 2.628,0.28 4.531,2.64 4.254,5.267 L 93.672,101.444 c -0.564,5.299 -3.221,10.094 -7.046,13.551 -3.842,3.472 -8.879,5.628 -14.183,5.628 H 32.035 c -5.303,0 -10.34,-2.156 -14.182,-5.628 -3.825,-3.457 -6.483,-8.252 -7.046,-13.551 z" /></g><g
       style="fill:#050a26;fill-opacity:1"
       transform="translate(323.3564,213.8154)"
       id="g6451"><path
         id="path6453"
         style="fill:#050a26;fill-opacity:1;fill-rule:evenodd;stroke:none"
         d="m 0,0 c 3.533,0 6.396,2.863 6.396,6.394 0,3.533 -2.863,6.398 -6.396,6.398 l -32.596,5.133 c -5.696,0 -12.172,-5.072 -16.383,-2.274 -4.121,2.738 -7.069,8.723 -7.069,21.203 v 90.028 c 0,3.533 -2.864,6.396 -6.396,6.396 h -60.582 V 26.756 l 15.657,-18.277 h 44.925 v 2.753 c 1.85,-2.603 4.026,-4.633 6.42,-6.224 C -48.646,0.105 -56.578,0 -49.075,0 Z" /></g><g
       style="fill:#212850;fill-opacity:1"
       transform="translate(280.0361,213.8154)"
       id="g6455"><path
         id="path6457"
         style="fill:#212850;fill-opacity:1;fill-rule:evenodd;stroke:none"
         d="M 0,0 C 3.53,0 6.396,2.863 6.396,6.394 6.396,9.927 3.53,12.792 0,12.792 h -49.922 c -5.695,0 -12.106,0.061 -16.318,2.859 -4.12,2.738 -7.07,8.723 -7.07,21.203 v 90.028 c 0,3.533 -2.863,6.396 -6.396,6.396 -3.531,0 -6.397,-2.863 -6.397,-6.396 V 36.854 c 0,-17.64 5.346,-26.884 12.817,-31.846 C -65.907,0.105 -57.424,0 -49.922,0 Z" /></g><g
       style="fill:#333333"
       transform="translate(294.0234,119.0283)"
       id="g6459"><path
         id="path6461"
         style="fill:#333333;fill-opacity:1;fill-rule:evenodd;stroke:none"
         d="m 0,0 c 0,0 32.955,97.804 35.32,108.388 2.271,10.157 16.94,24.724 -45.492,34.775 -2.628,0.423 -7.918,5.882 -10.799,6.286 0,0 -47.545,-5.198 -53.427,-7.481 -5.883,-2.283 6.253,-21.632 53.213,-26.204 C 25.775,111.196 4.236,94.97 4.236,94.97 4.236,94.97 -9.868,4.771 -11.59,0.237 -13.313,-4.297 -5.479,-6.626 0,0" /></g><g
       style="fill:#4d4d4d"
       transform="translate(274.6309,270.915)"
       id="g6463"><path
         id="path6465"
         style="fill:#4d4d4d;fill-opacity:1;fill-rule:evenodd;stroke:none"
         d="m 0,0 c 1.222,-0.565 -12.064,-5.108 -10.372,-7.785 3.685,-5.818 34.136,-9.676 42.178,-15.321 6.724,-4.722 9.338,-11.619 11.257,-17.121 2.52,-7.215 32.414,-82.655 34.194,-85.821 1.781,-3.166 -4.055,-8.244 -6.341,-9.398 -2.285,-1.155 -5.22,3.091 -5.22,3.091 0,0 -38.473,70.7 -49.73,88.145 l -43.75,-0.062 c -35.942,-0.047 -23.476,55.12 -15.07,55.934 7.943,0.77 27.081,6.152 39.573,-0.139 C 4.293,7.709 -3.5,-0.032 0,0" /></g><g
       transform="translate(247.9229,376.3262)"
       id="g6467"><path
         id="path6469"
         style="fill:#ea745d;fill-opacity:1;fill-rule:evenodd;stroke:none"
         d="m 0,0 c -0.096,-5.078 0.075,-9.892 -0.27,-14.978 -0.07,-1.037 -0.584,-1.381 -1.908,-2.214 -1.833,-2.637 2.065,-14.17 5.363,-14.667 3.298,-0.498 18.724,0.451 19.855,1.248 0.792,0.557 -6.428,10.655 -5.873,12.292 -0.67,0.173 -1.267,0.387 -1.741,0.809 -3.082,2.749 -1.979,5.35 -1.981,13.355 C 15.331,-2.22 0,0 0,0" /></g><g
       transform="translate(274.5781,341.3535)"
       id="g6471"><path
         id="path6473"
         style="fill:#f5f4f4;fill-opacity:1;fill-rule:evenodd;stroke:none"
         d="m 0,0 c -2.685,1.576 -4.363,0.34 -7.584,-2.488 -3.223,-2.829 -6.072,-2.511 -7.786,-3.118 -1.717,-0.608 -3.461,-27.187 7.201,-31.404 3.943,-1.558 6.563,-0.03 8.338,3.113 C 3.356,-28.256 6.979,-4.099 0,0" /></g><g
       transform="translate(221.3271,269.7314)"
       id="g6475"><path
         id="path6477"
         style="fill:#050a26;fill-opacity:1;fill-rule:evenodd;stroke:none"
         d="m 0,0 c 1.189,-2.868 5.535,-5.244 10.769,-7.033 30.053,-5.521 41.94,5.138 47.575,1.968 3.168,-1.782 2.094,6.948 1.962,7.76 -0.763,4.681 -4.872,1.409 -2.392,23.525 2.48,22.115 9.741,59.842 -14.382,62.647 0,0 0.225,-0.541 0.564,-1.534 l -1.011,-0.037 c 0,0 1.946,-6.731 -2.681,-8.927 -4.627,-2.194 -9.472,0.928 -11.536,3.506 -0.299,0.372 -0.665,0.533 -1.071,0.536 -1.442,1.904 -3.038,3.829 -4.81,5.781 C 17.809,87.416 9.51,83.712 9.51,83.712 5.326,81.94 0.734,78.215 -0.217,74.182 -1.56,68.456 3.66,49.017 7.279,36.502 13.336,15.549 -3.473,8.377 0,0" /></g><g
       style="fill:#f9f9f9"
       transform="translate(262.9678,341.5391)"
       id="g6479"><path
         id="path6481"
         style="fill:#f9f9f9;fill-opacity:1;fill-rule:evenodd;stroke:none"
         d="m 0,0 c 0,0 7.377,-45.168 8.735,-53.399 0,0 0.243,-1.734 -1.014,-3.806 -1.257,-2.071 -3.004,-5.108 -3.632,-5.91 -0.626,-0.801 -1.044,-0.214 -1.784,0.481 -0.742,0.695 -4.765,5.678 -5.55,6.64 -0.443,0.538 -0.801,1.248 -0.697,3.1 0.633,11.489 1.245,22.028 1.064,34.449 -0.097,6.713 -0.387,13.128 -0.893,17.456 l 1.049,3.618 c 0,0 2.71,-1.293 2.722,-2.629" /></g><g
       transform="translate(264.6982,345.9209)"
       id="g6483"><path
         id="path6485"
         style="fill:#e62952;fill-opacity:1;fill-rule:evenodd;stroke:none"
         d="m 0,0 -1.73,-4.382 c 0,0 -2.158,0.775 -3.772,-0.989 l -3.353,3.341 1.6,2.966 c 0,0 2.002,1.094 4.261,0.908 C -0.736,1.656 0,0 0,0" /></g><g
       style="fill:#f9f9f9"
       transform="translate(243.8955,359.0469)"
       id="g6487"><path
         id="path6489"
         style="fill:#f9f9f9;fill-opacity:1;fill-rule:evenodd;stroke:none"
         d="m 0,0 c -0.415,-0.253 -1.268,-0.778 -1.965,-1.463 0,0 -0.472,-0.756 -0.053,-1.94 0.419,-1.184 11.423,-15.239 11.423,-15.239 0,0 0.366,-0.503 0.898,0.053 0.532,0.554 5.184,6.957 5.184,6.957 L 1.515,0.396 C 1.1,0.857 0.409,0.25 0,0" /></g><g
       transform="translate(263.165,358.9912)"
       id="g6491"><path
         id="path6493"
         style="fill:#ffffff;fill-opacity:1;fill-rule:evenodd;stroke:none"
         d="M 0,0 C -0.004,0.008 0.016,0.006 0.053,0.018 1.064,0.333 3.054,-0.031 3.707,-0.721 5.692,-2.639 3.582,-14.344 2.91,-16.34 c -0.006,-0.015 -0.003,-0.025 -0.003,-0.025 0,0 -0.513,-0.562 -1.152,-0.172 -0.64,0.391 -3.964,5.328 -3.964,5.328 C -1.642,-10.229 2.561,-5.274 0,0" /></g><g
       style="fill:#fff6d5"
       transform="translate(242.8711,358.3701)"
       id="g6495"><path
         id="path6497"
         style="fill:#fff6d5;fill-opacity:1;fill-rule:evenodd;stroke:none"
         d="m 0,0 c 0,0 12.633,-33.741 13.894,-49.614 1.261,-15.872 -8.809,-52.271 -9.743,-54.088 -0.934,-1.818 -23.808,-12.355 -31.633,-12.398 -2.22,0.065 -4.307,3.085 -3.637,5.247 0.398,1.283 13.385,47.504 14.543,52.742 1.159,5.237 -5.111,32.92 -6.028,38.05 C -23.523,-14.931 -24.726,-5.523 0,0" /></g><g
       style="fill:#fff6d5"
       transform="translate(266.8721,358.2705)"
       id="g6499"><path
         id="path6501"
         style="fill:#fff6d5;fill-opacity:1;fill-rule:evenodd;stroke:none"
         d="m 0,0 c 0,0 7.432,-30.323 6.953,-45.382 -0.478,-15.06 2.258,-44.767 2.781,-47.697 0.525,-2.929 8.85,-3.714 8.85,-3.714 0,0 -3.446,38.622 -3.465,39.69 -0.017,1.07 0.841,29.768 0.961,33.294 0.119,3.528 -3.621,16.409 -4.256,17.797 C 11.188,-4.624 6.701,-1.281 0,0" /></g><g
       transform="translate(278.624,98.3828)"
       id="g6503"><path
         id="path6505"
         style="fill:#bd1449;fill-opacity:1;fill-rule:evenodd;stroke:none"
         d="m 0,0 c 0,0 35.653,-0.466 36.858,0 1.207,0.466 1.732,1.352 1.732,3.341 v 4.264 c 0,1.494 -0.395,3.023 -3.955,4.517 -3.561,1.493 -3.873,2.133 -6.543,2.915 -2.671,0.781 -7.469,9.74 -8.111,10.308 -0.644,0.567 -2.523,0.567 -4.452,0.567 -1.928,0 -5.044,-0.141 -5.983,-3.127 -0.942,-2.984 -4.934,-3.4 -6.447,-2.481 0,0 -1.467,0.135 -1.813,-1.214 C 0.94,17.738 0.247,8.354 0.147,7.358 0.049,6.362 0.371,5.901 0.371,5.901 c 0,0 -0.668,-0.675 -0.793,-0.998 C -0.544,4.586 -0.594,3.696 -0.594,2.771 -0.594,1.848 -0.68,0.07 0,0" /></g><g
       transform="translate(315.9277,108.9482)"
       id="g6507"><path
         id="path6509"
         style="fill:#e62952;fill-opacity:1;fill-rule:evenodd;stroke:none"
         d="m 0,0 c -0.587,0.521 -1.439,1.042 -2.669,1.557 -3.56,1.493 -4.921,2.439 -6.543,2.915 -1.624,0.474 -1.249,0.715 -1.96,1.476 l -5.342,0.282 -0.172,-2.269 c 0,0 -1.607,-0.394 -0.988,-1.851 0.618,-1.459 5.588,-3.448 9.988,-3.448 h 6.249 C -0.13,-1.338 -0.059,-0.856 0,0" /></g><g
       transform="translate(278.624,98.3828)"
       id="g6511"><path
         id="path6513"
         style="fill:#831d47;fill-opacity:1;fill-rule:evenodd;stroke:none"
         d="m 0,0 c 0,0 2.975,-0.033 7.326,-0.076 3.663,1.321 6.888,2.796 6.888,2.796 0,0 -6.133,11.519 -5.786,12.584 0.345,1.068 4.698,6.257 4.698,6.257 0,0 -0.633,1.554 -1.522,3.668 -0.901,-0.452 -1.667,-1.203 -2.058,-2.444 -0.942,-2.984 -4.933,-3.4 -6.447,-2.481 0,0 -1.467,0.137 -1.813,-1.214 C 0.94,17.738 0.247,8.352 0.147,7.358 0.049,6.364 0.371,5.901 0.371,5.901 c 0,0 -0.668,-0.675 -0.792,-0.998 C -0.544,4.586 -0.595,3.698 -0.595,2.771 -0.595,1.848 -0.68,0.068 0,0" /></g><g
       transform="translate(307.2578,113.2686)"
       id="g6515"><path
         id="path6517"
         style="fill:#e62952;fill-opacity:1;fill-rule:evenodd;stroke:none"
         d="m 0,0 c -0.188,0.049 -0.37,0.1 -0.542,0.151 -2.671,0.782 -7.469,9.741 -8.111,10.308 -0.644,0.567 -2.523,0.567 -4.451,0.567 -1.446,0 -3.559,-0.079 -4.921,-1.375 l -0.002,-0.004 c -0.239,-0.241 -1.182,-1.46 1.284,-3.613 2.768,-2.415 6.527,-5.544 7.961,-6.185 C -7.347,-0.792 -3.978,-0.204 0,0" /></g><g
       transform="translate(315.4824,104.2861)"
       id="g6519"><path
         id="path6521"
         style="fill:#ffffff;fill-opacity:1;fill-rule:evenodd;stroke:none"
         d="m 0,0 c -1.071,-0.413 -34.464,-0.025 -36.487,-0.002 -2.026,0.023 -0.668,-0.676 -0.793,-0.998 -0.122,-0.317 -0.172,-1.207 -0.172,-2.133 0,-0.923 -0.086,-2.7 0.594,-2.77 0,0 35.653,-0.466 36.858,0 1.207,0.466 1.731,1.351 1.731,3.34 V 1.702 C 1.731,2.57 1.722,2.193 1.688,2.44 1.54,1.07 1.072,0.414 0,0" /></g><g
       transform="translate(294.207,119.959)"
       id="g6523"><path
         id="path6525"
         style="fill:#ffffff;fill-opacity:1;fill-rule:evenodd;stroke:none"
         d="M 0,0 1.229,1.378 4.651,0.503 3.424,-0.876 Z M 2.729,-2.989 3.805,-1.783 6.973,-2.597 6.044,-3.84 Z m 3.153,-2.518 0.563,0.754 1.582,-0.404 z M 2.968,3.33 C 3.074,3.448 3.043,3.711 2.897,3.92 2.752,4.124 2.547,4.194 2.44,4.072 L 0.846,2.285 -3.092,3.295 C -3.267,3.338 -3.379,3.186 -3.339,2.951 -3.3,2.718 -3.125,2.492 -2.948,2.446 L 0.259,1.626 -0.895,0.334 c -0.105,-0.12 -0.074,-0.385 0.072,-0.59 0.035,-0.051 0.074,-0.094 0.115,-0.125 0.075,-0.165 0.205,-0.299 0.336,-0.334 L 2.836,-1.536 1.685,-2.828 C 1.577,-2.948 1.608,-3.213 1.754,-3.417 1.848,-3.551 1.968,-3.627 2.069,-3.631 L 5.537,-4.519 4.61,-5.758 4.606,-5.766 H 4.605 L 4.603,-5.77 4.601,-5.773 4.599,-5.777 4.597,-5.781 H 4.595 L 4.593,-5.785 4.591,-5.789 4.589,-5.793 4.587,-5.797 4.585,-5.801 H 4.584 L 4.581,-5.809 4.578,-5.814 4.577,-5.816 4.575,-5.82 V -5.824 L 4.571,-5.829 V -5.833 L 4.569,-5.837 V -5.841 L 4.567,-5.845 V -5.849 L 4.565,-5.854 4.564,-5.856 4.563,-5.862 V -5.864 L 4.562,-5.872 4.56,-5.88 4.557,-5.888 4.556,-5.896 4.555,-5.905 4.553,-5.915 V -5.923 -5.935 -5.962 -5.981 -5.989 L 4.555,-6.002 V -6.01 c 0.002,-0.019 0.007,-0.041 0.01,-0.062 h 10e-4 l 0.005,-0.02 v -0.002 l 0.002,-0.01 V -6.105 L 4.576,-6.111 C 4.581,-6.131 4.587,-6.15 4.595,-6.17 l 0.002,-0.004 0.002,-0.008 0.002,-0.005 0.002,-0.005 0.001,-0.002 0.018,-0.039 0.001,-0.004 0.004,-0.008 h 0.001 l 0.01,-0.02 V -6.267 L 4.644,-6.276 4.649,-6.284 V -6.288 L 4.655,-6.296 4.667,-6.315 H 4.668 L 4.673,-6.323 4.674,-6.327 4.679,-6.333 4.681,-6.335 4.686,-6.343 4.687,-6.345 4.691,-6.351 4.694,-6.355 4.698,-6.359 4.7,-6.363 4.704,-6.371 4.708,-6.375 4.712,-6.379 4.716,-6.383 4.718,-6.387 4.722,-6.391 4.726,-6.395 4.729,-6.398 4.731,-6.402 4.737,-6.408 4.74,-6.41 4.746,-6.416 4.752,-6.424 4.754,-6.426 4.76,-6.43 4.762,-6.434 4.768,-6.437 4.769,-6.441 4.775,-6.445 4.783,-6.453 4.791,-6.461 4.799,-6.465 4.807,-6.473 4.814,-6.479 4.821,-6.484 4.829,-6.488 V -6.49 L 4.836,-6.496 H 4.838 L 4.845,-6.5 4.853,-6.506 H 4.854 L 4.86,-6.51 H 4.861 L 4.867,-6.516 H 4.868 L 4.876,-6.52 4.884,-6.523 H 4.885 L 4.892,-6.527 H 4.893 L 4.899,-6.531 H 4.9 l 0.007,-0.002 0.009,-0.004 v 0.002 L 4.924,-6.539 H 4.925 L 4.939,-6.546 4.946,-6.548 H 4.948 L 4.954,-6.55 H 4.955 L 4.962,-6.552 H 4.963 4.97 4.971 l 0.007,-0.002 0.001,-0.002 h 0.006 10e-4 0.005 0.002 0.006 0.002 0.006 0.002 0.006 0.002 0.004 0.003 0.004 0.003 0.003 l 0.004,0.002 h 0.004 l 0.006,0.002 5.167,0.845 h 0.007 c 0.024,0.004 0.046,0.012 0.065,0.02 l 0.006,0.003 0.018,0.012 0.004,0.004 0.012,0.012 0.004,0.002 0.001,0.002 0.004,0.004 h 10e-4 c 0.007,0.007 0.014,0.02 0.02,0.028 l 0.001,0.002 c 0.036,0.056 0.049,0.139 0.038,0.237 v 0.002 l -0.004,0.022 c -0.012,0.074 -0.038,0.145 -0.074,0.211 l -0.004,0.01 h -10e-4 l -0.016,0.03 -0.005,0.008 -10e-4,0.004 -0.023,0.033 -0.001,0.002 c -0.011,0.016 -0.021,0.028 -0.033,0.041 l -0.002,0.002 c -0.061,0.075 -0.136,0.134 -0.211,0.158 h -0.002 l -0.016,0.005 -3.05,0.78 1.004,1.347 C 8.056,-2.595 8.013,-2.325 7.861,-2.129 7.77,-2.007 7.66,-1.94 7.564,-1.937 L 4.393,-1.123 5.545,0.169 C 5.651,0.286 5.62,0.554 5.476,0.758 5.438,0.809 5.399,0.85 5.358,0.884 5.285,1.049 5.154,1.182 5.022,1.218 l -3.207,0.82 z" /></g><g
       transform="translate(344.1543,124.1924)"
       id="g6527"><path
         id="path6529"
         style="fill:#bd1449;fill-opacity:1;fill-rule:evenodd;stroke:none"
         d="m 0,0 c 0,0 35.137,17.776 35.976,18.727 0.838,0.951 0.893,1.96 -0.006,3.692 -0.904,1.731 -1.257,2.411 -1.933,3.709 -0.676,1.299 -1.713,2.451 -5.487,2.139 -3.775,-0.315 -8.238,-1.93 -10.917,-2.46 C 14.956,25.278 6.725,30.898 5.907,31.103 5.091,31.307 3.455,30.454 1.775,29.583 0.099,28.707 -2.549,27.175 -2.014,24.15 c 0.535,-3.023 -2.75,-5.195 -4.485,-5.082 0,0 -1.338,-0.544 -1.025,-1.877 0.309,-1.332 3.957,-9.811 4.322,-10.722 0.364,-0.911 0.852,-1.166 0.852,-1.166 0,0 -0.273,-0.892 -0.236,-1.226 C -2.549,3.743 -2.189,2.948 -1.771,2.145 -1.353,1.34 -0.622,-0.247 0,0" /></g><g
       transform="translate(375.7324,152.3135)"
       id="g6531"><path
         id="path6533"
         style="fill:#e62952;fill-opacity:1;fill-rule:evenodd;stroke:none"
         d="m 0,0 c -0.748,0.185 -1.726,0.252 -3.028,0.146 -3.775,-0.315 -8.239,-1.93 -10.917,-2.46 -0.576,-0.115 -1.41,0.058 -2.374,0.398 l -4.775,-2.172 0.879,-2.055 c 0,0 -1.221,-1.072 -0.022,-2.057 1.197,-0.99 6.424,-0.472 10.253,1.523 3.83,1.991 7.875,4.097 9.338,4.859 C 0.167,-1.394 0.335,-0.771 0,0" /></g><g
       transform="translate(344.1543,124.1924)"
       id="g6535"><path
         id="path6537"
         style="fill:#831d47;fill-opacity:1;fill-rule:evenodd;stroke:none"
         d="m 0,0 c 0,0 2.605,1.316 6.411,3.252 2.587,2.809 4.726,5.554 4.726,5.554 0,0 -10.553,7.242 -10.735,8.328 -0.181,1.086 1.254,7.57 1.254,7.57 0,0 -1.254,1.068 -2.985,2.504 -0.579,-0.803 -0.907,-1.801 -0.685,-3.058 0.535,-3.023 -2.75,-5.195 -4.485,-5.082 0,0 -1.338,-0.544 -1.025,-1.877 0.309,-1.332 3.957,-9.811 4.322,-10.722 0.364,-0.911 0.852,-1.166 0.852,-1.166 0,0 -0.273,-0.892 -0.236,-1.226 C -2.549,3.743 -2.189,2.948 -1.771,2.145 -1.353,1.34 -0.622,-0.247 0,0" /></g><g
       transform="translate(362.3281,150.1143)"
       id="g6539"><path
         id="path6541"
         style="fill:#e62952;fill-opacity:1;fill-rule:evenodd;stroke:none"
         d="m 0,0 c -0.187,-0.043 -0.368,-0.08 -0.541,-0.115 -2.677,-0.529 -10.908,5.092 -11.726,5.296 -0.816,0.204 -2.452,-0.649 -4.131,-1.52 -1.257,-0.656 -3.06,-1.682 -3.657,-3.43 L -20.057,0.229 V 0.228 c -0.096,-0.318 -0.365,-1.805 2.753,-2.561 3.506,-0.848 8.194,-1.869 9.731,-1.775 C -6.035,-4.014 -3.368,-1.979 0,0" /></g><g
       transform="translate(377.457,148.0566)"
       id="g6543"><path
         id="path6545"
         style="fill:#ffffff;fill-opacity:1;fill-rule:evenodd;stroke:none"
         d="m 0,0 c -0.793,-0.899 -32.108,-16.769 -35.652,-18.562 0,0 -0.274,-0.891 -0.237,-1.225 0.037,-0.334 0.397,-1.129 0.816,-1.933 0.418,-0.804 1.148,-2.391 1.77,-2.144 0,0 35.137,17.776 35.976,18.726 0.839,0.951 0.893,1.96 -0.006,3.693 C 1.764,0.286 1.41,0.966 0.734,2.264 0.623,2.479 0.503,2.687 0.361,2.887 0.853,1.626 0.699,0.793 0,0" /></g><g
       transform="translate(347.9424,150.0244)"
       id="g6547"><path
         id="path6549"
         style="fill:#ffffff;fill-opacity:1;fill-rule:evenodd;stroke:none"
         d="M 0,0 0.444,1.755 3.82,2.545 3.375,0.789 Z M 3.729,-1.365 4.118,0.173 7.242,0.899 6.997,-0.602 Z m 3.883,-0.764 0.148,0.915 1.559,0.363 z M 1.074,4.241 C 1.112,4.395 0.965,4.61 0.747,4.721 0.526,4.835 0.316,4.803 0.278,4.65 L -0.299,2.372 -4.182,1.465 C -4.355,1.426 -4.383,1.241 -4.242,1.057 -4.102,0.872 -3.849,0.754 -3.675,0.793 l 3.163,0.738 -0.418,-1.645 c -0.038,-0.154 0.11,-0.369 0.329,-0.482 0.053,-0.029 0.108,-0.047 0.158,-0.056 C -0.305,-0.763 -0.129,-0.819 0,-0.79 L 3.162,-0.052 2.746,-1.697 C 2.708,-1.851 2.854,-2.066 3.074,-2.18 3.216,-2.253 3.354,-2.265 3.445,-2.224 l 3.419,0.8 L 6.62,-2.923 6.619,-2.931 6.618,-2.933 V -2.938 H 6.617 V -2.942 -2.946 L 6.616,-2.95 V -2.954 -2.958 -2.962 -2.966 -2.97 -2.974 -2.978 -2.981 L 6.617,-2.985 V -2.989 -2.993 L 6.618,-2.995 V -3.001 -3.005 L 6.62,-3.009 V -3.013 -3.017 L 6.622,-3.021 6.623,-3.026 6.625,-3.034 6.627,-3.042 V -3.044 L 6.63,-3.05 V -3.052 L 6.632,-3.06 6.635,-3.067 6.638,-3.075 6.642,-3.083 6.644,-3.091 H 6.645 L 6.647,-3.099 6.662,-3.125 6.67,-3.143 H 6.672 L 6.676,-3.15 6.682,-3.158 H 6.681 l 0.006,-0.008 c 0.01,-0.016 0.022,-0.031 0.036,-0.049 V -3.217 L 6.736,-3.229 6.738,-3.232 6.742,-3.236 6.744,-3.24 6.75,-3.244 C 6.764,-3.26 6.777,-3.275 6.792,-3.288 L 6.795,-3.292 6.801,-3.296 6.804,-3.3 6.81,-3.304 h 0.002 l 0.035,-0.027 0.008,-0.008 h 10e-4 l 0.018,-0.012 0.01,-0.007 0.008,-0.004 0.002,-0.002 0.007,-0.006 0.02,-0.012 H 6.923 L 6.931,-3.386 H 6.933 L 6.94,-3.392 6.942,-3.394 6.949,-3.397 h 0.003 l 0.007,-0.004 h 0.003 l 0.007,-0.004 0.004,-0.002 0.006,-0.002 0.004,-0.004 h 0.004 l 0.006,-0.004 h 0.004 l 0.006,-0.004 h 0.004 l 0.006,-0.004 0.004,-0.002 0.008,-0.002 h 0.002 l 0.008,-0.004 0.01,-0.004 H 7.047 L 7.055,-3.44 h 0.002 l 0.007,-0.002 0.002,-0.002 h 0.008 0.002 l 0.008,-0.004 h 0.002 l 0.008,-0.002 0.01,-0.002 0.009,-0.004 h 0.01 L 7.133,-3.458 7.141,-3.46 H 7.15 7.16 l 0.009,-0.004 h 0.009 0.008 0.001 0.008 0.009 0.001 0.009 0.008 l 0.008,0.002 0.008,0.002 h 10e-4 0.008 l 0.016,0.004 v -0.002 l 0.008,0.002 0.006,0.004 h 10e-4 0.006 0.001 l 0.007,0.004 H 7.299 7.3 l 0.006,0.004 h 0.002 l 0.004,0.002 10e-4,0.002 h 0.006 l 0.002,0.002 0.004,0.001 h 0.002 l 0.004,0.004 h 0.003 l 0.003,0.004 h 0.004 l 0.003,0.004 h 0.003 l 0.002,0.004 h 0.004 l 0.001,0.004 0.006,0.004 4.113,3.075 0.006,0.004 c 0.019,0.012 0.035,0.027 0.048,0.047 l 0.004,0.004 0.009,0.019 0.004,0.004 0.004,0.016 0.002,0.004 0.002,0.008 c 0.002,0.012 0.005,0.022 0.006,0.034 v 0.002 c 0.005,0.066 -0.02,0.142 -0.076,0.223 H 11.48 l -0.011,0.02 C 11.425,0.104 11.371,0.155 11.31,0.196 L 11.301,0.204 H 11.3 L 11.272,0.222 11.265,0.228 H 11.263 L 11.227,0.247 H 11.224 C 11.209,0.255 11.193,0.263 11.179,0.271 H 11.176 C 11.088,0.31 10.997,0.323 10.919,0.31 H 10.917 L 10.901,0.308 7.894,-0.393 8.158,1.233 C 8.184,1.39 8.024,1.606 7.805,1.708 7.671,1.771 7.543,1.779 7.459,1.741 L 4.332,1.011 4.749,2.659 C 4.787,2.81 4.641,3.028 4.421,3.138 4.366,3.167 4.312,3.185 4.262,3.196 4.124,3.305 3.949,3.361 3.82,3.334 L 0.656,2.596 Z" /></g><g
       transform="translate(283.541,428.8311)"
       id="g6551"><path
         id="path6553"
         style="fill:#0f1630;fill-opacity:1;fill-rule:evenodd;stroke:none"
         d="m 0,0 c -2.145,0.876 -5.105,0.454 -8.75,-2.013 -0.742,0.675 -1.543,1.301 -2.391,1.878 -1.874,-6.746 -7.852,-13.854 -19.094,-12.046 -9.458,1.521 -14.103,6.192 -16.312,9.721 -0.53,-0.703 -0.992,-1.458 -1.379,-2.265 5.444,-8.864 21.683,-15.605 34.928,-10.849 C -3.889,-12.304 -0.911,-5.245 0,0" /></g><g
       transform="translate(278.3369,392.8223)"
       id="g6555"><path
         id="path6557"
         style="fill:#eb6b5d;fill-opacity:1;fill-rule:evenodd;stroke:none"
         d="M 0,0 C 0.156,-0.016 0.311,-0.036 0.466,-0.062 L 0.47,-0.063 c 2.832,-0.493 5.054,-2.887 5.214,-5.882 0.186,-3.48 -2.487,-6.451 -5.966,-6.637 -3.481,-0.186 -6.453,2.484 -6.638,5.965 -0.109,2.022 0.748,3.873 2.168,5.104 -0.097,-1.866 0.278,-4.161 2.662,-4.311 l -0.193,3.635 C -2.361,-0.718 -1.012,0.006 0,0" /></g><g
       transform="translate(232.8145,391.2598)"
       id="g6559"><path
         id="path6561"
         style="fill:#eb6b5d;fill-opacity:1;fill-rule:evenodd;stroke:none"
         d="m 0,0 c -0.155,-0.026 -0.308,-0.059 -0.459,-0.095 l -0.005,-0.001 c -2.793,-0.686 -4.845,-3.227 -4.799,-6.225 0.053,-3.486 2.922,-6.267 6.407,-6.213 3.485,0.053 6.268,2.922 6.213,6.406 -0.03,2.026 -1.011,3.814 -2.512,4.944 0.223,-1.855 0.007,-4.17 -2.363,-4.483 l -0.054,3.64 C 2.404,-0.555 1.008,0.075 0,0" /></g><g
       transform="translate(275.0107,409.1914)"
       id="g6563"><path
         id="path6565"
         style="fill:#f4ad85;fill-opacity:1;fill-rule:evenodd;stroke:none"
         d="m 0,0 c 0.948,-2.303 1.728,-3.87 1.818,-6.497 l 0.675,-19.641 c 0.407,-11.877 -8.977,-21.928 -20.854,-22.336 -11.875,-0.407 -21.926,8.977 -22.334,20.854 l -0.675,19.64 c -0.09,2.627 0.083,4.227 0.872,6.59 3.561,1.133 11.249,2.095 20.188,2.402 C -11.371,1.319 -3.63,0.886 0,0" /></g><g
       transform="translate(263.6465,362.1455)"
       id="g6567"><path
         id="path6569"
         style="fill:#ef8871;fill-opacity:1;fill-rule:evenodd;stroke:none"
         d="m 0,0 c -2.183,-0.845 -4.537,-1.343 -6.997,-1.428 -11.875,-0.407 -21.927,8.977 -22.334,20.853 l -0.675,19.64 c -0.09,2.628 0.083,4.228 0.872,6.592 3.562,1.132 11.249,2.094 20.189,2.401 7.387,0.253 13.956,0.002 18.062,-0.593 l 0.07,-0.01 0.048,-0.008 2.286,-4.234 0.199,-7.101 c -0.079,2.818 -4.468,5.116 -10.424,4.911 -5.956,-0.205 -14.031,-0.482 -17.527,-0.602 -3.496,-0.119 -6.058,-1.756 -5.828,-8.466 0.231,-6.711 0.413,-12.013 0.592,-17.231 C -21.288,9.507 -17.448,-3.733 0,0" /></g><g
       transform="translate(277.3789,386.6807)"
       id="g6571"><path
         id="path6573"
         style="fill:#050a26;fill-opacity:1;fill-rule:evenodd;stroke:none"
         d="m 0,0 c 0,0 -1.655,1.173 -1.846,6.697 -0.19,5.524 -0.081,2.37 -0.18,5.253 -0.099,2.881 -3.89,7.888 -9.735,7.687 -7.013,-0.241 -14.029,-0.482 -21.044,-0.723 -5.844,-0.201 -7.673,-5.312 -7.573,-8.194 0.099,-2.883 -0.108,3.154 0.081,-2.369 0.19,-5.524 -3.007,-6.587 -3.007,-6.587 -0.099,2.947 -1.433,2.81 -1.433,2.81 0,0 -0.201,5.861 -0.377,10.986 -0.055,1.629 0.029,3.444 0.381,5.319 h 10e-4 c 0.619,1.591 10.333,3.171 22.271,3.58 11.939,0.41 21.738,-0.499 22.465,-2.043 0.48,-1.847 0.689,-3.651 0.744,-5.282 C 0.925,12.01 1.126,6.148 1.126,6.148 1.126,6.148 -0.149,4.382 0,0" /></g><g
       transform="translate(256.4805,375.7559)"
       id="g6575"><path
         id="path6577"
         style="fill:#050a26;fill-opacity:1;fill-rule:evenodd;stroke:none"
         d="m 0,0 c -0.016,-3.088 2.474,-5.604 5.562,-5.62 3.089,-0.016 5.605,2.475 5.621,5.563 h -0.01 c 0.003,0.531 -0.43,0.969 -0.961,0.971 L 0.979,0.961 C 0.448,0.964 0.012,0.531 0.008,0 Z" /></g><g
       transform="translate(258.54,371.3916)"
       id="g6579"><path
         id="path6581"
         style="fill:#e74862;fill-opacity:1;fill-rule:evenodd;stroke:none"
         d="m 0,0 c 0.956,-0.779 2.174,-1.248 3.504,-1.256 1.084,-0.006 2.099,0.299 2.959,0.83 C 6.039,0.723 4.788,1.588 3.275,1.652 1.833,1.714 0.565,1.028 0,0" /></g><g
       transform="translate(266.8154,376.6602)"
       id="g6583"><path
         id="path6585"
         style="fill:#ffffff;fill-opacity:1;fill-rule:evenodd;stroke:none"
         d="m 0,0 -8.677,0.043 c -0.143,-0.958 0.296,-1.931 0.94,-2.145 0.786,-0.259 7.065,-0.128 7.512,0.364 C -0.009,-1.501 0.023,-0.73 0,0" /></g><g
       transform="translate(249.8916,380.3379)"
       id="g6587"><path
         id="path6589"
         style="fill:#eb6b5d;fill-opacity:1;fill-rule:evenodd;stroke:none"
         d="M 0,0 C 1.567,0.085 2.904,-1.119 2.989,-2.687 3.071,-4.253 1.87,-5.592 0.303,-5.675 -1.265,-5.758 -2.603,-4.556 -2.687,-2.988 -2.769,-1.422 -1.567,-0.083 0,0" /></g><g
       transform="translate(273.4639,381.6123)"
       id="g6591"><path
         id="path6593"
         style="fill:#eb6b5d;fill-opacity:1;fill-rule:evenodd;stroke:none"
         d="M 0,0 C 1.567,0.083 2.905,-1.12 2.99,-2.687 3.072,-4.253 1.87,-5.592 0.304,-5.675 -1.264,-5.759 -2.603,-4.557 -2.687,-2.988 -2.77,-1.423 -1.566,-0.083 0,0" /></g><g
       transform="translate(273.915,395.5293)"
       id="g6595"><path
         id="path6597"
         style="fill:#050a26;fill-opacity:1;fill-rule:evenodd;stroke:none"
         d="M 0,0 C 0.38,-0.184 0.839,-0.025 1.023,0.354 1.208,0.736 1.049,1.195 0.671,1.379 -1.375,2.404 -4.095,2.494 -6.076,1.273 -6.435,1.053 -6.548,0.579 -6.328,0.219 -6.106,-0.14 -5.632,-0.254 -5.271,-0.034 -3.669,0.955 -1.645,0.763 0,0" /></g><g
       transform="translate(248.6602,396.0605)"
       id="g6599"><path
         id="path6601"
         style="fill:#050a26;fill-opacity:1;fill-rule:evenodd;stroke:none"
         d="M 0,0 C 1.63,0.803 3.649,1.041 5.275,0.092 5.639,-0.121 6.111,0.003 6.323,0.368 6.536,0.731 6.411,1.204 6.047,1.416 4.039,2.591 1.322,2.437 -0.698,1.365 -1.074,1.172 -1.222,0.708 -1.028,0.333 -0.834,-0.043 -0.373,-0.191 0,0" /></g><g
       transform="translate(251.4863,389.0742)"
       id="g6603"><path
         id="path6605"
         style="fill:#050a26;fill-opacity:1;fill-rule:evenodd;stroke:none"
         d="m 0,0 v 0 c -1.15,-0.041 -2.06,-1.015 -2.021,-2.165 l 0.071,-2.071 c 0.039,-1.152 1.013,-2.061 2.166,-2.022 1.151,0.04 2.06,1.015 2.02,2.166 l -0.07,2.07 C 2.127,-0.87 1.151,0.039 0,0" /></g><g
       transform="translate(263.2969,382.5986)"
       id="g6607"><path
         id="path6609"
         style="fill:#f7c6b0;fill-opacity:1;fill-rule:evenodd;stroke:none"
         d="M 0,0 C 0.555,-0.711 1.523,-2.006 1.616,-2.495 1.746,-3.186 0.212,-3.64 -0.864,-3.382 -1.63,-3.199 -1.571,-1.5 -1.386,-0.427 -1.182,0.757 -0.874,1.118 0,0" /></g><g
       transform="translate(232.083,407.3428)"
       id="g6611"><path
         id="path6613"
         style="fill:#212850;fill-opacity:1;fill-rule:evenodd;stroke:none"
         d="M 0,0 C 3.32,-14.921 13.271,-9.118 8.161,-3.734 18.339,0.52 33.501,-8.706 45.844,-1.464 60.838,7.337 56.938,30.077 42.691,19.96 30.837,31.268 4.371,29.603 2.307,12.811 -2.7,22.618 -11.411,2.621 0,0" /></g><g
       style="fill:#2598b5;fill-opacity:1"
       transform="translate(286.2002,415.3643)"
       id="g6615"><path
         id="path6617"
         style="fill:#2598b5;fill-opacity:1;fill-rule:evenodd;stroke:none"
         d="m 0,0 c 3.229,7.998 0.129,16.39 -7.276,14.094 -4.878,-21.649 -37.241,-16.29 -41.751,-2.3 -0.687,-0.911 -1.265,-1.909 -1.725,-2.992 C -41.328,-10.156 -13.713,-9.225 0,0" /></g><g
       transform="translate(271.3086,389.2373)"
       id="g6619"><path
         id="path6621"
         style="fill:#050a26;fill-opacity:1;fill-rule:evenodd;stroke:none"
         d="m 0,0 v 0 c -1.15,-0.041 -2.061,-1.015 -2.021,-2.165 l 0.071,-2.071 c 0.039,-1.152 1.013,-2.061 2.165,-2.022 1.151,0.04 2.061,1.014 2.021,2.166 l -0.071,2.07 C 2.126,-0.869 1.15,0.039 0,0" /></g><g
       transform="translate(275.3711,383.8936)"
       id="g6623"><path
         id="path6625"
         style="fill:#050a26;fill-opacity:1;fill-rule:evenodd;stroke:none"
         d="m 0,0 v 0 c -2.92,-7.422 -10.258,-4.33 -10.745,4.679 -0.024,0.449 -0.059,0.967 0.054,1.485 0.195,0.9 0.82,1.867 2.76,2.357 3.087,0.783 5.85,1.257 7.802,-1.222 C 0.939,5.932 0.961,2.443 0,0 m -17.4,4.812 v 0 c -0.117,-1.229 -0.884,-4.315 -2.961,-6.668 -2.076,-2.353 -5.54,-2.216 -7.149,-1.706 -1.608,0.512 -2.962,1.314 -3.823,3.794 -0.862,2.481 -0.702,5.965 0.419,7.289 1.12,1.323 3.451,1.886 5.137,1.996 1.346,0.087 2.908,0.078 5.719,-0.753 1.918,-0.568 2.504,-1.558 2.663,-2.466 0.093,-0.523 0.036,-1.037 -0.005,-1.486 M 2.432,7.875 c -2.326,3.103 -7.629,2.248 -11.245,1.646 -1.647,-0.276 -3.549,0.241 -5.159,0.273 -1.61,0.031 -3.532,-0.408 -5.167,-0.068 -1.634,0.341 -3.559,0.774 -6.261,0.717 -4.449,-0.093 -7.172,-1.168 -8.049,-2.246 -0.877,-1.076 -0.494,-2.93 -0.131,-3.588 0.363,-0.656 0.501,-2.505 1.115,-4.297 0.615,-1.791 1.899,-4.382 5.411,-4.897 3.513,-0.514 5.487,0.464 7.06,1.694 2.246,1.758 4.092,5.129 4.81,8.536 0,0 -1.632,0.477 -1.46,2.287 0,0 1.406,0.109 2.637,0.084 1.232,-0.025 2.629,-0.19 2.629,-0.19 C -11.276,6.012 -12.926,5.6 -12.926,5.6 -11.171,-4.766 -2.557,-9.47 1.134,0.034 1.819,1.799 2.031,3.642 2.42,4.284 2.809,4.926 3.265,6.764 2.432,7.875" /></g><g
       transform="translate(242.2998,392.1934)"
       id="g6627"><path
         id="path6629"
         style="fill:#050a26;fill-opacity:1;fill-rule:evenodd;stroke:none"
         d="M 0,0 C 0.3,0 0.558,-0.339 0.575,-0.756 0.593,-1.175 0.363,-1.512 0.064,-1.512 l -7.726,0.009 c -0.299,0 -0.557,0.339 -0.574,0.757 -0.018,0.417 0.21,0.756 0.51,0.756 z" /></g><g
       transform="translate(198.1719,417.4463)"
       id="g6631"><path
         id="path6633"
         style="fill:#ffffff;fill-opacity:1;fill-rule:evenodd;stroke:none"
         d="M 0,0 C 0.208,0.094 0.42,0.181 0.633,0.263 0.199,0.671 -0.171,1.146 -0.462,1.67 -0.917,2.5 -1.181,3.451 -1.181,4.459 c 0,1.595 0.648,3.038 1.692,4.083 1.047,1.042 2.49,1.69 4.083,1.69 1.593,0 3.037,-0.647 4.082,-1.69 C 9.719,7.495 10.367,6.052 10.367,4.459 10.367,3.448 10.105,2.497 9.648,1.67 9.355,1.146 8.986,0.671 8.555,0.263 c 1.744,-0.659 3.284,-1.741 4.49,-3.119 1.422,-1.623 2.385,-3.663 2.683,-5.912 0.027,-0.152 -0.007,-0.314 -0.108,-0.447 -1.29,-1.689 -2.962,-3.075 -4.885,-4.027 -1.853,-0.917 -3.938,-1.433 -6.141,-1.433 -0.496,0 -0.998,0.029 -1.497,0.081 -0.509,0.054 -1.001,0.135 -1.477,0.239 -0.121,0.029 -0.233,0.093 -0.318,0.197 -0.199,0.242 -0.165,0.6 0.079,0.799 0.437,0.361 0.859,0.751 1.26,1.167 0.395,0.411 0.772,0.848 1.122,1.308 0.054,0.071 0.091,0.147 0.114,0.223 0.019,0.077 0.025,0.162 0.014,0.25 -0.231,1.77 -0.85,3.433 -1.774,4.892 -0.94,1.483 -2.199,2.751 -3.682,3.704 -0.065,0.042 -0.122,0.098 -0.167,0.167 -0.173,0.26 -0.1,0.613 0.162,0.785 C -1.072,-0.535 -0.547,-0.245 0,0 M 1.978,-0.5 C 1.45,-0.641 0.943,-0.821 0.464,-1.038 0.233,-1.14 0.01,-1.252 -0.21,-1.369 c 1.305,-0.97 2.421,-2.173 3.289,-3.54 1.009,-1.591 1.685,-3.412 1.938,-5.36 0.03,-0.237 0.016,-0.467 -0.04,-0.684 -0.06,-0.223 -0.164,-0.429 -0.309,-0.62 -0.377,-0.494 -0.781,-0.964 -1.208,-1.406 l -0.459,-0.459 0.215,-0.025 c 0.443,-0.047 0.904,-0.072 1.378,-0.072 2.026,0 3.94,0.473 5.638,1.313 1.694,0.839 3.174,2.045 4.341,3.513 -0.297,1.938 -1.146,3.694 -2.382,5.105 -1.295,1.48 -3.022,2.58 -4.982,3.104 -0.303,0.081 -0.483,0.395 -0.402,0.697 0.041,0.154 0.141,0.275 0.268,0.348 0.656,0.417 1.201,0.994 1.577,1.671 0.365,0.664 0.574,1.429 0.574,2.243 0,1.28 -0.519,2.439 -1.355,3.277 C 7.032,8.573 5.873,9.092 4.594,9.092 3.313,9.092 2.154,8.573 1.315,7.736 0.479,6.896 -0.039,5.738 -0.039,4.459 -0.039,3.642 0.169,2.878 0.534,2.218 0.917,1.53 1.469,0.948 2.133,0.531 2.398,0.364 2.479,0.013 2.312,-0.252 2.232,-0.38 2.111,-0.463 1.978,-0.5" /></g><g
       transform="translate(166.6377,414.5898)"
       id="g6635"><path
         id="path6637"
         style="fill:#ffffff;fill-opacity:1;fill-rule:evenodd;stroke:none"
         d="M 0,0 C 1.208,1.379 2.746,2.46 4.491,3.119 4.058,3.527 3.688,4.003 3.397,4.526 2.941,5.356 2.679,6.308 2.679,7.315 c 0,1.595 0.647,3.039 1.691,4.083 1.047,1.042 2.49,1.691 4.083,1.691 1.594,0 3.037,-0.648 4.082,-1.691 1.043,-1.046 1.691,-2.49 1.691,-4.083 0,-1.01 -0.262,-1.961 -0.719,-2.789 -0.293,-0.524 -0.662,-1 -1.094,-1.407 0.213,-0.082 0.424,-0.169 0.632,-0.263 0.536,-0.24 1.051,-0.523 1.54,-0.841 C 14.663,1.97 14.731,1.907 14.783,1.826 14.952,1.563 14.876,1.21 14.611,1.041 13.128,0.089 11.871,-1.18 10.93,-2.662 10.006,-4.121 9.385,-5.784 9.157,-7.555 9.146,-7.637 9.149,-7.717 9.167,-7.79 l 0.004,-0.016 c 0.019,-0.075 0.058,-0.151 0.111,-0.221 0.352,-0.46 0.73,-0.898 1.124,-1.309 0.391,-0.406 0.803,-0.787 1.232,-1.143 0.111,-0.079 0.194,-0.198 0.225,-0.342 0.066,-0.307 -0.13,-0.612 -0.437,-0.678 -0.476,-0.104 -0.969,-0.185 -1.476,-0.238 -0.499,-0.053 -1.001,-0.081 -1.497,-0.081 -2.203,0 -4.29,0.515 -6.141,1.432 -1.923,0.952 -3.596,2.339 -4.885,4.028 -0.087,0.116 -0.131,0.262 -0.112,0.416 C -2.392,-3.681 -1.428,-1.631 0,0 M 5.836,2.356 C 3.877,1.832 2.151,0.732 0.855,-0.748 c -1.235,-1.41 -2.084,-3.167 -2.381,-5.105 1.165,-1.467 2.645,-2.673 4.34,-3.512 1.697,-0.84 3.613,-1.314 5.639,-1.314 0.474,0 0.934,0.026 1.378,0.073 l 0.215,0.025 -0.459,0.458 C 9.161,-9.681 8.757,-9.211 8.379,-8.717 8.233,-8.525 8.129,-8.319 8.071,-8.1 L 8.063,-8.066 C 8.012,-7.858 8,-7.639 8.03,-7.412 c 0.251,1.947 0.929,3.768 1.937,5.359 0.868,1.367 1.984,2.571 3.289,3.54 -0.22,0.117 -0.444,0.23 -0.673,0.331 -0.48,0.217 -0.987,0.398 -1.515,0.538 -0.302,0.082 -0.483,0.395 -0.403,0.698 0.041,0.153 0.142,0.274 0.27,0.347 0.656,0.417 1.201,0.995 1.576,1.671 0.365,0.664 0.575,1.429 0.575,2.243 0,1.281 -0.52,2.44 -1.357,3.278 -0.838,0.837 -1.997,1.355 -3.276,1.355 -1.28,0 -2.44,-0.518 -3.277,-1.355 C 4.338,9.753 3.819,8.595 3.819,7.315 3.819,6.498 4.027,5.734 4.393,5.074 4.775,4.387 5.328,3.805 5.992,3.388 6.259,3.221 6.337,2.869 6.17,2.604 6.092,2.477 5.97,2.394 5.836,2.356" /></g><g
       transform="translate(155.2373,356.9062)"
       id="g6639"><path
         id="path6641"
         style="fill:#f4ad85;fill-opacity:1;fill-rule:evenodd;stroke:none"
         d="m 0,0 c 0,0 -3.856,6.095 -5.499,8.114 -1.643,2.02 -5.155,1.888 -6.939,2.534 -1.784,0.648 -4.568,1.42 -5.083,1.665 -0.513,0.247 -1.002,-1.872 -0.261,-2.911 0.741,-1.041 3.033,-2.957 3.672,-3.311 -0.989,-1.143 -2.483,-1.24 -3.426,-1.707 -4.089,-2.023 -7.894,1.305 -12.53,1.456 -1.65,0.056 -2.968,-0.735 -2.949,-2.047 0.008,-0.555 0.6,-1.334 1.55,-2.279 0.072,-0.288 0.2,-0.594 0.387,-0.906 0.545,-0.38 1.108,-0.703 1.682,-0.976 l 0.698,-0.596 c 0.643,-0.987 2.142,-1.913 2.581,-2.17 3.592,-3.014 12.755,-1.619 16.87,-0.926 0,0 1.699,0.404 2.966,-1.153 1.266,-1.558 1.712,-2.104 1.712,-2.104 z" /></g><g
       transform="translate(155.2373,356.9062)"
       id="g6643"><path
         id="path6645"
         style="fill:#ef8871;fill-opacity:1;fill-rule:evenodd;stroke:none"
         d="m 0,0 c 0,0 -2.884,4.558 -4.727,7.096 1.082,-2.566 0.724,-4.606 -0.48,-6.215 -3.024,-4.04 -11.376,-5.372 -15.62,-5.498 -3.066,-0.09 -1.168,-0.028 -1.708,-0.033 4.284,-0.844 10.205,0.07 13.288,0.59 0,0 1.699,0.404 2.966,-1.153 1.266,-1.558 1.712,-2.104 1.712,-2.104 z" /></g><g
       transform="translate(129.1943,353.7129)"
       id="g6647"><path
         id="path6649"
         style="fill:#ef8871;fill-opacity:1;fill-rule:evenodd;stroke:none"
         d="M 0,0 C 0.199,-0.161 0.414,-0.309 0.645,-0.443 0.723,-0.067 0.892,0.4 1.263,0.625 1.938,1.035 3.036,0.563 4.481,0.598 5.928,0.633 8.3,1.123 8.3,1.123 L 8.014,1.691 c 0,0 -0.096,-0.044 -0.609,-0.214 C 6.893,1.305 4.596,1.11 2.653,1.375 0.713,1.638 0.414,1.428 -0.109,0.19 Z M -3.611,2.952 C -2.707,4.533 -2.23,4.764 0.4,4.091 3.069,3.406 6.312,3.304 7.055,3.461 7.8,3.617 7.939,3.663 7.939,3.663 L 8.248,2.822 c 0,0 -3.394,-0.301 -5.419,-0.114 C 0.804,2.895 -0.654,3.731 -1.664,3.268 -2.123,3.058 -2.416,2.595 -2.6,2.149 l -0.055,0.08 -0.698,0.596 z m -2.182,2.136 c 0.117,-0.123 0.239,-0.251 0.371,-0.381 0.052,-0.21 0.136,-0.429 0.248,-0.652 0.181,0.591 0.612,1.644 1.45,1.963 C -2.535,6.467 -0.936,5.402 1.36,5.033 3.656,4.664 7.552,4.746 7.552,4.746 L 7.264,5.729 c 0,0 -0.162,-0.041 -1.024,-0.163 C 5.379,5.444 1.688,5.812 -1.305,6.795 -4.298,7.78 -4.831,7.534 -6.02,5.729 Z" /></g><g
       transform="translate(137.0937,368.0723)"
       id="g6651"><path
         id="path6653"
         style="fill:#ef8871;fill-opacity:1;fill-rule:evenodd;stroke:none"
         d="M 0,0 C -0.059,-0.595 -0.178,-1.008 0.361,-1.764 0.9,-2.521 3.354,-4.926 3.992,-5.28 L 3.898,-5.387 c 1.061,0.634 3.149,0.962 0.468,1.924 C 2.428,-2.769 0.979,-1.073 0,0" /></g><g
       transform="translate(153.1074,360.6729)"
       id="g6655"><path
         id="path6657"
         style="fill:#b4b5b5;fill-opacity:1;fill-rule:evenodd;stroke:none"
         d="m 0,0 c -2.543,-3.69 -8.283,-8.282 -8.283,-8.282 l 5.945,-2.418 c 0,0 5.126,3.279 5.208,5.042 C 2.951,-3.895 0,0 0,0" /></g><g
       transform="translate(135.9678,360.7549)"
       id="g6659"><path
         id="path6661"
         style="fill:#ef8871;fill-opacity:1;fill-rule:evenodd;stroke:none"
         d="m 0,0 c -0.288,-5.412 4.428,-8.035 4.428,-8.035 0,0 -4.572,5.739 -3.177,7.544 C 1.812,0.234 2.323,0.546 2.327,0.718 2.331,0.975 1.469,0.783 0,0" /></g><g
       style="fill:#f4eed7"
       transform="translate(145.7549,351.4404)"
       id="g6663"><path
         id="path6665"
         style="fill:#f4eed7;fill-opacity:1;fill-rule:evenodd;stroke:none"
         d="m 0,0 c 0,0 30.251,-27.4 34.332,-29.933 4.083,-2.532 10.714,-3.549 17.474,-1.807 6.76,1.742 29.869,7.969 33.439,10.3 3.572,2.331 9.248,11.728 6.581,21.38 0,0 4.281,7.223 -6.929,3.149 -11.208,-4.075 -37.696,-14.841 -40.041,-15.527 -2.344,-0.688 -5.094,-1.141 -8.623,0.636 C 32.709,-10.024 8.543,8.137 8.543,8.137 8.132,5.134 4.226,1.978 0,0" /></g><g
       style="fill:#e9ddaf"
       transform="translate(349.6665,354.333)"
       id="g6667"><path
         id="path6669"
         style="fill:#e9ddaf;fill-opacity:1;fill-rule:evenodd;stroke:none"
         d="m 0,0 c -1.605,0.751 -3.18,1.893 -4.541,3.184 -6.986,-6.813 -24.676,-23.86 -29.459,-26.517 -6,-3.333 -24.667,1.666 -36.667,8 0,0 0.317,-3.543 0.813,-8.479 7.639,-2.277 16.303,-4.592 20.021,-5.55 6.761,-1.742 13.394,-0.726 17.474,1.806 C -28.277,-25.023 0,0 0,0" /></g><g
       style="fill:#e9ddaf"
       transform="translate(232,334)"
       id="g6671"><path
         id="path6673"
         style="fill:#e9ddaf;fill-opacity:1;fill-rule:evenodd;stroke:none"
         d="m 0,0 c 0,0 -4.412,-1.041 -10.375,-2.414 2.084,-10.126 5.558,-27.314 4.67,-31.327 -1.158,-5.238 -14.145,-51.459 -14.543,-52.741 -0.67,-2.163 1.417,-5.183 3.637,-5.247 0.872,0.004 1.938,0.145 3.132,0.384 0.722,12.632 8.525,31.53 12.146,46.012 C 3,-28 0,0 0,0" /></g><g
       style="fill:#e9ddaf"
       transform="translate(232.2686,331.0532)"
       id="g6675"><path
         id="path6677"
         style="fill:#e9ddaf;fill-opacity:1;fill-rule:evenodd;stroke:none"
         d="m 0,0 c -0.153,1.86 -0.269,2.947 -0.269,2.947 0,0 -35.333,-8.334 -41.333,-9 -5.814,-0.646 -30.404,14.043 -40.72,28.904 -1.267,-0.928 -2.708,-1.769 -4.192,-2.464 0,0 30.251,-27.4 34.332,-29.932 4.083,-2.533 10.714,-3.55 17.474,-1.808 6.761,1.742 29.869,7.969 33.439,10.3 C -0.868,-0.792 -0.439,-0.429 0,0" /></g><g
       transform="translate(433.5703,327.4961)"
       id="g6679"><path
         id="path6681"
         style="fill:#f4ad85;fill-opacity:1;fill-rule:evenodd;stroke:none"
         d="m 0,0 c 0,0 -3.855,6.095 -5.499,8.114 -1.642,2.02 -5.152,1.887 -6.936,2.534 -1.787,0.646 -4.568,1.419 -5.083,1.665 -0.513,0.246 -1.004,-1.872 -0.262,-2.912 0.742,-1.04 3.032,-2.957 3.672,-3.31 -0.99,-1.144 -2.482,-1.241 -3.425,-1.707 -4.092,-2.023 -7.894,1.304 -12.532,1.456 -1.65,0.054 -2.966,-0.736 -2.947,-2.047 0.008,-0.556 0.598,-1.336 1.548,-2.279 0.074,-0.288 0.2,-0.594 0.389,-0.907 0.542,-0.379 1.107,-0.703 1.68,-0.975 l 0.7,-0.597 c 0.642,-0.986 2.14,-1.912 2.581,-2.17 3.59,-3.013 12.752,-1.619 16.868,-0.926 0,0 1.701,0.403 2.966,-1.152 1.268,-1.558 1.712,-2.105 1.712,-2.105 z" /></g><g
       transform="translate(433.5703,327.4961)"
       id="g6683"><path
         id="path6685"
         style="fill:#ef8871;fill-opacity:1;fill-rule:evenodd;stroke:none"
         d="M 0,0 C 0,0 -2.883,4.557 -4.726,7.096 -3.642,4.53 -4.003,2.489 -5.204,0.881 -8.23,-3.16 -16.582,-4.492 -20.824,-4.617 c -3.068,-0.09 -1.17,-0.029 -1.71,-0.033 4.284,-0.845 10.205,0.069 13.288,0.589 0,0 1.701,0.403 2.966,-1.152 1.268,-1.558 1.712,-2.105 1.712,-2.105 z" /></g><g
       transform="translate(407.5303,324.3018)"
       id="g6687"><path
         id="path6689"
         style="fill:#ef8871;fill-opacity:1;fill-rule:evenodd;stroke:none"
         d="M 0,0 C 0.196,-0.16 0.412,-0.309 0.645,-0.443 0.721,-0.066 0.892,0.4 1.261,0.626 1.937,1.035 3.036,0.563 4.481,0.598 5.927,0.633 8.299,1.123 8.299,1.123 L 8.013,1.691 c 0,0 -0.097,-0.044 -0.61,-0.215 C 6.893,1.304 4.596,1.111 2.651,1.376 0.711,1.64 0.412,1.429 -0.11,0.19 Z M -3.613,2.952 C -2.71,4.534 -2.23,4.764 0.398,4.091 3.067,3.407 6.31,3.303 7.054,3.461 7.798,3.618 7.937,3.663 7.937,3.663 L 8.246,2.822 c 0,0 -3.393,-0.301 -5.418,-0.113 -2.026,0.187 -3.484,1.022 -4.493,0.56 -0.46,-0.21 -0.754,-0.674 -0.937,-1.119 l -0.053,0.079 -0.699,0.597 z m -2.18,2.136 c 0.114,-0.123 0.239,-0.251 0.369,-0.38 0.053,-0.21 0.136,-0.429 0.247,-0.652 0.181,0.591 0.614,1.644 1.451,1.961 1.189,0.451 2.789,-0.615 5.085,-0.984 2.295,-0.368 6.19,-0.287 6.19,-0.287 L 7.262,5.73 c 0,0 -0.16,-0.041 -1.025,-0.163 C 5.377,5.443 1.687,5.812 -1.308,6.796 -4.299,7.78 -4.831,7.535 -6.021,5.73 Z" /></g><g
       transform="translate(415.4287,338.6621)"
       id="g6691"><path
         id="path6693"
         style="fill:#ef8871;fill-opacity:1;fill-rule:evenodd;stroke:none"
         d="M 0,0 C -0.059,-0.596 -0.177,-1.009 0.361,-1.765 0.899,-2.521 3.354,-4.927 3.99,-5.282 L 3.898,-5.387 C 4.96,-4.754 7.046,-4.426 4.367,-3.463 2.427,-2.771 0.978,-1.073 0,0" /></g><g
       transform="translate(414.3018,331.3437)"
       id="g6695"><path
         id="path6697"
         style="fill:#ef8871;fill-opacity:1;fill-rule:evenodd;stroke:none"
         d="m 0,0 c -0.287,-5.412 4.43,-8.035 4.43,-8.035 0,0 -4.572,5.739 -3.179,7.544 0.563,0.725 1.074,1.037 1.076,1.21 C 2.333,0.976 1.469,0.783 0,0" /></g><g
       transform="translate(482.5781,354.7949)"
       id="g6699"><path
         id="path6701"
         style="fill:#dbdcdc;fill-opacity:1;fill-rule:evenodd;stroke:none"
         d="m 0,0 c 0,0 -2.4,-1.077 -3.382,-1.831 -0.977,-0.754 -4.182,-3.884 -8.558,-12.783 -4.375,-8.898 -9.953,-23.301 -10.86,-25.111 -0.903,-1.81 -2.751,-0.302 -3.279,0.112 -0.526,0.416 -24.434,15.724 -24.434,15.724 -0.577,0.321 -0.381,-4.267 -1.822,-5.574 -1.787,-1.619 -4.595,-1.616 -3.57,-2.985 0.907,-1.206 23.074,-23.114 26.77,-25.678 3.697,-2.564 9.618,-3.716 13.849,1.579 4.233,5.297 11.417,15.72 11.417,15.72 z" /></g><g
       transform="translate(482.5781,354.7949)"
       id="g6703"><path
         id="path6705"
         style="fill:#ffffff;fill-opacity:1;fill-rule:evenodd;stroke:none"
         d="m 0,0 c 0,0 -2.4,-1.077 -3.382,-1.831 -0.977,-0.754 -4.182,-3.884 -8.558,-12.783 -4.375,-8.898 -9.953,-23.301 -10.86,-25.111 -0.903,-1.81 -2.751,-0.302 -3.279,0.112 -0.526,0.416 -24.434,15.724 -24.434,15.724 -0.577,0.321 -0.381,-4.267 -1.822,-5.574 -0.453,-0.412 -0.972,-0.718 -1.477,-0.969 6.968,-6.942 19.292,-18.904 21.963,-20.757 3.696,-2.564 9.619,-3.715 13.849,1.581 4.231,5.295 11.415,15.717 11.415,15.717 l 4.723,14.266 z" /></g><g
       transform="translate(482.6777,418.3252)"
       id="g6707"><path
         id="path6709"
         style="fill:#212850;fill-opacity:1;fill-rule:evenodd;stroke:none"
         d="m 0,0 c 0,0 -4.801,-0.483 -7.271,-2.17 -2.467,-1.686 -6.436,-26.2 -14.848,-38.267 0,0 -0.372,-0.609 0.135,-1.57 0.506,-0.962 3.224,-1.04 5.353,0.051 8.221,-15.026 42.205,-21.481 54.931,-14.279 8.301,4.699 11.131,9.672 11.774,13.663 0.746,4.635 -1.461,7.943 -1.461,7.943 0,0 3.967,-1.517 5.075,0.82 1.108,2.336 -2.042,2.709 -4.733,15.506 -2.686,12.797 -8.695,27.57 -30.159,31.066 z" /></g><g
       transform="translate(480.3154,417.9463)"
       id="g6711"><path
         id="path6713"
         style="fill:#050a26;fill-opacity:1;fill-rule:evenodd;stroke:none"
         d="m 0,0 c -1.567,-0.322 -3.578,-0.882 -4.909,-1.791 -2.467,-1.687 -6.436,-26.2 -14.848,-38.267 0,0 -0.372,-0.609 0.135,-1.57 0.507,-0.962 3.225,-1.04 5.353,0.051 8.221,-15.027 42.206,-21.481 54.931,-14.279 8.301,4.699 11.131,9.672 11.775,13.663 0.746,4.635 -1.461,7.943 -1.461,7.943 0,0 3.966,-1.517 5.074,0.82 1.108,2.336 -2.042,2.709 -4.733,15.506 -0.145,0.701 -0.304,1.408 -0.475,2.12 -6.308,-3.889 -17.686,-8.102 -31.397,-0.628 C 5.925,-9.061 1.461,-3.24 0,0" /></g><g
       style="fill:#212850;fill-opacity:1"
       transform="translate(526.166,88.1357)"
       id="g6715"><path
         id="path6717"
         style="fill:#212850;fill-opacity:1;fill-rule:evenodd;stroke:none"
         d="m 0,0 c 0.278,-2.629 -1.626,-4.986 -4.254,-5.265 -2.627,-0.279 -4.988,1.626 -5.267,4.254 l -10.804,101.445 c -0.307,2.89 -1.795,5.542 -3.936,7.477 -2.129,1.923 -4.891,3.117 -7.776,3.117 h -40.406 c -2.883,0 -5.649,-1.194 -7.774,-3.117 -2.144,-1.935 -3.629,-4.587 -3.938,-7.477 L -94.96,-1.011 c -0.279,-2.628 -2.636,-4.533 -5.266,-4.254 -2.628,0.279 -4.53,2.636 -4.251,5.265 l 10.805,101.446 c 0.562,5.295 3.221,10.09 7.046,13.547 3.841,3.474 8.88,5.628 14.183,5.628 h 40.406 c 5.306,0 10.341,-2.154 14.183,-5.628 3.825,-3.457 6.484,-8.252 7.049,-13.547 z" /></g><g
       style="fill:#999999;fill-opacity:1"
       transform="translate(571.4131,88.1357)"
       id="g6719"><path
         id="path6721"
         style="fill:#999999;fill-opacity:1;fill-rule:evenodd;stroke:none"
         d="m 0,0 c 0.278,-2.629 -1.624,-4.986 -4.254,-5.265 -2.627,-0.279 -4.985,1.626 -5.265,4.254 l -10.804,101.445 c -0.309,2.89 -1.795,5.542 -3.938,7.477 -2.127,1.923 -4.891,3.117 -7.774,3.117 h -40.406 c -2.885,0 -5.649,-1.194 -7.777,-3.117 -2.14,-1.935 -3.63,-4.587 -3.935,-7.477 L -94.958,-1.011 c -0.279,-2.628 -2.64,-4.533 -5.267,-4.254 -2.628,0.279 -4.533,2.636 -4.254,5.265 l 10.807,101.446 c 0.564,5.295 3.223,10.09 7.048,13.547 3.841,3.474 8.876,5.628 14.183,5.628 h 40.406 c 5.303,0 10.342,-2.154 14.182,-5.628 3.826,-3.457 6.485,-8.252 7.046,-13.547 z" /></g><g
       transform="translate(440.1562,208.7568)"
       id="g6723"><path
         id="path6725"
         style="fill:#050a26;fill-opacity:1;fill-rule:evenodd;stroke:none"
         d="m 0,0 c -3.53,0 -6.396,2.863 -6.396,6.397 0,3.532 2.866,6.395 6.396,6.395 h 32.662 c 5.694,0 12.105,0.062 16.318,2.859 4.121,2.74 7.068,8.727 7.068,21.204 v 90.029 c 0,3.532 2.865,6.395 6.396,6.395 h 60.582 V 26.758 L 107.371,8.483 H 88.609 v 2.751 C 86.758,8.629 84.584,6.6 82.188,5.012 74.813,0.109 66.328,0 58.825,0 Z" /></g><g
       transform="translate(483.4775,208.7568)"
       id="g6727"><path
         id="path6729"
         style="fill:#212850;fill-opacity:1;fill-rule:evenodd;stroke:none"
         d="m 0,0 c -3.531,0 -6.395,2.863 -6.395,6.397 0,3.532 2.864,6.395 6.395,6.395 h 49.921 c 5.697,0 12.106,0.062 16.316,2.859 4.12,2.74 7.071,8.727 7.071,21.204 v 90.029 c 0,3.532 2.865,6.395 6.397,6.395 3.531,0 6.395,-2.863 6.395,-6.395 V 36.855 C 86.1,19.218 80.754,9.972 73.284,5.012 65.908,0.109 57.425,0 49.921,0 Z" /></g><g
       transform="translate(451.5664,124.4209)"
       id="g6731"><path
         id="path6733"
         style="fill:#bd1449;fill-opacity:1;fill-rule:evenodd;stroke:none"
         d="M 0,0 3.476,-2.655 1.437,-24.618 c 0,0 -0.079,-1.626 -0.825,-1.626 h -1.214 c 0,0 -0.573,0.159 -0.514,1.125 0.059,0.968 0.582,21.766 0.582,21.766 z" /></g><g
       transform="translate(450.2148,131.8457)"
       id="g6735"><path
         id="path6737"
         style="fill:#e62952;fill-opacity:1;fill-rule:evenodd;stroke:none"
         d="m 0,0 c 0,0 4.552,-2.543 4.945,-3.475 0.393,-0.93 1.37,-5.089 0.294,-6.605 -1.076,-1.519 -4.257,-2.692 -4.992,-3.621 -0.734,-0.931 -4.552,-17.081 -4.552,-17.081 0,0 -0.585,-2.887 -3.916,-2.887 h -19.916 c 0,0 -0.954,0.196 -0.93,1.492 0.013,0.715 0.592,1.756 1.107,2.547 1.041,1.595 2.446,1.686 3.491,1.686 l 10.401,2.766 6.02,15.074 3.865,10.718 c 0,0 2.985,1.028 4.183,-0.614" /></g><g
       transform="translate(437.3184,145.2207)"
       id="g6739"><path
         id="path6741"
         style="fill:#f4ad85;fill-opacity:1;fill-rule:evenodd;stroke:none"
         d="m 0,0 c 2.721,-4.101 3.125,-14.338 2.909,-15.164 -0.86,-3.321 -3.647,-12.737 -4.596,-15.978 -2.348,-8.023 -5.431,-7.584 -6.849,-7.584 -1.422,0 -2.592,-0.934 -3.036,-2.593 H -0.56 c 2.153,0 3.622,1.272 4.305,3.328 0.688,2.054 5.091,20.407 5.53,22.218 0.442,1.811 2.545,2.592 3.621,2.398 l -1.435,13.01 C 7.948,-2.195 2.901,1.56 0,0" /></g><g
       transform="translate(440.2139,132.8525)"
       id="g6743"><path
         id="path6745"
         style="fill:#ef8c6f;fill-opacity:1;fill-rule:evenodd;stroke:none"
         d="m 0,0 c 1.644,-0.047 3.018,-0.1 3.238,-0.169 0.532,-0.162 0.832,-1.469 0.491,-3.13 -0.342,-1.665 -5.333,-18.856 -5.774,-20.262 -0.435,-1.384 -2.242,-2.757 -8.736,-2.8 h -0.01 -0.008 -0.31 -0.466 c -1.357,-0.059 -2.464,-0.986 -2.893,-2.59 h 11.013 c 2.152,0 3.621,1.272 4.305,3.328 0.687,2.055 5.09,20.407 5.53,22.218 0.441,1.811 2.545,2.593 3.621,2.398 L 8.567,12.003 C 5.053,10.173 0.006,13.928 -2.896,12.368 -0.98,9.478 -0.211,3.543 0,0" /></g><g
       transform="translate(452.7715,130.3115)"
       id="g6747"><path
         id="path6749"
         style="fill:#bd1449;fill-opacity:1;fill-rule:evenodd;stroke:none"
         d="m 0,0 c 1.111,-0.717 2.206,-1.504 2.389,-1.94 0.392,-0.931 1.37,-5.09 0.294,-6.606 -1.077,-1.518 -4.257,-2.692 -4.993,-3.621 -0.734,-0.931 -4.551,-17.081 -4.551,-17.081 0,0 -0.585,-2.887 -3.916,-2.887 h -19.916 c 0,0 -0.954,0.197 -0.931,1.492 0.008,0.413 0.204,0.935 0.467,1.456 h 16.543 c 2.643,0 4.209,0.831 4.893,2.252 0.684,1.418 6.364,22.953 7.145,24.469 C -2.199,-1.735 -1.068,-0.785 0,0" /></g><g
       transform="translate(497.4707,123.5449)"
       id="g6751"><path
         id="path6753"
         style="fill:#e62952;fill-opacity:1;fill-rule:evenodd;stroke:none"
         d="m 0,0 -3.515,-5.976 c 0,0 -1.253,-1.337 -1.507,-2.736 -0.256,-1.397 -1.655,-10.616 -1.91,-11.951 -0.251,-1.335 0.448,-4.705 3.563,-4.705 H 6.61 c 2.671,0 6.168,2.415 6.168,7.183 V 2.16 c 0,4.705 -0.936,9.764 -5.138,9.764 C 3.433,11.924 0,0 0,0" /></g><g
       transform="translate(493.7793,139.8203)"
       id="g6755"><path
         id="path6757"
         style="fill:#ef8871;fill-opacity:1;fill-rule:evenodd;stroke:none"
         d="m 0,0 -1.135,-4.563 c 0,0 0.691,-2.24 1.135,-3.382 0.447,-1.147 0.004,-22.572 0.192,-23.527 0.193,-0.954 1.082,-1.461 2.29,-1.461 h 4.006 c 1.018,0 2.796,0.445 3.178,3.877 0.383,3.433 1.653,16.276 1.972,20.217 0.317,3.942 -0.888,6.422 -1.717,8.773 C 9.096,2.286 0,0 0,0" /></g><g
       transform="translate(493.9131,130.4883)"
       id="g6759"><path
         id="path6761"
         style="fill:#f4ad85;fill-opacity:1;fill-rule:evenodd;stroke:none"
         d="m 0,0 c 0.157,-3.747 0.02,-13.909 0.012,-19.072 h 4.255 c 1.557,0 2.192,0.475 2.192,2.321 V -3.209 C 6.459,-0.507 5.506,0 3.723,0 Z" /></g><g
       transform="translate(508.1934,376.7734)"
       id="g6763"><path
         id="path6765"
         style="fill:#ea745d;fill-opacity:1;fill-rule:evenodd;stroke:none"
         d="M 0,0 C 0.853,-12.958 0.153,-16.38 4.132,-18.43 9.08,-23.463 4.049,-28.875 0.55,-29.491 c -3.495,-0.618 -20.619,2.277 -21.79,3.085 -0.817,0.563 4.175,5.193 3.636,6.903 0.366,0.104 -0.05,-0.007 0.319,0.114 4.493,1.344 3.407,6.157 2.887,14.076 C -16.333,-3.328 0,0 0,0" /></g><g
       style="fill:#ffaaaa"
       transform="translate(512.3252,358.3437)"
       id="g6767"><path
         id="path6769"
         style="fill:#ffaaaa;fill-opacity:1;fill-rule:evenodd;stroke:none"
         d="m 0,0 c 0,0 -5.672,-6.918 -12.36,-7.321 -6.689,-0.405 -8.998,5.471 -9.057,6.362 0,0 -7.698,-2.422 -8.33,-2.59 -0.633,-0.168 -10.008,-23.993 -10.958,-29.06 -0.95,-5.068 5.82,-19.433 6.551,-24.572 0.734,-5.137 -2.077,-40.916 -2.689,-44.411 0,0 -0.138,-1.654 3.306,-2.915 3.44,-1.261 14.956,-2.034 19.48,-1.761 4.529,0.273 33.844,9.732 38.031,13.699 0,0 0.679,0.7 -0.047,2.876 -0.731,2.173 -8.912,27.422 -8.951,31.048 -0.043,3.627 5.39,50.906 5.39,50.906 0,0 -1.225,1.438 -3.945,2.959 C 13.703,-3.259 0,0 0,0" /></g><g
       style="fill:#ff8080"
       transform="translate(471.6826,322.7998)"
       id="g6771"><path
         id="path6773"
         style="fill:#ff8080;fill-opacity:1;fill-rule:evenodd;stroke:none"
         d="m 0,0 c 0.931,-6.338 5.868,-17.289 6.488,-21.637 0.056,-0.383 0.091,-0.939 0.107,-1.636 2.046,0.357 4.67,0.772 8,1.228 11.009,1.509 23.679,-0.452 23.679,-0.452 L 6.154,-36.44 C 6.029,-38.68 5.88,-41.023 5.723,-43.373 l 6.158,-3.858 37.853,8.747 c 0,0 4.074,-5.127 4.376,-14.78 0.114,-3.647 -0.009,-6.672 -0.118,-8.98 5.09,1.987 9.237,3.905 10.624,5.219 0,0 0.68,0.7 -0.047,2.876 -0.73,2.173 -8.912,27.421 -8.951,31.048 -0.008,0.817 0.259,3.85 0.68,8.052 l -6.712,31.915 c 0,0 -1.206,-3.015 -4.977,-15.836 C 40.839,-11.789 36.464,-10.733 21.382,-11.186 7.23,-11.61 6.622,-12.034 0,0" /></g><g
       style="fill:#e9afaf"
       transform="translate(509.7168,261.6943)"
       id="g6775"><path
         id="path6777"
         style="fill:#e9afaf;fill-opacity:1;fill-rule:evenodd;stroke:none"
         d="m 0,0 c 0,0 -39.396,0.042 -54.655,-0.848 -15.259,-0.89 -23.652,-14.37 -24.669,-24.287 -1.018,-9.917 6.61,-94.858 6.61,-94.858 0,0 0,-1.873 1.273,-1.971 1.272,-0.095 10.14,0 10.902,0.193 0.763,0.188 1.049,0.954 1.143,1.939 0.096,0.982 7.738,77.338 7.863,79.119 0.13,1.779 1.781,3.177 8.648,4.831 C -36.02,-34.23 2.687,-8.164 0,0" /></g><g
       style="fill:#f4d7d7"
       transform="translate(536.5264,266.9189)"
       id="g6779"><path
         id="path6781"
         style="fill:#f4d7d7;fill-opacity:1;fill-rule:evenodd;stroke:none"
         d="m 0,0 c 0,0 16.504,-45.708 -21.896,-45.708 h -24.667 c 0.061,-0.185 0.124,-0.375 0.187,-0.565 4.198,-12.915 7.03,-36.79 15.337,-80.305 0.287,-1.49 0.157,-1.746 -1.447,-2.492 -3.295,-1.528 -9.276,-3.301 -13.124,-2.341 0,0 -0.509,0.511 -0.668,1.051 -0.158,0.54 -35.952,94.219 -37.223,99.557 -1.27,5.341 1.019,17.675 15.258,20.727 14.239,3.051 48.877,5.558 56.583,6.738 C -3.955,-2.159 0,0 0,0" /></g><g
       transform="translate(505.3613,130.3076)"
       id="g6783"><path
         id="path6785"
         style="fill:#ac1b48;fill-opacity:1;fill-rule:evenodd;stroke:none"
         d="m 0,0 c 1.972,-1.343 2.471,-4.752 2.471,-7.973 v -17.854 c 0,-4.183 -3.068,-6.304 -5.412,-6.304 h 1.661 c 2.671,0 6.168,2.415 6.168,7.184 v 20.344 c 0,4.706 -0.937,9.764 -5.139,9.764 C 0.039,3.873 0.196,2.416 0.056,0.672 0.039,0.472 0.02,0.248 0,0" /></g><g
       transform="translate(480.3867,390.4453)"
       id="g6787"><path
         id="path6789"
         style="fill:#ea745d;fill-opacity:1;fill-rule:evenodd;stroke:none"
         d="m 0,0 c 3.052,0.017 5.541,-2.443 5.557,-5.495 0.016,-3.053 -2.443,-5.541 -5.495,-5.558 -3.051,-0.016 -5.541,2.444 -5.557,5.495 C -5.513,-2.505 -3.052,-0.018 0,0" /></g><g
       transform="translate(518.248,390.6523)"
       id="g6791"><path
         id="path6793"
         style="fill:#ea745d;fill-opacity:1;fill-rule:evenodd;stroke:none"
         d="m 0,0 c 3.052,0.019 5.538,-2.443 5.558,-5.495 0.015,-3.052 -2.448,-5.54 -5.499,-5.557 -3.052,-0.017 -5.538,2.444 -5.558,5.496 C -5.515,-2.503 -3.052,-0.017 0,0" /></g><g
       transform="translate(497.8994,418.4902)"
       id="g6795"><path
         id="path6797"
         style="fill:#f4ad85;fill-opacity:1;fill-rule:evenodd;stroke:none"
         d="m 0,0 v 0 c 10.412,0.058 18.978,-8.413 19.032,-18.825 l 0.095,-17.204 c 0.059,-10.412 -8.413,-18.976 -18.825,-19.034 -10.411,-0.057 -18.976,8.415 -19.032,18.827 l -0.095,17.203 C -18.884,-8.622 -10.412,-0.056 0,0" /></g><g
       transform="translate(513.4873,410.415)"
       id="g6799"><path
         id="path6801"
         style="fill:#ef8871;fill-opacity:1;fill-rule:evenodd;stroke:none"
         d="m 0,0 c 2.148,-3.052 3.425,-6.757 3.446,-10.751 l 0.093,-17.203 c 0.051,-9.102 -6.416,-16.791 -14.999,-18.62 2.506,0.823 10.883,6.763 11.158,13.276 0.279,6.515 -1.324,11.897 -7.313,13.56 -5.986,1.663 -21.543,8.544 -23.667,8.651 -0.9,0.045 -2.071,-0.388 -3.127,-0.9 l -0.004,1.029 c -0.027,4.509 1.552,8.672 4.191,11.947 4.116,1.47 7.738,2.694 9.069,2.954 C -18.981,4.371 -8.738,2.299 0,0" /></g><g
       transform="translate(500.7109,377.4062)"
       id="g6803"><path
         id="path6805"
         style="fill:#ffffff;fill-opacity:1;fill-rule:evenodd;stroke:none"
         d="m 0,0 c 0.019,-3.071 -2.458,-5.573 -5.529,-5.591 -3.07,-0.015 -5.574,2.459 -5.589,5.53 h 0.01 c -0.002,0.528 0.425,0.962 0.952,0.965 l 9.182,0.05 C -0.445,0.957 -0.012,0.528 -0.008,0 Z" /></g><g
       transform="translate(483.791,381.6621)"
       id="g6807"><path
         id="path6809"
         style="fill:#e8685b;fill-opacity:1;fill-rule:evenodd;stroke:none"
         d="M 0,0 C 1.513,0.009 2.746,-1.211 2.756,-2.725 2.766,-4.236 1.544,-5.47 0.032,-5.478 -1.48,-5.486 -2.714,-4.267 -2.722,-2.755 -2.729,-1.241 -1.512,-0.009 0,0" /></g><g
       transform="translate(507.3525,381.791)"
       id="g6811"><path
         id="path6813"
         style="fill:#e8685b;fill-opacity:1;fill-rule:evenodd;stroke:none"
         d="M 0,0 C 1.515,0.008 2.748,-1.212 2.758,-2.724 2.766,-4.235 1.544,-5.47 0.031,-5.477 -1.48,-5.485 -2.714,-4.266 -2.722,-2.754 -2.729,-1.241 -1.512,-0.008 0,0" /></g><g
       transform="translate(497.6025,395.2217)"
       id="g6815"><path
         id="path6817"
         style="fill:#212850;fill-opacity:1;fill-rule:evenodd;stroke:none"
         d="m 0,0 c 0,0 0.727,-0.07 0.913,0.41 0.185,0.483 -0.801,3.069 -0.801,3.069 0,0 8.511,-9.578 18.346,-8.509 l 0.946,-3.706 c -0.023,4.016 2.926,3.916 2.926,3.916 0,0 4.05,16.581 3.323,23.835 C 24.931,26.269 7.716,36.869 -0.636,36.419 -8.988,35.967 -18.888,25.949 -19.498,22.831 -22.016,9.939 -7.794,0.802 0,0" /></g><g
       transform="translate(497.6025,395.2217)"
       id="g6819"><path
         id="path6821"
         style="fill:#050a26;fill-opacity:1;fill-rule:evenodd;stroke:none"
         d="m 0,0 c 0,0 0.727,-0.07 0.913,0.41 0.185,0.483 -0.801,3.069 -0.801,3.069 0,0 8.511,-9.578 18.346,-8.509 l 0.946,-3.706 c -0.023,4.016 2.926,3.916 2.926,3.916 0,0 0.825,3.377 1.661,7.75 C 17.99,1.525 10.509,1.741 2.158,6.293 c -21.075,11.489 -20.144,19.21 -20.137,19.268 -0.847,-1.114 -1.389,-2.075 -1.519,-2.73 C -22.016,9.939 -7.794,0.802 0,0" /></g><g
       style="fill:#2598b5;fill-opacity:1"
       transform="translate(528.8125,409.7676)"
       id="g6823"><path
         id="path6825"
         style="fill:#2598b5;fill-opacity:1;fill-rule:evenodd;stroke:none"
         d="m 0,0 c -0.49,1.65 -0.978,2.284 -1.39,3.151 -7.941,0.305 -31.254,1.329 -35.839,17.317 -3.409,-1.502 -6.7,-3.977 -9.182,-6.376 0.355,-0.435 0.73,-0.88 1.123,-1.332 C -38.273,4.701 -19.347,-4.356 0,0" /></g><g
       transform="translate(486.2598,389.5449)"
       id="g6827"><path
         id="path6829"
         style="fill:#050a26;fill-opacity:1;fill-rule:evenodd;stroke:none"
         d="m 0,0 v 0 c -0.424,0 -0.814,-0.151 -1.117,-0.403 -0.13,0.032 -0.354,0.122 -0.476,0.361 -0.07,0.137 -0.239,0.19 -0.377,0.12 -0.137,-0.072 -0.19,-0.241 -0.119,-0.378 0.143,-0.28 0.367,-0.445 0.568,-0.542 L -1.533,-0.86 c -0.237,0.056 -0.513,0.179 -0.731,0.449 -0.098,0.12 -0.275,0.139 -0.395,0.04 -0.119,-0.097 -0.137,-0.274 -0.041,-0.394 0.248,-0.301 0.546,-0.475 0.825,-0.571 l -0.002,-0.005 c -0.266,0.016 -0.556,0.088 -0.843,0.27 -0.13,0.083 -0.302,0.045 -0.384,-0.086 -0.084,-0.132 -0.043,-0.305 0.085,-0.387 0.291,-0.186 0.59,-0.286 0.869,-0.329 l 0.392,-0.055 v -2.125 c 0,-0.968 0.79,-1.759 1.758,-1.759 0.969,0 1.758,0.791 1.758,1.759 v 2.294 C 1.758,-0.79 0.969,0 0,0" /></g><g
       transform="translate(480.1816,288.0684)"
       id="g6831"><path
         id="path6833"
         style="fill:#ef8871;fill-opacity:1;fill-rule:evenodd;stroke:none"
         d="m 0,0 -3.819,0.235 c -3.544,-0.661 -9.958,-1.574 -12.433,-4.304 -0.773,-0.852 3.657,-2.454 4.073,-2.681 0.414,-0.227 6.524,-2.188 7.955,-1.923 C -2.792,-8.409 1.093,-3.431 0,0" /></g><g
       transform="translate(505.0791,389.5449)"
       id="g6835"><path
         id="path6837"
         style="fill:#050a26;fill-opacity:1;fill-rule:evenodd;stroke:none"
         d="m 0,0 v 0 c 0.424,0 0.814,-0.151 1.119,-0.403 0.13,0.032 0.35,0.122 0.476,0.361 0.07,0.137 0.239,0.19 0.377,0.12 C 2.106,0.006 2.16,-0.163 2.089,-0.3 1.947,-0.58 1.724,-0.745 1.52,-0.842 L 1.535,-0.86 c 0.236,0.056 0.511,0.179 0.731,0.449 0.098,0.12 0.275,0.139 0.392,0.04 C 2.78,-0.468 2.796,-0.645 2.7,-0.765 2.454,-1.066 2.156,-1.24 1.873,-1.336 l 0.004,-0.005 c 0.266,0.016 0.558,0.088 0.841,0.27 0.133,0.083 0.305,0.045 0.388,-0.086 C 3.188,-1.289 3.149,-1.462 3.02,-1.544 2.726,-1.73 2.431,-1.83 2.148,-1.873 L 1.759,-1.928 v -2.125 c 0,-0.968 -0.791,-1.759 -1.759,-1.759 -0.967,0 -1.76,0.791 -1.76,1.759 v 2.294 C -1.76,-0.79 -0.967,0 0,0" /></g><g
       transform="translate(493.084,383.1426)"
       id="g6839"><path
         id="path6841"
         style="fill:#f7c6b0;fill-opacity:1;fill-rule:evenodd;stroke:none"
         d="M 0,0 C -0.447,-0.717 -1.226,-2.02 -1.265,-2.484 -1.319,-3.142 0.157,-3.415 1.137,-3.07 1.834,-2.825 1.612,-1.243 1.335,-0.262 1.029,0.822 0.707,1.13 0,0" /></g><g
       transform="translate(479.1768,276.9844)"
       id="g6843"><path
         id="path6845"
         style="fill:#dbdcdc;fill-opacity:1;fill-rule:evenodd;stroke:none"
         d="m 0,0 c 0,0 35.808,10.907 40.159,12.941 4.352,2.034 8.829,7.601 11.064,14.214 2.235,6.614 9.654,29.367 9.654,33.632 0,4.265 -1.764,12.75 -11.308,15.792 0,0 -6.036,-1.088 -8.751,-12.7 C 38.104,52.267 34.971,32.821 34.264,30.482 33.557,28.144 32.434,25.591 29.017,23.61 25.602,21.628 -2.814,11.319 -2.814,11.319 -0.526,9.334 0.651,4.62 0,0" /></g><g
       transform="translate(537.377,347.1465)"
       id="g6847"><path
         id="path6849"
         style="fill:#ffffff;fill-opacity:1;fill-rule:evenodd;stroke:none"
         d="m 0,0 c -1.694,2.648 -4.396,5.068 -8.631,6.417 0,0 -6.036,-1.088 -8.751,-12.7 -2.714,-11.613 -5.847,-31.058 -6.555,-33.397 -0.707,-2.339 -1.83,-4.891 -5.247,-6.872 -3.173,-1.841 -27.917,-10.867 -31.416,-12.139 0.129,-0.31 0.246,-0.632 0.351,-0.967 1.259,-1.62 2.053,-4.177 2.202,-6.979 7.095,2.171 34.709,10.662 38.497,12.433 4.353,2.033 8.829,7.601 11.065,14.214 2.234,6.613 9.653,29.367 9.653,33.632 C 1.168,-4.691 0.897,-2.378 0,0" /></g><g
       style="fill:#999999"
       transform="translate(401.6826,320.7119)"
       id="g6851"><path
         id="path6853"
         style="fill:#999999;fill-opacity:1;fill-rule:evenodd;stroke:none"
         d="m 0,0 h 54.059 c 1.435,0 2.966,-1.174 3.405,-2.609 l 11.217,-36.912 c 0.437,-1.438 -0.381,-2.614 -1.815,-2.614 H 12.808 c -1.438,0 -2.97,1.176 -3.406,2.614 L -1.818,-2.609 C -2.255,-1.174 -1.437,0 0,0" /></g><g
       style="fill:#ff9955"
       transform="translate(412.373,278.5771)"
       id="g6855"><path
         id="path6857"
         style="fill:#ff9955;fill-opacity:1;fill-rule:evenodd;stroke:none"
         d="m 0,0 h 70.563 c 1.488,0 2.709,1.22 2.709,2.711 0,1.492 -1.221,2.711 -2.709,2.711 H 0 C -1.488,5.422 -2.71,4.203 -2.71,2.711 -2.71,1.22 -1.488,0 0,0" /></g><g
       style="fill:#ff9955"
       transform="translate(468.9922,278.5771)"
       id="g6859"><path
         id="path6861"
         style="fill:#ff9955;fill-opacity:1;fill-rule:evenodd;stroke:none"
         d="m 0,0 h 13.941 c 1.491,0 2.712,1.22 2.712,2.711 0,1.492 -1.221,2.711 -2.712,2.711 H 0 C -1.492,5.422 -2.714,4.203 -2.714,2.711 -2.714,1.22 -1.492,0 0,0" /></g><g
       transform="translate(432.9883,308.1953)"
       id="g6863"><path
         id="path6865"
         style="fill:#ffffff;fill-opacity:1;fill-rule:evenodd;stroke:none"
         d="M 0,0 C 0.456,0 0.911,-0.052 1.355,-0.146 0.92,-0.796 0.739,-1.657 0.911,-2.602 1.277,-4.621 3.119,-6.26 5.023,-6.26 c 0.919,0 1.69,0.384 2.195,1.007 0.202,-0.504 0.359,-1.031 0.457,-1.573 0.683,-3.77 -1.642,-6.826 -5.196,-6.826 -3.555,0 -6.992,3.056 -7.674,6.826 C -5.879,-3.057 -3.554,0 0,0" /></g><g
       transform="translate(512.8008,383.1943)"
       id="g6867"><path
         id="path6869"
         style="fill:#050a26;fill-opacity:1;fill-rule:evenodd;stroke:none"
         d="m 0,0 v 0 c -0.629,-1.792 -1.674,-2.775 -3.5,-3.29 -1.83,-0.518 -4.218,-0.503 -5.937,0.034 -1.855,0.579 -3.214,2.065 -3.823,4.182 -0.676,2.346 -0.829,4.666 -0.587,5.543 0.018,0.031 0.037,0.062 0.057,0.096 0.503,0.939 1.732,1.732 4.907,2.273 C -5.707,9.38 -2.53,8.875 -1.049,8.081 0.051,7.491 0.455,5.886 0.593,5.099 0.644,4.025 0.587,1.679 0,0 m -21.541,0.926 v 0 c -0.61,-2.117 -1.966,-3.603 -3.823,-4.182 -1.721,-0.537 -4.109,-0.552 -5.939,-0.034 -1.826,0.515 -2.871,1.498 -3.498,3.29 -0.587,1.679 -0.645,4.025 -0.593,5.099 0.136,0.787 0.544,2.392 1.644,2.982 1.477,0.794 4.658,1.299 7.832,0.757 3.173,-0.541 4.402,-1.334 4.909,-2.273 0.016,-0.034 0.035,-0.065 0.055,-0.096 0.24,-0.877 0.091,-3.197 -0.587,-5.543 M 0.77,9.384 c -1.878,0.324 -8.331,1.051 -12.443,0.293 -4.002,-0.737 -3.607,-1.703 -3.566,-2.071 -0.653,0.416 -1.422,0.558 -2.164,0.558 -0.746,0 -1.519,-0.142 -2.168,-0.558 0.039,0.368 0.424,1.334 -3.575,2.071 -4.114,0.758 -10.62,0.031 -12.493,-0.293 -1.878,-0.324 -2.756,-0.798 -2.756,-0.798 V 6.529 c 0,0 0.757,0.29 1.334,-0.432 0.487,-0.608 0.621,-1.136 1.206,-1.354 -0.024,-1.215 0.09,-3.323 0.636,-4.886 0.672,-1.914 1.842,-3.014 3.794,-3.565 0.931,-0.262 1.999,-0.393 3.058,-0.393 1.109,0 2.211,0.145 3.128,0.432 2.004,0.624 3.463,2.214 4.112,4.475 0.594,2.054 0.773,4.055 0.664,5.214 0.165,-0.045 0.307,-0.003 0.447,0.133 0,0 0.017,0.002 0.019,0.002 0.029,0.028 0.064,0.061 0.088,0.096 0.231,0.247 0.973,0.881 2.506,0.881 1.527,0 2.27,-0.634 2.498,-0.881 0.027,-0.035 0,-0.068 0.029,-0.096 0.002,0 -0.049,-0.002 -0.049,-0.002 0.141,-0.136 0.354,-0.178 0.515,-0.133 -0.107,-1.159 0.115,-3.16 0.706,-5.214 0.652,-2.261 2.125,-3.851 4.124,-4.475 0.919,-0.287 2.027,-0.432 3.137,-0.432 1.058,0 2.131,0.131 3.057,0.393 1.952,0.551 3.122,1.651 3.79,3.565 0.55,1.563 0.656,3.671 0.632,4.886 0.586,0.218 0.666,0.746 1.152,1.354 0.577,0.722 3.11,0.432 3.11,0.432 v 2.057 c 0,0 -2.655,0.474 -4.528,0.798" /></g><g
       style="fill:#d35f5f"
       transform="translate(484.8672,278.5771)"
       id="g6871"><path
         id="path6873"
         style="fill:#d35f5f;fill-opacity:1;fill-rule:evenodd;stroke:none"
         d="m 0,0 h -82.722 c -3.514,0 -6.393,-2.878 -6.393,-6.396 0,-3.517 2.879,-6.395 6.393,-6.395 H 0 c 3.516,0 6.395,2.878 6.395,6.395 C 6.395,-2.878 3.516,0 0,0" /></g><g
       style="fill:#2598b5;fill-opacity:1"
       transform="translate(75.8975,35.5205)"
       id="g6875"><path
         id="path6877"
         style="fill:#2598b5;fill-opacity:1;fill-rule:evenodd;stroke:none"
         d="m 0,0 c 5.105,0 9.283,4.179 9.283,9.283 v 0.774 c 0,5.103 -4.178,9.282 -9.283,9.282 -5.105,0 -9.282,-4.179 -9.282,-9.282 V 9.283 C -9.282,4.177 -5.105,0 0,0 M -7.252,62.658 H 605.76 c 7.654,0 13.923,-6.27 13.923,-13.925 0,-7.655 -6.269,-13.923 -13.923,-13.923 h -46.978 c -4.257,0 -7.737,-3.484 -7.737,-7.734 v -0.004 c 0,-4.251 3.48,-7.733 7.737,-7.733 h 17.188 c 5.315,0 9.669,-4.352 9.669,-9.669 C 585.639,4.355 581.287,0 575.97,0 H 24.077 c -5.317,0 -9.669,4.352 -9.669,9.67 0,5.317 4.352,9.669 9.669,9.669 h 13.537 c 4.255,0 7.736,3.48 7.736,7.733 v 0.004 c 0,4.254 -3.481,7.734 -7.736,7.734 H -7.252 c -7.657,0 -13.923,6.266 -13.923,13.923 0,7.659 6.271,13.925 13.923,13.925" /></g></g></svg>