<svg width="193" height="49" viewBox="0 0 193 49" fill="none" xmlns="http://www.w3.org/2000/svg">
<path d="M40.27 0H8.97C4.01601 0 0 4.01601 0 8.97V39.86C0 44.814 4.01601 48.83 8.97 48.83H40.27C45.224 48.83 49.24 44.814 49.24 39.86V8.97C49.24 4.01601 45.224 0 40.27 0Z" fill="#28A8C8"/>
<path d="M25.1523 13.74C24.2885 13.738 23.4445 13.48 22.7272 12.9987C22.0099 12.5173 21.4513 11.8341 21.1221 11.0354C20.7929 10.2367 20.7078 9.35837 20.8775 8.51133C21.0473 7.6643 21.4643 6.88657 22.0758 6.27642C22.6874 5.66626 23.466 5.25105 24.3135 5.08324C25.1609 4.91543 26.039 5.00256 26.837 5.3336C27.6349 5.66465 28.3168 6.22477 28.7965 6.94319C29.2763 7.66162 29.5323 8.50611 29.5323 9.36999C29.5323 9.94471 29.419 10.5138 29.1987 11.0446C28.9785 11.5755 28.6557 12.0577 28.2489 12.4636C27.842 12.8695 27.3591 13.1912 26.8277 13.4102C26.2964 13.6292 25.727 13.7413 25.1523 13.74V13.74ZM25.1523 7.05999C24.6955 7.05999 24.2488 7.19547 23.869 7.4493C23.4891 7.70312 23.193 8.06389 23.0182 8.48599C22.8433 8.90809 22.7976 9.37255 22.8867 9.82065C22.9758 10.2687 23.1959 10.6803 23.5189 11.0034C23.842 11.3265 24.2536 11.5465 24.7017 11.6356C25.1498 11.7247 25.6142 11.679 26.0363 11.5042C26.4584 11.3293 26.8192 11.0332 27.073 10.6534C27.3269 10.2735 27.4623 9.82687 27.4623 9.36999C27.4623 8.75734 27.219 8.16978 26.7857 7.73657C26.3525 7.30336 25.765 7.05999 25.1523 7.05999V7.05999Z" fill="white"/>
<path d="M25.1523 25.51C24.8871 25.51 24.6328 25.4046 24.4452 25.2171C24.2577 25.0296 24.1523 24.7752 24.1523 24.51V13.06C24.1523 12.7855 24.2614 12.5222 24.4555 12.3281C24.6496 12.134 24.9128 12.025 25.1873 12.025C25.4618 12.025 25.7251 12.134 25.9192 12.3281C26.1133 12.5222 26.2223 12.7855 26.2223 13.06V24.45C26.2313 24.5924 26.2096 24.735 26.1589 24.8683C26.1081 25.0017 26.0294 25.1226 25.9281 25.223C25.8267 25.3234 25.7051 25.401 25.5713 25.4505C25.4375 25.5 25.2946 25.5203 25.1523 25.51V25.51Z" fill="white"/>
<path d="M25.1523 42.57C24.8871 42.57 24.6328 42.4646 24.4452 42.2771C24.2577 42.0896 24.1523 41.8352 24.1523 41.57V29.57C24.1523 29.2955 24.2614 29.0322 24.4555 28.8381C24.6496 28.644 24.9128 28.535 25.1873 28.535C25.4618 28.535 25.7251 28.644 25.9192 28.8381C26.1133 29.0322 26.2223 29.2955 26.2223 29.57V41.57C26.2227 41.7074 26.1947 41.8434 26.1401 41.9696C26.0855 42.0957 26.0055 42.2092 25.9051 42.303C25.8047 42.3969 25.6861 42.469 25.5565 42.5149C25.427 42.5609 25.2894 42.5796 25.1523 42.57V42.57Z" fill="white"/>
<path d="M29.1823 39.03V15.73C29.1823 15.4555 29.2914 15.1922 29.4855 14.9981C29.6796 14.804 29.9428 14.695 30.2173 14.695C30.4918 14.695 30.7551 14.804 30.9492 14.9981C31.1433 15.1922 31.2523 15.4555 31.2523 15.73V34.57L34.2523 31.98V25.76L37.5923 23.13C37.8072 22.9603 38.0806 22.8828 38.3525 22.9147C38.6245 22.9466 38.8726 23.0852 39.0423 23.3C39.2121 23.5148 39.2895 23.7883 39.2576 24.0602C39.2258 24.3321 39.0872 24.5803 38.8723 24.75L36.3223 26.75V32.92L29.1823 39.03Z" fill="white"/>
<path d="M21.1223 39.03L13.9423 32.94V26.77L11.3923 24.77C11.1775 24.6003 11.0389 24.3521 11.007 24.0802C10.9751 23.8083 11.0526 23.5348 11.2223 23.32C11.3921 23.1052 11.6402 22.9666 11.9121 22.9347C12.1841 22.9028 12.4575 22.9803 12.6723 23.15L16.0123 25.78V32L19.0623 34.59V15.73C19.0623 15.4568 19.1708 15.1948 19.364 15.0017C19.5572 14.8085 19.8192 14.7 20.0923 14.7C20.3655 14.7 20.6275 14.8085 20.8207 15.0017C21.0138 15.1948 21.1223 15.4568 21.1223 15.73V39.03Z" fill="white"/>
<path d="M68.4268 3.09091V16.4972C68.4176 18.6761 67.402 19.8395 65.5923 19.8395C63.9212 19.8395 62.7578 18.8423 62.7486 17.2727H59.9141C59.9141 20.4673 62.3146 22.2585 65.5185 22.2585C68.9901 22.2585 71.2614 20.1349 71.2706 16.4972V3.09091H68.4268ZM91.8485 12.5455C91.8485 6.49787 88.2292 2.83239 83.3358 2.83239C78.4238 2.83239 74.8137 6.49787 74.8137 12.5455C74.8137 18.5838 78.4238 22.2585 83.3358 22.2585C88.2292 22.2585 91.8485 18.593 91.8485 12.5455ZM89.0233 12.5455C89.0233 17.1527 86.5858 19.6548 83.3358 19.6548C80.0765 19.6548 77.6483 17.1527 77.6483 12.5455C77.6483 7.93821 80.0765 5.43608 83.3358 5.43608C86.5858 5.43608 89.0233 7.93821 89.0233 12.5455ZM95.4055 22H102.653C107.048 22 109.033 19.8118 109.033 16.9126C109.033 13.9858 106.984 12.3331 105.109 12.2315V12.0469C106.845 11.6037 108.295 10.4219 108.295 8.05824C108.295 5.26065 106.356 3.09091 102.33 3.09091H95.4055V22ZM98.2585 19.5533V13.4964H102.478C104.768 13.4964 106.199 14.9737 106.199 16.7741C106.199 18.3622 105.119 19.5533 102.376 19.5533H98.2585ZM98.2585 11.2713V5.51918H102.155C104.417 5.51918 105.497 6.71023 105.497 8.27983C105.497 10.108 104.001 11.2713 102.081 11.2713H98.2585ZM122.73 8.05824H125.482C125.399 5.02983 122.721 2.83239 118.88 2.83239C115.086 2.83239 112.177 5.00213 112.177 8.26136C112.177 10.8928 114.061 12.4347 117.098 13.2564L119.333 13.8658C121.355 14.4013 122.915 15.0661 122.915 16.7464C122.915 18.593 121.152 19.8118 118.723 19.8118C116.526 19.8118 114.698 18.8331 114.532 16.7741H111.669C111.854 20.1996 114.504 22.3139 118.742 22.3139C123.183 22.3139 125.74 19.978 125.74 16.7741C125.74 13.3672 122.703 12.0469 120.302 11.456L118.456 10.9759C116.978 10.5973 115.012 9.90483 115.021 8.09517C115.021 6.48864 116.489 5.29759 118.816 5.29759C120.985 5.29759 122.527 6.31321 122.73 8.05824Z" fill="#28A8C8"/>
<path d="M61.0774 46H63.9304V37.755H73.3572V46H76.2195V27.0909H73.3572V35.3082H63.9304V27.0909H61.0774V46ZM81.9716 46L83.7074 40.9957H91.0938L92.8203 46H95.8487L89.044 27.0909H85.7479L78.9432 46H81.9716ZM84.5384 38.5952L87.3267 30.5256H87.4744L90.2628 38.5952H84.5384ZM98.5794 46H101.432V38.8445H105.31C105.375 38.8445 105.43 38.8445 105.495 38.8445L109.336 46H112.586L108.394 38.3459C110.711 37.4872 111.866 35.5575 111.866 33.0185C111.866 29.5376 109.705 27.0909 105.319 27.0909H98.5794V46ZM101.432 36.3885V29.5376H105.015C107.831 29.5376 108.994 30.8764 108.994 33.0185C108.994 35.1513 107.831 36.3885 105.052 36.3885H101.432ZM115.337 46H122.585C126.98 46 128.965 43.8118 128.965 40.9126C128.965 37.9858 126.915 36.3331 125.041 36.2315V36.0469C126.777 35.6037 128.226 34.4219 128.226 32.0582C128.226 29.2607 126.287 27.0909 122.262 27.0909H115.337V46ZM118.19 43.5533V37.4964H122.41C124.699 37.4964 126.131 38.9737 126.131 40.7741C126.131 42.3622 125.05 43.5533 122.308 43.5533H118.19ZM118.19 35.2713V29.5192H122.086C124.349 29.5192 125.429 30.7102 125.429 32.2798C125.429 34.108 123.933 35.2713 122.013 35.2713H118.19ZM148.774 36.5455C148.774 30.4979 145.155 26.8324 140.262 26.8324C135.35 26.8324 131.74 30.4979 131.74 36.5455C131.74 42.5838 135.35 46.2585 140.262 46.2585C145.155 46.2585 148.774 42.593 148.774 36.5455ZM145.949 36.5455C145.949 41.1527 143.512 43.6548 140.262 43.6548C137.002 43.6548 134.574 41.1527 134.574 36.5455C134.574 31.9382 137.002 29.4361 140.262 29.4361C143.512 29.4361 145.949 31.9382 145.949 36.5455ZM164.5 27.0909V39.5554C164.5 42.2053 162.386 43.6918 159.838 43.6918C157.308 43.6918 155.184 42.2053 155.184 39.5554V27.0909H152.331V39.6016C152.331 43.8672 155.655 46.3139 159.838 46.3139C164.02 46.3139 167.353 43.8672 167.353 39.6016V27.0909H164.5ZM171.501 46H174.354V38.8445H178.232C178.297 38.8445 178.352 38.8445 178.417 38.8445L182.258 46H185.508L181.316 38.3459C183.633 37.4872 184.787 35.5575 184.787 33.0185C184.787 29.5376 182.627 27.0909 178.241 27.0909H171.501V46ZM174.354 36.3885V29.5376H177.937C180.753 29.5376 181.916 30.8764 181.916 33.0185C181.916 35.1513 180.753 36.3885 177.974 36.3885H174.354Z" fill="black"/>
</svg>
