<?xml version="1.0" encoding="utf-8"?>
<!-- Generator: Adobe Illustrator 22.1.0, SVG Export Plug-In . SVG Version: 6.00 Build 0)  -->
<svg version="1.1" id="Layer_1" xmlns="http://www.w3.org/2000/svg" xmlns:xlink="http://www.w3.org/1999/xlink" x="0px" y="0px"
	 viewBox="0 0 1440 480" style="enable-background:new 0 0 1440 480;" xml:space="preserve">
<style type="text/css">
	.st0{fill:#F5ECDF;}
	.st1{fill:#FAFAF8;}
	.st2{fill:none;stroke:#C9E3BC;stroke-width:0.75;stroke-miterlimit:10;}
	.st3{fill:#B2A796;}
	.st4{fill:#EEE9E3;stroke:#F0B7A8;stroke-width:5;stroke-miterlimit:10;}
	.st5{fill:#72579E;}
	.st6{fill:#38434F;}
	.st7{fill:#A678A4;}
	.st8{fill:#DD9784;}
	.st9{fill:#F4BA64;}
	.st10{fill:none;stroke:#F4BA64;stroke-miterlimit:10;}
	.st11{fill:#FCD59D;}
	.st12{fill:#7389A0;}
	.st13{fill:#B4A0CB;}
	.st14{fill:#F38D70;}
	.st15{fill:#EBBB71;}
	.st16{fill:#EEE9E3;}
	.st17{fill:#FDB29D;}
	.st18{fill:#2D89E7;}
	.st19{fill:#7E8F1D;}
	.st20{fill:#FFFFFF;}
	.st21{fill:#9EB22C;}
	.st22{fill:#F5FBFE;}
	.st23{fill:none;stroke:#98ACAF;stroke-miterlimit:10;}
	.st24{fill:#616770;}
	.st25{fill:#CFDEE0;}
	.st26{fill:#F6F9FC;}
	.st27{fill:#945544;}
	.st28{fill:#BE7460;}
	.st29{fill:#E09A33;}
	.st30{fill:none;stroke:#95ABC1;stroke-miterlimit:10;}
	.st31{fill:#788A8D;}
	.st32{fill:#98ACAF;}
	.st33{fill:#5B696B;}
	.st34{fill:#9E7265;}
	.st35{fill:#47423A;}
	.st36{fill:#2C1B16;}
	.st37{fill:#B57865;}
	.st38{fill:#1D94A6;}
	.st39{fill:none;stroke:#DC6240;stroke-miterlimit:10;}
	.st40{fill:#DC6240;}
	.st41{fill:#6E6558;}
	.st42{fill:#112134;}
	.st43{fill:#F5FAFB;}
	.st44{fill:none;stroke:#B2A796;stroke-miterlimit:10;}
	.st45{fill:#94C9FD;}
	.st46{fill:none;stroke:#62ADF7;stroke-width:0.5;stroke-miterlimit:10;}
	.st47{fill:none;stroke:#918675;stroke-miterlimit:10;}
	.st48{fill:none;stroke:#616770;stroke-miterlimit:10;}
	.st49{fill:#E2EEF9;}
	.st50{fill:#3D4544;}
	.st51{fill:#35707D;}
	.st52{fill:#0A2036;}
	.st53{fill:none;stroke:#828E46;stroke-miterlimit:10;}
	.st54{fill:none;stroke:#F5FBFE;stroke-miterlimit:10;}
	.st55{fill:none;stroke:#35707D;stroke-miterlimit:10;}
	.st56{fill:#523A51;}
	.st57{fill:#937FAC;}
	.st58{fill:none;stroke:#F5ECDF;stroke-miterlimit:10;}
	.st59{fill:#56687A;}
	.st60{fill:#B4C6D9;}
	.st61{fill:none;stroke:#B4C6D9;stroke-miterlimit:10;}
	.st62{clip-path:url(#SVGID_2_);}
	.st63{fill:none;stroke:#112134;stroke-width:1.23;stroke-miterlimit:10;}
	.st64{fill:#B5C8CA;}
	.st65{fill:#D3E472;}
	.st66{fill:#918675;}
	.st67{fill:#E7B9AA;}
	.st68{fill:#E2D7EE;}
	.st69{fill:#F1ECE6;}
	.st70{fill:none;stroke:#FFFFFF;stroke-width:3;stroke-miterlimit:10;}
	.st71{fill:none;stroke:#FFF8F5;stroke-miterlimit:10;}
	.st72{fill:#6D665A;}
	.st73{fill:#DEBBC2;}
	.st74{fill:#C69AC4;}
	.st75{fill:#1C2024;}
	.st76{fill:none;stroke:#38434F;stroke-width:4;stroke-miterlimit:10;}
	.st77{fill:none;stroke:#B24020;stroke-width:4;stroke-miterlimit:10;}
	.st78{fill:#B24020;}
	.st79{fill:#3968AC;}
	.st80{clip-path:url(#SVGID_4_);}
	.st81{fill:none;stroke:#FAF9F7;stroke-miterlimit:10;}
	.st82{fill:#8D5949;}
	.st83{fill:#FBE9C0;}
	.st84{clip-path:url(#SVGID_6_);}
	.st85{fill:#FCF9F3;}
	.st86{fill:none;stroke:#7389A0;stroke-miterlimit:10;}
	.st87{clip-path:url(#SVGID_8_);}
	.st88{fill:none;stroke:#112134;stroke-miterlimit:10;}
	.st89{fill:none;stroke:#FFFFFF;stroke-miterlimit:10;}
	.st90{fill:#3C4345;}
	.st91{fill:#3B444F;}
	.st92{fill:none;stroke:#5F6C16;stroke-miterlimit:10;}
	.st93{clip-path:url(#SVGID_10_);}
	.st94{fill:none;stroke:#6E6558;stroke-miterlimit:10;}
	.st95{fill:#E4EFF1;}
	.st96{fill:none;stroke:#DEBBC2;stroke-miterlimit:10;}
	.st97{fill:#CCC3B5;}
	.st98{fill:#3E4445;}
	.st99{fill:none;stroke:#3C4345;stroke-miterlimit:10;}
	.st100{clip-path:url(#SVGID_12_);}
	.st101{fill:#DE9885;}
	.st102{fill:#BF7461;}
	.st103{fill:#2A1C18;}
	.st104{fill:#915907;}
	.st105{fill:#A6AC84;}
</style>
<title>DevPortal_HighFidelity</title>
<rect x="0" y="0" class="st0" width="1439.9" height="479.9"/>
<rect x="1148.2" y="174.9" class="st1" width="246.3" height="95.6"/>
<line class="st2" x1="1148.2" y1="184.7" x2="1394.5" y2="184.7"/>
<line class="st2" x1="1148.2" y1="192.5" x2="1394.5" y2="192.5"/>
<line class="st2" x1="1148.2" y1="200.3" x2="1394.5" y2="200.3"/>
<line class="st2" x1="1148.2" y1="208.1" x2="1394.5" y2="208.1"/>
<line class="st2" x1="1148.2" y1="215.9" x2="1394.5" y2="215.9"/>
<line class="st2" x1="1148.2" y1="223.7" x2="1394.5" y2="223.7"/>
<line class="st2" x1="1148.2" y1="231.5" x2="1394.5" y2="231.5"/>
<line class="st2" x1="1148.2" y1="239.3" x2="1394.5" y2="239.3"/>
<line class="st2" x1="1148.2" y1="247.1" x2="1394.5" y2="247.1"/>
<line class="st2" x1="1148.2" y1="254.9" x2="1394.5" y2="254.9"/>
<line class="st2" x1="1148.2" y1="262.7" x2="1394.5" y2="262.7"/>
<line class="st2" x1="1230.3" y1="184.3" x2="1230.3" y2="270.5"/>
<line class="st2" x1="1222.1" y1="184.3" x2="1222.1" y2="270.5"/>
<line class="st2" x1="1213.9" y1="184.3" x2="1213.9" y2="270.5"/>
<line class="st2" x1="1205.7" y1="184.3" x2="1205.7" y2="270.5"/>
<line class="st2" x1="1197.5" y1="184.3" x2="1197.5" y2="270.5"/>
<line class="st2" x1="1189.3" y1="184.3" x2="1189.3" y2="270.5"/>
<line class="st2" x1="1181.1" y1="184.3" x2="1181.1" y2="270.5"/>
<line class="st2" x1="1172.9" y1="184.3" x2="1172.9" y2="270.5"/>
<line class="st2" x1="1164.6" y1="184.3" x2="1164.6" y2="270.5"/>
<line class="st2" x1="1156.4" y1="184.3" x2="1156.4" y2="270.5"/>
<line class="st2" x1="1238.5" y1="184.3" x2="1238.5" y2="270.5"/>
<line class="st2" x1="1246.8" y1="184.3" x2="1246.8" y2="270.5"/>
<line class="st2" x1="1255" y1="184.3" x2="1255" y2="270.5"/>
<line class="st2" x1="1263.2" y1="184.3" x2="1263.2" y2="270.5"/>
<line class="st2" x1="1271.4" y1="184.3" x2="1271.4" y2="270.5"/>
<line class="st2" x1="1279.6" y1="184.3" x2="1279.6" y2="270.5"/>
<line class="st2" x1="1287.8" y1="184.3" x2="1287.8" y2="270.5"/>
<line class="st2" x1="1296" y1="184.3" x2="1296" y2="270.5"/>
<line class="st2" x1="1304.2" y1="184.3" x2="1304.2" y2="270.5"/>
<line class="st2" x1="1312.4" y1="184.3" x2="1312.4" y2="270.5"/>
<line class="st2" x1="1320.6" y1="184.3" x2="1320.6" y2="270.5"/>
<line class="st2" x1="1328.9" y1="184.3" x2="1328.9" y2="270.5"/>
<line class="st2" x1="1337.1" y1="184.3" x2="1337.1" y2="270.5"/>
<line class="st2" x1="1345.3" y1="184.3" x2="1345.3" y2="270.5"/>
<line class="st2" x1="1353.5" y1="184.3" x2="1353.5" y2="270.5"/>
<line class="st2" x1="1361.7" y1="184.3" x2="1361.7" y2="270.5"/>
<line class="st2" x1="1369.9" y1="184.3" x2="1369.9" y2="270.5"/>
<line class="st2" x1="1378.1" y1="184.3" x2="1378.1" y2="270.5"/>
<line class="st2" x1="1386.3" y1="184.3" x2="1386.3" y2="270.5"/>
<path class="st3" d="M1302.5,193.5c0.5,0.2,0.1,1-0.5,0.8c-8.7-3.9-20.4-3-27,4.4c-3.3,3.8-4.9,8.8-4.5,13.8c0,0.2,0.8,6.6,1.6,6.6
	c-0.4,0,1.5-3.8,1.8-4.2s1-0.1,0.8,0.4l-2.1,5.6c-0.1,0.2-0.3,0.4-0.6,0.3c-2.2-0.5-4.4-1.1-6.6-1.8c-0.6-0.2-0.3-1,0.2-0.9
	c2.5,0.8,4.5,2.1,6.7,0.2c0.4-2.2,0.8-2.5,0.9-0.8c-0.3,0.9-0.5,1.9-0.6,2.9c0,0.1-0.1,0.2-0.2,0.3c-0.2,0.1-0.5,0.1-0.6-0.2
	c-3.9-8.4-3.1-18.6,4.3-24.8C1283.6,190.2,1294.2,189.8,1302.5,193.5L1302.5,193.5z"/>
<rect x="234.1" y="145.5" class="st4" width="70.7" height="86.1"/>
<rect x="244.2" y="155.8" class="st5" width="50.6" height="65.5"/>
<polygon class="st6" points="294.7,155.8 294.7,221.3 244.2,155.8 "/>
<path class="st7" d="M288.5,172.8l-5.3,48.4h-39V184l31.3-18.5C275.5,165.4,288.5,172.8,288.5,172.8z"/>
<polygon class="st8" points="274.7,172.8 244.1,199.6 244.2,184.1 276.6,164.8 "/>
<polygon class="st8" points="276.3,178.9 278.3,179.2 261.1,221.4 244.1,221.3 244.1,217.8 275.3,177.5 "/>
<polygon class="st8" points="281.6,180.3 273.2,221.3 283.3,221.2 288.4,172.9 "/>
<circle class="st9" cx="280.1" cy="172.3" r="8.2"/>
<line class="st10" x1="250.3" y1="166.6" x2="250.3" y2="162"/>
<line class="st10" x1="252.4" y1="164.2" x2="248.1" y2="164.2"/>
<line class="st10" x1="291" y1="194.2" x2="291" y2="190.3"/>
<line class="st10" x1="292.7" y1="192.2" x2="289" y2="192.2"/>
<path class="st9" d="M268.1,161.3c0-0.4,0.3-0.8,0.8-0.8s0.8,0.3,0.8,0.8s-0.3,0.8-0.8,0.8S268.1,161.8,268.1,161.3z"/>
<path class="st9" d="M290.1,159.8c0-0.4,0.3-0.8,0.8-0.8s0.8,0.3,0.8,0.8s-0.3,0.8-0.8,0.8S290.1,160.2,290.1,159.8z"/>
<rect x="248" y="209" class="st11" width="9.4" height="8.6"/>
<rect x="248" y="198.3" class="st11" width="9.4" height="8.6"/>
<rect x="248.2" y="187.8" class="st11" width="9.4" height="8.6"/>
<rect x="31.8" y="145" class="st4" width="70.7" height="86.1"/>
<rect x="41.9" y="155.3" class="st12" width="50.6" height="65.5"/>
<rect x="133.3" y="145.6" class="st4" width="70.7" height="86.1"/>
<rect x="143.4" y="155.9" class="st13" width="50.6" height="65.5"/>
<polygon class="st14" points="168.7,155.9 168.7,168.6 143.4,180.1 143.4,155.9 "/>
<polygon class="st14" points="148.7,177.7 167.2,202.2 194,191.2 194,171.3 180.1,163.2 168.7,168.6 "/>
<path class="st15" d="M143.4,221.4v-25l0,0c5.7-0.8,11.1,3,12.3,8.6l1.5,7.1l10-10l17,6.7v12.5L143.4,221.4z"/>
<circle class="st16" cx="182.8" cy="180.7" r="6.9"/>
<polygon class="st14" points="194,208.8 194,191.2 184.2,195.2 184.2,208.9 "/>
<path class="st15" d="M148.8,177.7l9,11.8c3,4,7.7,2,8.2-0.8s-2.6-7.3-3.3-8.4c0.9,0.7,1.9,1.3,3,1.8c1.1,0.4,2.3,0.4,3.4-0.1
	c1-0.6,1.7-1.6,1.8-2.8c0.2-1.1,0.1-2.3-0.1-3.4c-0.4-2.3-1.1-4.6-2-6.8c-0.1-0.1-0.1-0.2-0.2-0.4"/>
<path class="st16" d="M147.7,170.3c1.7,3.6,6,5.2,9.7,3.5c3.6-1.7,5.2-6,3.5-9.7L147.7,170.3z"/>
<polygon class="st14" points="153.9,184.5 149.7,197.4 167.2,202.2 "/>
<path class="st3" d="M1178.4,236.1c0.6,0,0.6,0.9,0,0.9c-3.9-0.2-8.1-0.2-11.5,2.1c-5.1,3.4-4.8,10,0.4,13.1
	c3.9,2.3,9.7,2.5,13.1-0.8c4.2-4.2,2.6-10.8-2.4-13.6c-0.6-0.3-0.1-1.1,0.4-0.8c4.9,2.7,7,8.6,3.8,13.5c-3.1,4.7-9.4,5.3-14.2,3.1
	c-4.2-1.9-7-6.5-5.2-11C1165.2,236.4,1172.7,235.8,1178.4,236.1L1178.4,236.1z"/>
<path class="st3" d="M1169.7,241.2c0-0.2,0.2-0.5,0.4-0.5h16.8c0.2,0,0.4,0.2,0.4,0.4c0,0.2-0.2,0.5-0.4,0.5h-16.8
	C1169.9,241.7,1169.7,241.5,1169.7,241.2z"/>
<path class="st3" d="M1169.6,244.6c-0.6,0.1-0.6-0.9,0-0.9c5.7-0.6,11.8-0.9,17.4,0.3c0.6,0.1,0.3,1-0.2,0.9
	C1181.3,243.7,1175.2,244.1,1169.6,244.6L1169.6,244.6z"/>
<path class="st3" d="M1170.3,247.2c-0.6,0-0.6-0.9,0-0.9c2.4-0.1,4.8,0,7.1,0.3c2.8,0.3,5.6,1.3,8.4,1.3c0.2,0,0.4,0.2,0.4,0.4
	c0,0.2-0.2,0.5-0.4,0.5c-2.1-0.1-4.3-0.4-6.3-0.9C1176.5,247.3,1173.4,247.1,1170.3,247.2L1170.3,247.2z"/>
<path class="st3" d="M1176.9,236.2c-0.2,0.5-1,0.1-0.8-0.5c5-10.4,14.5-17.9,25.7-20.5c0.6-0.1,0.8,0.7,0.2,0.9
	C1191.1,218.7,1181.8,226.1,1176.9,236.2L1176.9,236.2z"/>
<path class="st3" d="M1197.5,214.1c-0.6,0.1-0.6-0.9,0-0.9c1.3-0.1,2.7-0.1,4,0c0.6,0.1,1.6,0,2,0.6c0.4,0.7-0.2,1.6-0.4,2.2
	c-0.5,1.1-1,2.2-1.6,3.3c-0.3,0.5-1.1,0-0.8-0.5c0.4-0.7,0.8-1.4,1.1-2.2c0.3-0.6,1-1.9,0.8-2.3s-2-0.4-2.5-0.4c-0.8,0-1.7,0-2.5,0
	L1197.5,214.1z"/>
<path class="st3" d="M1166.7,216.2c0-0.2,0.2-0.5,0.4-0.5l14.9-0.1c0.2,0,0.4,0.2,0.4,0.4c0,0.2-0.2,0.5-0.4,0.5l-14.9,0.1
	C1166.9,216.7,1166.7,216.5,1166.7,216.2z"/>
<path class="st3" d="M1166.6,211.7c5-0.2,10,0,15,0.4c0.6,0.1,0.6,1,0,0.9c-5-0.4-10-0.6-15-0.4
	C1166,212.6,1166.1,211.7,1166.6,211.7z"/>
<path class="st3" d="M1166.5,207.6c2.7-0.4,5.4-0.5,8.1-0.4c2.5,0.2,4.9,0.9,7.5,0.8c0.6,0,0.6,0.9,0,0.9c-2.7,0.1-4.9-0.6-7.5-0.8
	c-2.7-0.1-5.4,0.1-8.1,0.4C1165.9,208.6,1165.9,207.7,1166.5,207.6z"/>
<path class="st3" d="M1166.4,200.7c0-0.2,0.2-0.5,0.4-0.5c2.4,0,4.7-0.2,7.1-0.5c0.6-0.1,0.6,0.8,0,0.9c-2.4,0.3-4.7,0.4-7.1,0.5
	C1166.6,201.1,1166.4,200.9,1166.4,200.7z"/>
<path class="st3" d="M1193.9,248.9c0-0.2,0.2-0.5,0.4-0.5h5.8c0.2,0,0.4,0.2,0.4,0.4c0,0.2-0.2,0.5-0.4,0.5h-5.8
	C1194.1,249.3,1193.9,249.1,1193.9,248.9z"/>
<path class="st3" d="M1193.5,254.8c0-0.2,0.2-0.5,0.4-0.5l14.4,0.1c0.2,0,0.4,0.2,0.4,0.4c0,0.2-0.2,0.5-0.4,0.5l-14.4-0.1
	C1193.7,255.2,1193.5,255,1193.5,254.8z"/>
<path class="st3" d="M1194.3,258.8c-0.2,0-0.4-0.2-0.4-0.4c0-0.2,0.2-0.5,0.4-0.5h13.6c0.2,0,0.4,0.2,0.4,0.4c0,0.2-0.2,0.5-0.4,0.5
	H1194.3L1194.3,258.8z"/>
<path class="st3" d="M1194.1,262.5c5.1-0.3,10.1,0.4,15.1,0.9c0.6,0,0.6,1,0,0.9c-5-0.5-10.1-1.2-15.1-0.9
	C1193.6,263.5,1193.6,262.5,1194.1,262.5z"/>
<path class="st3" d="M1364.5,196.5c0-0.2,0.2-0.5,0.4-0.5h5.8c0.2,0,0.4,0.2,0.4,0.4c0,0.2-0.2,0.5-0.4,0.5h-5.8
	C1364.7,197,1364.5,196.8,1364.5,196.5z"/>
<path class="st3" d="M1364.1,202.4c0-0.2,0.2-0.5,0.4-0.5l14.3,0.1c0.2,0,0.4,0.2,0.4,0.4c0,0.2-0.2,0.5-0.4,0.5l-14.3-0.1
	C1364.3,202.9,1364.1,202.7,1364.1,202.4z"/>
<path class="st3" d="M1364.4,206c0-0.2,0.2-0.5,0.4-0.5h13.6c0.2,0,0.4,0.2,0.4,0.4c0,0.2-0.2,0.5-0.4,0.5h-13.6
	C1364.6,206.4,1364.4,206.2,1364.4,206z"/>
<path class="st3" d="M1364.7,210.2c5.1-0.3,10.1,0.4,15.1,0.9c0.6,0.1,0.6,1,0,0.9c-5-0.5-10.1-1.2-15.1-0.9
	C1364.1,211.1,1364.1,210.2,1364.7,210.2z"/>
<path class="st3" d="M1220.8,197.2c-0.6,0.1-0.8-0.7-0.2-0.9c7.8-1.7,15.8,1.4,20.4,7.9c5.4,7.8,4.3,18.1-0.7,25.7
	c-0.2,0.3-0.8,0.2-0.8-0.2c0.2-1.4,0.2-2.9-0.1-4.3c0.1,0,0.2,0,0.4,0.1c0.5,0.2,0.7,0.8,0.5,1.3c-0.1,1.2,0.6,2.2,1.8,2.5
	c1.3,0,2.6-0.1,3.8-0.2c0.6-0.1,0.6,0.9,0,0.9c-1.9,0.2-3.8,0.2-5.7,0.2c-0.2,0-0.4-0.2-0.4-0.4l-0.6-5.9c-0.1-0.5,0.8-0.6,0.9-0.1
	c0.1,0.3,0.4,4.3,0.6,4.5c-0.2-0.2,1.9-4.2,2.1-4.9c1.5-4.4,1.5-9.1,0.2-13.4C1239.8,200.7,1230.3,195.2,1220.8,197.2L1220.8,197.2z
	"/>
<path class="st3" d="M1206.3,195.9c0-0.2,0.2-0.5,0.4-0.5h9.7c0.2,0,0.4,0.2,0.4,0.4c0,0.2-0.2,0.5-0.4,0.5h-9.7
	C1206.5,196.4,1206.3,196.2,1206.3,195.9z"/>
<path class="st3" d="M1206.1,198.4c0-0.2,0.2-0.5,0.4-0.5l8.9,0.2c0.2,0,0.4,0.2,0.4,0.4c0,0.2-0.2,0.5-0.4,0.5l-8.9-0.2
	C1206.3,198.9,1206.1,198.7,1206.1,198.4z"/>
<path class="st3" d="M1205.7,201.9c0-0.2,0.2-0.5,0.4-0.5c3.3-0.1,6.6-0.1,9.9,0.1c0.6,0,0.6,0.9,0,0.9c-3.3-0.1-6.6-0.2-9.9-0.1
	C1205.9,202.3,1205.7,202.1,1205.7,201.9z"/>
<path class="st3" d="M1223.3,192.2c0.5,0.3,0,1.1-0.5,0.8c-3.5-2.2-7.4-4.8-11.8-4.7c-5.1,0.1-8.5,3.9-9.5,8.6
	c-1.6,7.5,6.7,9.2,12.2,8.4c5.8-0.8,8.4-5.7,7.5-11.2c-0.1-0.6,0.8-0.8,0.9-0.2c0.8,4.8-0.9,10.2-5.9,11.9c-4.3,1.5-13.4,1-15.4-4.1
	c-1.6-4.3,1.1-10.2,4.7-12.6C1211.3,185.1,1218.2,189,1223.3,192.2L1223.3,192.2z"/>
<path class="st3" d="M1162.7,190.4c0.2,0,0.4,0.2,0.4,0.4c0,0.2-0.2,0.5-0.4,0.5c-1.2,0-2.1,1-2.9,1.8l-2.5,2.3
	c-0.4,0.4-1.1-0.2-0.6-0.6c1.1-1.1,2.3-2.1,3.4-3.1C1160.8,190.9,1161.7,190.5,1162.7,190.4L1162.7,190.4z"/>
<path class="st3" d="M1156.2,190.1c1.7,1.9,3.6,3.7,5.6,5.3c0.4,0.4-0.2,1-0.6,0.6c-2-1.6-3.9-3.4-5.6-5.3
	C1155.2,190.3,1155.8,189.6,1156.2,190.1z"/>
<path class="st3" d="M1153.9,192.4c3.1-0.1,6.3,0,9.4,0.1c0.6,0,0.6,0.9,0,0.9c-3.1-0.1-6.3-0.2-9.4-0.1
	C1153.3,193.3,1153.3,192.4,1153.9,192.4z"/>
<path class="st3" d="M1157.9,189.5c0-0.2,0.2-0.5,0.4-0.5s0.4,0.2,0.4,0.5l0.2,7.4c0,0.2-0.2,0.5-0.4,0.5c-0.2,0-0.5-0.2-0.5-0.5
	L1157.9,189.5L1157.9,189.5z"/>
<rect x="0.9" y="456.7" class="st17" width="1438.2" height="23.3"/>
<rect x="1202.6" y="266.1" class="st18" width="9.8" height="9.8"/>
<path class="st19" d="M157.8,456.4c-0.5-19.8-1.4-39.6-2.6-59.4s-2.7-39.6-4.4-59.3c-1.8-19.8-3.7-39.5-5.7-59.2s-4.4-39.4-6.9-59.1
	l-0.6,0.1c2.4,19.7,4.6,39.4,6.6,59.1s3.8,39.5,5.4,59.2s2.9,39.5,4.1,59.3c1.1,19.8,1.9,39.6,2.3,59.4L157.8,456.4z"/>
<path class="st19" d="M129,465.3c1.5-15.8,2.5-31.7,3-47.5s0.7-31.7,0.5-47.6s-0.6-31.7-1.2-47.6s-1.5-31.7-2.8-47.5l-0.9,0.1
	c1.1,15.8,1.9,31.6,2.5,47.5s0.9,31.7,1,47.5s-0.2,31.7-0.8,47.5c-0.6,15.8-1.7,31.6-3.2,47.4L129,465.3z"/>
<path class="st19" d="M157.1,463.8c0.6-0.1,0.7-0.2,0.7-0.3v-0.3l0.1-0.6l0.1-1.3l0.2-2.5l0.5-5.1c0.3-3.4,0.6-6.8,1-10.1
	c0.7-6.7,1.5-13.5,2.2-20.2s1.6-13.4,2.5-20.2l1.4-10.1c0.4-3.4,0.9-6.7,1.4-10.1c1.9-13.4,4-26.9,6.2-40.2s4.5-26.7,7.1-40
	l-0.7-0.1c-2.8,13.3-5.4,26.6-7.7,40s-4.5,26.8-6.5,40.2s-3.8,26.9-5.4,40.4c-0.8,6.7-1.6,13.5-2.3,20.2c-0.4,3.4-0.7,6.8-1,10.1
	l-0.5,5.1l-0.2,2.5l-0.1,1.3l-0.1,0.6v0.3c0,0.1,0.1,0.2,0.6,0.4L157.1,463.8z"/>
<polygon class="st20" points="121.3,433.2 128,480 147.2,480.1 166.5,480 173.2,433.2 "/>
<path class="st21" d="M89.4,250.2c6.2-3.4,13.9-1.8,18.2,3.8c1.2,1.7,2.1,3.8,3.6,5.3c4,4,10.9,3.1,15.8,6c5.1,3.1,6.9,9.8,6.1,15.7
	c-0.4,2.9-1.4,5.8-0.9,8.7c0.4,2.5,1.7,4.8,2.3,7.2c1.5,6.5-1.4,11.2-6.8,15.1L89.4,250.2z"/>
<path class="st19" d="M129.7,251.7c-3.5-5.4-2-12.7-4-18.9c-0.9-2.8-2.6-5.4-3.6-8.2c-1.4-3.8-1.6-7.8-0.7-11.8
	c0.7-2.8,2-5.5,2.4-8.4s0.2-5.8,0.6-8.7c0.9-6.6,5.6-12.1,9.8-17.3c4.7,2.2,9.1,5.1,13,8.5c3.8,3.6,6.8,8.2,7.5,13.4
	c0.4,2.6,0.2,5.3,0.9,7.8c0.8,2.8,2.6,5.2,3.4,8c2,7.3-3.5,14.5-4.3,22.1c-0.2,2-0.1,4.1-0.4,6.1c-1,6.2-5.9,11.2-12.1,12.3
	C136.8,257.5,132.6,256.2,129.7,251.7z"/>
<path class="st21" d="M169.3,326.7c-2.3-1.3-4.9-2.2-7-3.8c-3.1-2.5-4.6-6.4-3.9-10.3c0.5-3,2.3-5.7,2.9-8.7
	c0.6-3.5-0.5-7.2,0.2-10.8c1.1-5.6,6.5-9.5,8.1-15.1c0.6-1.9,0.7-4,1.2-5.9c1.8-6.4,8.5-11.2,14.1-14.8c-0.4,4,2.9,7.3,4.8,10.9
	c2,3.7,2.5,8,1.5,12.1c-0.6,2.3-1.6,4.4-1.8,6.7c-0.2,2.8,0.9,5.4,1.6,8.1c0.9,3.7,0.8,7.9-1.1,11.2c-1.7,2.9-4.6,4.9-5.8,8
	c-1.1,2.6-0.8,5.6-1.4,8.3c-1,4.4-4.2,8.1-8.4,9.7C174.3,329.8,171.7,328.1,169.3,326.7z"/>
<polygon class="st22" points="1265.5,438.4 1290.2,438.4 1290.2,450 1265.5,450 "/>
<path class="st23" d="M1311.6,453.8c-2.5-0.2-5,0.4-7.2,1.7c-2.1,1.3-4.4,2.4-6.6,3.5c-3.1,1.3-6.6,1.2-9.6-0.3
	c-3-1.5-4.8-4.6-4.6-7.9V445"/>
<circle class="st24" cx="1283.7" cy="444.2" r="2.1"/>
<circle class="st24" cx="1272" cy="444.2" r="2.1"/>
<polygon class="st25" points="126.5,480 0,480 0,326.9 126.5,326.9 "/>
<polygon class="st26" points="125.3,308.3 137.7,308.3 137.7,480 125.3,480 "/>
<path class="st23" d="M1308,454.5c-5.6-0.5-18.2,0-22.6,3.6c-1.6,1.3-3,2.9-4.9,3.5c-2.1,0.7-4.3,0.3-6-1.1
	c-1.6-1.4-2.1-3.1-2.1-5.5v-8.7"/>
<path class="st20" d="M552.9,458L552.9,458c0,12.1,9.7,22,21.8,22h81.5c12.1,0,21.8-10,21.8-22v0c0-12.1-9.8-21.8-21.8-21.8h-81.4
	C562.7,436.1,552.9,445.9,552.9,458z"/>
<path class="st20" d="M577.4,480l-7.8,0c-13.3,0-25.7-5.4-32.7-13.7l0,0c-8.7-10.3-6-28.7,6.8-36.3l0,0c8.2-4.9,16.6-6.2,26.7-4.1
	c24.1,5,64.9,12.5,64.9,12.5"/>
<path class="st27" d="M555.7,413.2c1.6-1.4,3.7-2.2,5.9-2.2c4.2,0,8.4-0.3,12.6-0.9c0.4-0.1,0.8,0,1.1,0.3c0.7,0.5,0.8,1.4,0.4,2.1
	c-1,1.4-2.5,2.4-4.1,3c0,0,3.8,0.8,10.1,1.5c2.4,0.3,5.2,0.5,8.2,0.7c11.6,0.8,23.3,0.3,34.8-1.3c21.7-3.3,29.9,11.9,31.8,21.3
	s12.8,24.1,22.5,8.2c-5.1,14.5-17.6,9.9-24-1.2c-1.4-2.4-7.9-4.4-11.7,2.4c-3.5,6.3-0.5-3.1,0.2,3.9c0.1,1-0.3,1.9-1,2.6L630.7,464
	h-6.1l0.3-1.4c0.2-0.9,0.9-1.6,1.8-1.6l2.4-0.2l0,0c1.3-1.1,2.8-2.5,4.2-3.9c2.8-2.9,3.5-7.3,1.6-10.8l-3.4,5.8
	c-1.3-2.5-1.7-5.4-1.2-8.1l0.3-4.7c-4.1,0.1-7.3-1.6-14.3,5.9c-1.8,1.9-4.2,3-6.8,3.1l-2.5,0.1l-9.8,8.7l8.8,4.4l2.2-0.3
	c0.2,0,0.4,0,0.6,0.1c0.4,0.3,0.6,0.8,0.3,1.3l-1.3,2.3l-12.6-4.3c-2.5-0.8-3.9-3.3-3.4-5.9c0.9-4.6,4,3.7,4.3-4.2
	c0,0-14.7-12.6-21.2-18.7c-0.7-0.7-1.3-1.2-1.7-1.7c-0.5-0.5-1-0.9-1.5-1.3c-4.8-3.7-11.2-4-15.4-3.1c-4.7,0.9-8.6,4-15,0.5
	L555.7,413.2z"/>
<path class="st20" d="M566.8,467.2l59.1,8.7l32.6-7.2L654,444c0,0-7.5-6.4-27.5-4.7s-10.6,5.6-23.2,7.5s-27.2-1.9-27.2-1.9
	L566.8,467.2z"/>
<path class="st28" d="M624.2,416.3l-1.6,3.2c-2.5,5.1-7.3,8.7-12.8,9.8l0,0c-3.9,0.8-5.8,0.7-8.2-0.6c-1.8-1.1-3.3-2.6-4.4-4.4
	l-3.9-6.4C612.4,418.3,624.2,416.3,624.2,416.3z"/>
<path class="st28" d="M626.5,422.7L626.5,422.7c0.3,0.1,0.4,0.1,0.6,0.2c1.2,0.7,1.6,2.2,0.9,3.4l0,0c-0.6,1-1.7,1.5-2.8,1.2h-0.1
	c-0.1,0-0.3-0.1-0.4-0.2c-1.2-0.6-1.7-2.1-1.1-3.3l0,0C624.2,422.9,625.4,422.4,626.5,422.7z"/>
<circle class="st28" cx="626.6" cy="419.3" r="1.4"/>
<rect x="1101.8" y="349.4" class="st9" width="9.8" height="9.8"/>
<rect x="1129.1" y="201.8" class="st9" width="9.8" height="9.8"/>
<rect x="1077.9" y="360.2" class="st18" width="9.8" height="9.8"/>
<path class="st29" d="M1094.6,367.7h-9.8c0,0,0,7.7,1.5,9.8h9.8C1094.9,375.7,1094.6,367.7,1094.6,367.7z"/>
<path class="st18" d="M1137.2,188.1h-9.8c0,0,0,7.7,1.5,9.8h9.8C1137.4,196,1137.2,188.1,1137.2,188.1z"/>
<path class="st27" d="M595.2,439.8c-18.7-8.8-32.8,1-32.8,1l-0.5,1.8c-0.3,1.3-1.5,2.2-2.8,2.1c-0.7-0.1-1.4-0.4-1.9-1.2
	c-0.6-0.9,0.4-2.4,1.9-3.9c7.7-7.5,10.2-7,16.3-7.3C582.9,431.7,590.1,434.5,595.2,439.8z"/>
<line class="st30" x1="352.4" y1="0" x2="352.4" y2="18.9"/>
<line class="st30" x1="638.3" y1="0" x2="638.3" y2="18.9"/>
<rect x="326.9" y="18" class="st20" width="337" height="10.1"/>
<line class="st30" x1="808.4" y1="0" x2="808.4" y2="18.9"/>
<line class="st30" x1="1094.3" y1="0" x2="1094.3" y2="18.9"/>
<rect x="782.9" y="18" class="st20" width="337" height="10.1"/>
<path class="st31" d="M48.3,345.9c-0.3-0.6,0.6-1.1,0.9-0.5c5.1,10.2,12.5,17.5,21.6,24.1c6.3,4.5,8.9,10,6.5,17.7
	c-1.7,5.4-5.5,10.5-5.6,16.4c-0.1,6.6,4.6,9.9,8.6,14.2c2.7,2.9,4.8,6.3,6.2,10c1.4,3.7,2.4,18.5,8.7,14.5c0.5-0.4,1,0.5,0.5,0.9
	c-8.1,5.2-8.6-10.8-9.8-14.3c-2.3-6.6-6.9-10.5-11.3-15.5c-2.5-2.6-3.9-6.2-3.8-9.8c0.2-5.3,3.3-10.1,5.1-15
	c1.5-4.1,2.4-8.8,0.1-12.8c-1.7-2.9-4.7-4.8-7.4-6.6C59.9,363.2,53,355.2,48.3,345.9L48.3,345.9z"/>
<path class="st31" d="M48.1,345c-0.2-0.6,0.8-0.8,1-0.3c5.2,12.5,17.1,17.6,28.4,23.2c7.9,3.9,15.1,11.9,13,21.5
	c-1.1,5.2-5.6,10.1-8.7,14.2c-3.8,5.1-7.9,9.9-11.4,15.2c-3.9,6-7.3,12.9-7.8,20.1c-0.9,12.5,10.2,12.4,19.1,9.5
	c0.6-0.2,0.9,0.8,0.3,1c-5.1,1.6-11.2,3.5-16.1,0.3c-3.9-2.5-4.6-7.2-4.2-11.5c1.2-12.9,10.2-23.4,17.8-33.2
	c5.3-6.8,11.9-13.8,9.5-23c-2.2-8.4-8.4-11.8-15.8-15.1C62.7,362.3,52.7,356,48.1,345L48.1,345z"/>
<rect x="77.4" y="411.1" class="st12" width="29.3" height="68.9"/>
<rect x="77.4" y="411.1" class="st32" width="29.3" height="41.1"/>
<path class="st12" d="M106.8,411.1v19.9c-9.3,4.5-20.1,4.5-29.3,0v-19.9H106.8z"/>
<circle class="st32" cx="102.2" cy="457.7" r="1.7"/>
<circle class="st32" cx="96.9" cy="457.7" r="1.7"/>
<polygon class="st33" points="96.9,465.5 77.4,465.5 77.4,466.5 96.9,466.5 "/>
<polygon class="st33" points="96.9,468.1 77.4,468.1 77.4,469.1 96.9,469.1 "/>
<polygon class="st33" points="96.9,470.6 77.4,470.6 77.4,471.6 96.9,471.6 "/>
<path class="st34" d="M1281.6,470.8c-1.6-2.2-2.4-5.2-1.6-11.9c1.8-14.6,8.9-48.2,9.5-59l-21.6-1.7c-1,21.7-2.1,44.3-1.4,60.1
	c0.4,8.8,0.8,16,0.8,21h22.1C1286.6,474.7,1283.6,473.4,1281.6,470.8z"/>
<path class="st35" d="M1281.6,470.8c-5.1-5-7-12.5-15.2-12.5v0.1c0.4,8.8,0.8,16,0.8,21h22.1
	C1286.6,474.7,1283.6,473.4,1281.6,470.8z"/>
<path class="st28" d="M1287.4,265c-0.1-0.2-0.3-0.5-0.4-0.8C1287.1,264.4,1287.3,264.7,1287.4,265z"/>
<path class="st28" d="M1272.1,282.2c2.8,0.9,5.9,0.8,8.6-0.4c6.4-2.6,9.4-10,6.8-16.4c-0.1-0.1-0.1-0.3-0.2-0.4
	c1.3,2.3,2.9,2.9,3.4,4.1s-1.2,1.7-0.2,3.7c1.6,3.7,2.5,4.4-0.8,7.3c-3.3,2.9,1.7,9.8,1.7,9.8l-19.3,2.2c0-2.9-0.6-5.8-1.6-8.5
	c-0.7-1.6-1.7-3-3-4.2C1268.8,280.7,1270.4,281.6,1272.1,282.2z"/>
<path class="st28" d="M1264.4,275c-1.3-3.2-1.3-6.8,0.2-10c2.9-6.3,10.3-9.1,16.6-6.3l2-1.2l0.7,1.2l0,0l2.8,4.9l0.3,0.5
	c0.1,0.3,0.3,0.6,0.4,0.8l0,0c0.1,0.1,0.1,0.3,0.2,0.4c1.1,2.7,1.3,5.8,0.4,8.6c-2.1,6.6-9.2,10.2-15.8,8.1
	c-1.7-0.6-3.3-1.5-4.7-2.7C1266.2,278.2,1265.1,276.7,1264.4,275L1264.4,275z"/>
<path class="st36" d="M1264.4,275c-2.6-6.4,0.4-13.7,6.8-16.3c3.3-1.3,6.5-1.7,9.5-0.3l2.4-0.8l0.7,1.2l0,0l-5.7,3.2l1.6,3.5
	c0,0-2.9,2.2-1.1,4.8l-5.6,4.1c2.2,3.7,0.4,6.3-0.8,7.8c-0.5,0.6-1,1.1-1.6,1.5c-0.7-1.6-1.7-3-3-4.2
	C1266.2,278.2,1265.1,276.7,1264.4,275C1264.4,275,1264.4,275,1264.4,275z"/>
<circle class="st28" cx="1276" cy="272.6" r="3.5"/>
<path class="st36" d="M1274.7,261.8l-9.5,14.7l-6.4-12.2c-0.6-1.1-0.2-2.5,0.9-3.1l17.1-9.3c1.3-0.7,2.9-0.3,3.7,1l2.7,4.6
	L1274.7,261.8z"/>
<path class="st36" d="M1283.2,279.6c0.2,0.4,0.4,0.7,0.7,1c1.5,1.5,3.8,1.5,5.3,0l2.7-2.6c0.5-0.4,0.6-1.1,0.3-1.7l-1.8-3.8
	c0,0-7.5,4-10.1,0.4l-1.7-2.6L1283.2,279.6z"/>
<path class="st28" d="M1299.3,296.7l2.1-3.5l4.9-5.2c0.8-0.8,1.3-1.8,1.6-3l0.9-3.8c0,0,0.6-3.2-0.3-3.6c0.2-0.9-0.6-1.9-1.5-0.9
	c0,0-1.2-0.7-2.4,0.9s-4.3,5.8-4.3,5.8c0.6-1.1,1.1-2.2,1.5-3.4c0.1-0.4-0.1-0.8-0.4-1.1c0,0-0.1,0-0.1-0.1c-0.2-0.1-0.4,0-0.5,0.2
	l-2.8,5.2c-0.2,0.4-0.3,0.8-0.3,1.3v2.4c0,1.5-0.5,2.9-1.5,4l-1.1,1.3"/>
<path class="st37" d="M1296.3,470.8c-1.6-2.2-2.4-5.2-1.6-11.9c1.8-14.6,8.9-48.2,9.5-59h-23.5c-1,21.7-0.2,42.6,0.5,58.4
	c0.4,8.8,0.8,16,0.8,21h22.1C1301.3,474.7,1298.2,473.4,1296.3,470.8z"/>
<path class="st38" d="M1277.8,315.7l-15.7,33l-10.7-8c-2.7-2-4.7-4.8-5.7-8c-0.9-3.6-0.6-7.4,0.9-10.8l8.1-20.4L1277.8,315.7z"/>
<path class="st38" d="M1321.9,307l-21.3-15.2c-2.8-1.7-5.9-2.6-9.2-2.5h-20.8c-0.4,0-0.8,0-1.2,0c-9.2,0.6-16.2,8.6-15.5,17.9
	c0.3,5.4,1.1,10.8,2.5,16c3.9,13.7,5,11.9,9.1,64.2l-5.2,22c3.9,0,7.7-1,11-3l0.8-0.5c2.1-1.2,4.6-1.2,6.7,0l3.3,2
	c1.8,1,3.8,1.6,5.8,1.6h15.3c3.4-27.2,0.5-44.6-2.3-64.1s17.1-0.8,15.8-13.4L1321.9,307z"/>
<path class="st35" d="M1296.3,470.8c-5.1-5-7-12.5-15.2-12.5v0.1c0.4,8.8,0.8,16,0.8,21h22.1
	C1301.3,474.7,1298.2,473.4,1296.3,470.8z"/>
<polygon class="st9" points="1309.9,277.4 1301,272.9 1296.4,281.8 1305.4,286.3 "/>
<path class="st28" d="M1300,284.4l0.9-3.7c0.2-0.6-0.1-1.3-0.7-1.6l-0.3-0.2l-2.1,5.2L1300,284.4z"/>
<polygon class="st18" points="70.9,366.5 72.8,379 83.6,379 85.5,366.5 "/>
<path class="st37" d="M78.3,366.5c-0.6-0.7-1.4-1.2-2.2-1.5l-2.1-1c-0.8-0.3-1.4-0.7-2.1-1.2c-0.6-0.5-0.9-1.4-0.7-2.2
	c0.4-1.1,1.6-1.7,2.8-1.4c1.1,0.4,2,1.1,2.6,2.1C77.6,362.9,78.2,364.6,78.3,366.5z"/>
<path class="st37" d="M78.4,366.5c-0.2-2.2-1.2-4.3-2.8-5.9c-0.9-0.6-1.6-1.4-2.1-2.3c-0.4-1-0.1-2.1,0.8-2.7c0.9-0.4,2-0.2,2.7,0.5
	c0.6,0.7,1.1,1.6,1.3,2.6C78.7,360.8,79.4,364.5,78.4,366.5z"/>
<path class="st37" d="M78.3,359.4c-0.4-0.9-0.4-2-0.8-3c-0.5-0.9-0.8-1.9-1.1-2.8c-0.3-1,0.1-2.1,1-2.7c0.3-0.2,0.6-0.2,0.9-0.2
	c0.5,0.1,0.9,0.4,1.1,0.8c1,1.4,0.8,3.4,0.3,5.1C79.6,357.2,79.1,359.3,78.3,359.4z"/>
<path class="st37" d="M78.5,358.5c-0.2,0.4-0.6,1.4-0.2,1.5s1.7-0.8,2.1-0.9c0.8-0.3,1.5-0.8,2.2-1.3c0.7-0.5,1.1-1.4,1.1-2.2
	c0-0.5-0.2-1-0.6-1.3c-0.4-0.2-0.9-0.2-1.4,0c-0.4,0.2-0.8,0.5-1.1,0.9C79.8,356.1,79.1,357.3,78.5,358.5z"/>
<path class="st37" d="M78.2,366.5c1-0.6,1.8-1.5,2.8-2.1c1.1-0.5,2.2-1.2,3.1-2c0.5-0.4,0.8-1,0.9-1.6c0.1-0.6-0.2-1.2-0.7-1.6
	c-0.7-0.2-1.4-0.1-2,0.4C80,361.2,78.5,363.7,78.2,366.5z"/>
<polygon class="st6" points="58.6,291.9 53.4,291 40,367 45.2,367.9 "/>
<circle class="st6" cx="56.9" cy="332.2" r="5.5"/>
<polygon class="st6" points="70,365.1 70,365.1 70,365.1 70,365.1 "/>
<path class="st6" d="M63.2,376.8C63.2,376.8,63.2,376.8,63.2,376.8c-2.6,0-4.7-2.1-4.7-4.7v-38h-3.2v42.7H47v2.3h20.5v-2.3
	L63.2,376.8z"/>
<path class="st39" d="M36,358.5v-5.2c0-5.3-4.3-9.6-9.6-9.6l0,0c-5.3,0-9.6,4.3-9.6,9.6v4.9"/>
<path class="st40" d="M16.2,358.4v4.6c0,1.6,1.3,2.8,2.8,2.8h0c1.6,0,2.8-1.3,2.8-2.8v-4.6c0-1.6-1.3-2.8-2.8-2.8h0
	C17.5,355.6,16.2,356.9,16.2,358.4z"/>
<path class="st40" d="M30.8,358.4v4.6c0,1.6,1.3,2.8,2.8,2.8h0c1.6,0,2.8-1.3,2.8-2.8v-4.6c0-1.6-1.3-2.8-2.8-2.8h0
	C32.1,355.6,30.8,356.9,30.8,358.4z"/>
<rect x="25.5" y="344.1" class="st41" width="2.2" height="34.9"/>
<rect x="19.2" y="376.4" class="st41" width="14.6" height="2.6"/>
<path class="st42" d="M26.9,377.1c0,1-0.9,1.9-1.9,1.9H7c-0.4,0-0.8-0.3-0.8-0.8l0,0c0-0.4,0.3-0.7,0.7-0.8l20-1.5L26.9,377.1z"/>
<polygon class="st25" points="1440,480 1258.7,480 1258.7,326.9 1440,326.9 "/>
<polygon class="st9" points="1397.3,354.4 1386.1,354.4 1386.1,334.1 1397.3,334.1 "/>
<polygon class="st43" points="1388.4,333 1395.1,333.4 1395,335.1 1388.3,334.8 "/>
<circle class="st3" cx="1395.2" cy="337.5" r="0.3"/>
<circle class="st3" cx="1395.2" cy="342.2" r="0.3"/>
<circle class="st3" cx="1395.2" cy="346.9" r="0.3"/>
<circle class="st3" cx="1395.2" cy="351.6" r="0.3"/>
<line class="st44" x1="1388.8" y1="337.8" x2="1393.3" y2="337.8"/>
<line class="st44" x1="1388.8" y1="342.5" x2="1393.3" y2="342.5"/>
<line class="st44" x1="1388.8" y1="347.2" x2="1393.3" y2="347.2"/>
<line class="st44" x1="1388.8" y1="351.9" x2="1393.3" y2="351.9"/>
<rect x="1258.2" y="308.3" class="st26" width="12.5" height="171.7"/>
<polygon class="st1" points="1432.1,348.4 1403.8,348.4 1403.8,372.9 1432.1,372.9 "/>
<polygon class="st45" points="1432.1,348.4 1403.8,348.4 1403.8,353.2 1432.1,353.2 "/>
<line class="st46" x1="1428.4" y1="360.9" x2="1425.3" y2="357.6"/>
<line class="st46" x1="1425.8" y1="360.3" x2="1428.8" y2="357.6"/>
<line class="st46" x1="1425.3" y1="365.6" x2="1424" y2="364.2"/>
<line class="st46" x1="1424" y1="365.6" x2="1425.3" y2="364.2"/>
<line class="st46" x1="1420.1" y1="362.3" x2="1417.6" y2="360.3"/>
<line class="st46" x1="1418.2" y1="362.6" x2="1419.8" y2="360.3"/>
<line class="st46" x1="1413.9" y1="363.8" x2="1411.3" y2="367.7"/>
<line class="st46" x1="1414.7" y1="367" x2="1410.7" y2="364.6"/>
<line class="st46" x1="1410.4" y1="361.3" x2="1407.9" y2="358.9"/>
<line class="st46" x1="1407.9" y1="361.5" x2="1410.4" y2="358.9"/>
<line class="st47" x1="1422.1" y1="431.2" x2="1422.1" y2="476"/>
<path class="st47" d="M1405.9,476v-3.8c0,0,0,0,0,0c0-2.5,2.1-4.6,4.6-4.6h23.1c0,0,0,0,0,0c2.5,0,4.6,2.1,4.6,4.6v3.8"/>
<circle class="st41" cx="1422.1" cy="476" r="4"/>
<circle class="st41" cx="1405.9" cy="476" r="4"/>
<path class="st41" d="M1439.1,480h-1.6c-1.8-0.4-3.1-2-3.1-3.8c-0.1-2.2,1.7-4,3.9-4.1c0.6,0,1.2,0.1,1.7,0.4v7.2
	C1439.7,479.8,1439.4,479.9,1439.1,480z"/>
<path class="st3" d="M1440,431.2h-43.1c-5.7,0-10.4-4.6-10.4-10.4c0-5.7,4.6-10.4,10.4-10.4h43.1V431.2z"/>
<path class="st48" d="M1303.1,440.5c3.2-3.5,8.4-4.2,12.7-6.3c6.6-3.3,10.8-9.9,11-17.2c0-4.9-1.9-9.6-4.4-13.8
	c-1.9-3.1-4.2-6-5.2-9.5c-0.9-3.3-0.7-6.8,0.7-9.9c1.2-2.7,3.3-5,4.4-7.7c1.3-3.1,1.3-6.7,1.4-10.1c0.2-7.2,1.1-14.9,5.9-20.3
	c3.7-4.3,9.3-6.4,14.8-7.7"/>
<path class="st48" d="M1295.4,442.3c2-4,6.1-9.7,9.5-12.8c5.2-4.7,9.1-9.3,7.1-15.2c-1.3-4-4.5-7.2-8.1-9.8
	c-2.7-1.9-6.5-2.6-8.5-5.1c-1.8-2.4-2.6-5.4-2.2-8.3c0.4-2.6,1.7-5.1,2-7.7c0.4-3-0.6-5.9-1.5-8.7c-1.8-6-3.2-12.5-0.2-18.5
	c2.3-4.7,7-8.3,11.8-11.2"/>
<polygon class="st12" points="1278.3,480 1307.6,480 1307.6,411.2 1278.3,411.2 "/>
<rect x="1278.3" y="411.2" class="st32" width="29.3" height="41.1"/>
<path class="st12" d="M1278.3,411.2V431c9.3,4.5,20.1,4.5,29.3,0v-19.9H1278.3z"/>
<circle class="st49" cx="1282.9" cy="457.7" r="1.7"/>
<circle class="st49" cx="1288.1" cy="457.7" r="1.7"/>
<rect x="1288.1" y="465.6" class="st33" width="19.5" height="1"/>
<rect x="1288.1" y="468.1" class="st33" width="19.5" height="1"/>
<rect x="1288.1" y="470.7" class="st33" width="19.5" height="1"/>
<path class="st20" d="M1291.2,379.6h96c8.5,0,15.5,6.4,15.5,14.9l-0.1,85.5h-3.5l-2.3-83.9c-0.2-6-5.1-10.8-11.2-10.8h-92.8
	c-6,0-11,4.8-11.2,10.8l-2.4,83.9h-3.4l0-85.6C1275.8,385.9,1282.7,379.6,1291.2,379.6z"/>
<polygon class="st6" points="1298.6,301 1303.9,300.1 1312.5,359.8 1307.2,360.7 "/>
<circle class="st6" cx="1298.5" cy="332.7" r="5.4"/>
<polygon class="st6" points="1285.3,365.6 1285.3,365.6 1285.3,365.6 1285.3,365.6 "/>
<path class="st6" d="M1292.2,377.3c2.6,0,4.7-2.1,4.7-4.7v-38h3.2v42.7h8.2v2.3h-20.5v-2.3L1292.2,377.3z"/>
<polygon class="st50" points="1371.4,357.7 1364.4,301.9 1310.9,301.9 1318,357.7 "/>
<path class="st42" d="M1362.6,303.9h-49.4l6.5,51.8h49.4L1362.6,303.9 M1373.7,359.7h-57.5l-7.5-59.8h57.5L1373.7,359.7z"/>
<polygon class="st51" points="1369.5,299.9 1366.1,299.9 1373.7,359.7 1377,359.7 "/>
<ellipse class="st42" cx="1375" cy="356.9" rx="0.8" ry="1"/>
<ellipse class="st42" cx="1374.6" cy="353.8" rx="0.8" ry="1"/>
<ellipse class="st42" cx="1374.1" cy="350.8" rx="0.8" ry="1"/>
<polygon class="st52" points="1363.4,350.3 1353.8,350.3 1348.5,308.6 1358.9,308.6 "/>
<polygon class="st42" points="1318.3,308.6 1348.5,308.6 1353.8,350.3 1323.6,350.3 "/>
<line class="st53" x1="1328.8" y1="312.7" x2="1344.8" y2="312.7"/>
<line class="st54" x1="1328.8" y1="312.7" x2="1326.3" y2="312.7"/>
<line class="st54" x1="1330" y1="316.5" x2="1345.5" y2="316.5"/>
<line class="st55" x1="1337.7" y1="320.2" x2="1345.8" y2="320.2"/>
<line class="st55" x1="1342.2" y1="323.9" x2="1346.5" y2="323.9"/>
<line class="st55" x1="1342.7" y1="327.6" x2="1347" y2="327.6"/>
<line class="st53" x1="1342.1" y1="331.3" x2="1347.8" y2="331.3"/>
<line class="st54" x1="1337.7" y1="335.1" x2="1348.2" y2="335.1"/>
<line class="st53" x1="1329.4" y1="338.8" x2="1348.8" y2="338.8"/>
<line class="st54" x1="1331.7" y1="338.8" x2="1329.5" y2="338.8"/>
<line class="st55" x1="1342.1" y1="342.6" x2="1349.1" y2="342.6"/>
<polygon class="st42" points="1341,357.7 1345.2,357.7 1345.2,378.4 1341,378.4 "/>
<polygon class="st42" points="1331.7,377.8 1354.5,377.8 1354.5,379.5 1331.7,379.5 "/>
<path class="st42" d="M1361.6,377.7c0,1,0.9,1.9,1.9,1.9h18l0,0c0.4,0,0.8-0.3,0.8-0.8l0,0c0-0.4-0.3-0.7-0.7-0.8l-20-1.5
	L1361.6,377.7z"/>
<polyline class="st56" points="575.2,416 578.6,416.5 571.9,428.7 569,426.8 575.2,416 "/>
<path class="st20" d="M585.6,447.2l23.3,5.5l33.5-12.8c-35.4-5.3-64.1-3.6-64.1-3.6L585.6,447.2z"/>
<path class="st14" d="M41.9,220.8h50.5v-56.9l-31.6,35.9l-19-20.6C41.8,179.6,41.9,220.8,41.9,220.8z"/>
<circle class="st16" cx="50.3" cy="172.7" r="4.6"/>
<rect x="60.9" y="163.3" class="st0" width="1" height="1"/>
<rect x="38.1" y="162.7" class="st0" width="1" height="1"/>
<rect x="38.4" y="175.4" class="st0" width="1" height="1"/>
<rect x="54.2" y="183.8" class="st0" width="1" height="1"/>
<rect x="75.2" y="161" class="st0" width="0.9" height="0.9"/>
<rect x="66.2" y="169.3" class="st0" width="1" height="1"/>
<path class="st57" d="M41.9,220.9h20.7l-20.8-21.9C41.7,198.6,41.9,220.9,41.9,220.9z"/>
<path class="st57" d="M83,220.9H51.3L83,182C83.2,182.2,83,220.9,83,220.9z"/>
<path class="st58" d="M77.8,180.4c-4.3-3.8-15.2-3.8-15.2-3.8"/>
<rect x="46.2" y="203.7" class="st11" width="33.6" height="4.8"/>
<rect x="46.1" y="211.7" class="st11" width="28.8" height="4.5"/>
<rect x="46.1" y="195.1" class="st11" width="28.8" height="4.5"/>
<rect x="860.9" y="398.5" class="st20" width="42.6" height="20.4"/>
<circle class="st59" cx="869.9" cy="411.3" r="6"/>
<circle class="st59" cx="894.9" cy="411.1" r="6"/>
<circle class="st60" cx="865.4" cy="402.7" r="2.1"/>
<circle class="st60" cx="898.8" cy="402.6" r="2.1"/>
<rect x="870.6" y="401.2" class="st60" width="23.4" height="2.2"/>
<rect x="879" y="405.9" class="st60" width="5.7" height="2.2"/>
<rect x="879" y="410" class="st60" width="5.7" height="2.2"/>
<rect x="879" y="414.1" class="st60" width="5.7" height="2.2"/>
<polyline class="st61" points="893.4,398.3 893.4,394.7 870.2,394.7 870.2,398.5 "/>
<rect x="821.9" y="418.8" class="st29" width="123.5" height="5.3"/>
<g>
	<defs>
		<rect id="SVGID_1_" x="821.3" y="424.1" width="134.4" height="55.9"/>
	</defs>
	<clipPath id="SVGID_2_">
		<use xlink:href="#SVGID_1_"  style="overflow:visible;"/>
	</clipPath>
	<g class="st62">
		<line class="st63" x1="824.7" y1="480" x2="840.3" y2="422.1"/>
		<line class="st63" x1="941.7" y1="480" x2="926.1" y2="422.1"/>
	</g>
</g>
<rect x="912.2" y="402.7" class="st40" width="9" height="16.1"/>
<rect x="912.2" y="402.1" class="st25" width="9" height="1.3"/>
<rect x="912.2" y="417.5" class="st64" width="9" height="1.3"/>
<path class="st17" d="M912.2,417.5h0.3c0.2-0.7,0.4-1.4,0.7-2c1.1-2.1,2.8-3.8,5-4.8c1.8-0.8,3-1.3,3-1.3v-5.5
	c-0.1,3.1-3.8,3.9-3.8,3.9c-2.7,0.6-4.8,2.8-5.2,5.5L912.2,417.5z"/>
<rect x="917.4" y="386" class="st38" width="9" height="16.1"/>
<rect x="917.4" y="385.4" class="st25" width="9" height="1.3"/>
<rect x="917.4" y="400.8" class="st64" width="9" height="1.3"/>
<path class="st45" d="M917.4,400.8h0.3c0.2-0.7,0.4-1.4,0.7-2c1.1-2.1,2.8-3.8,5-4.8c1.8-0.8,3-1.3,3-1.3v-5.6
	c-0.1,3.1-3.8,3.9-3.8,3.9c-2.7,0.6-4.8,2.8-5.2,5.5L917.4,400.8z"/>
<rect x="927.8" y="385.9" class="st40" width="9" height="16.1"/>
<rect x="927.8" y="385.3" class="st25" width="9" height="1.3"/>
<rect x="927.8" y="400.7" class="st64" width="9" height="1.3"/>
<path class="st17" d="M927.8,400.8h0.3c0.2-0.7,0.4-1.4,0.7-2c1.1-2.1,2.8-3.8,5-4.8c1.8-0.8,3-1.3,3-1.3v-5.5
	c-0.1,3.1-3.8,3.9-3.8,3.9c-2.7,0.6-4.8,2.8-5.2,5.5V400.8z"/>
<rect x="922.7" y="402.7" class="st21" width="9" height="16.1"/>
<rect x="922.7" y="402.1" class="st25" width="9" height="1.3"/>
<rect x="922.7" y="417.5" class="st64" width="9" height="1.3"/>
<path class="st65" d="M931.7,417.5h-0.3c-0.2-0.7-0.4-1.4-0.7-2c-1.1-2.1-2.8-3.8-5-4.8c-1.8-0.8-3-1.3-3-1.3v-5.5
	c0.1,3.1,3.8,3.9,3.8,3.9c2.7,0.6,4.8,2.8,5.2,5.5L931.7,417.5z"/>
<rect x="922.7" y="369.2" class="st21" width="9" height="16.1"/>
<rect x="922.6" y="368.6" class="st25" width="9" height="1.3"/>
<rect x="922.6" y="384" class="st64" width="9" height="1.3"/>
<path class="st65" d="M931.7,384h-0.3c-0.2-0.7-0.4-1.4-0.7-2c-1.1-2.1-2.8-3.8-5-4.8c-1.8-0.8-3-1.3-3-1.3v-5.5
	c0.1,3.1,3.8,3.9,3.8,3.9c2.7,0.6,4.8,2.8,5.2,5.5L931.7,384z"/>
<rect x="933.1" y="402.7" class="st38" width="9" height="16.1"/>
<rect x="933.1" y="402.1" class="st25" width="9" height="1.3"/>
<rect x="933.1" y="417.5" class="st64" width="9" height="1.3"/>
<path class="st45" d="M942.1,417.5h-0.3c-0.2-0.7-0.4-1.4-0.7-2c-1.1-2.1-2.8-3.8-5-4.8c-1.8-0.8-3-1.3-3-1.3v-5.5
	c0.1,3.1,3.8,3.9,3.8,3.9c2.7,0.6,4.8,2.8,5.2,5.5L942.1,417.5z"/>
<path class="st66" d="M836.5,407.9v5.2c0,3.1,2.5,5.7,5.7,5.7l0,0c3.1,0,5.7-2.5,5.7-5.7v-5.2l0,0H836.5L836.5,407.9z"/>
<polyline class="st47" points="847.1,414 849.6,414 849.6,409.9 847.7,409.9 "/>
<path class="st67" d="M1060,336.8l-0.8,3.9c-0.2,1.1-0.8,2.2-1.5,3.1l-4.8,5.5l-0.8,1.7l-1.5,3.2l-6.3,15.5
	c-1.3,3.3-3.9,5.9-7.2,7.3l-5.2,2.2l-2-12.8l4.8-2.2l10.8-13.5l0.8-0.9l1.1-1.4c0.1-0.1,0.2-0.3,0.3-0.4c2.3-3.1,1-4.6,1.5-7l1.2-6
	c0,0,0-0.1,0-0.1c0.1-0.2,0.3-0.3,0.5-0.2c0.4,0.1,0.7,0.5,0.7,0.9c0,1.3-0.2,2.5-0.5,3.8c0,0,3-4.4,4.2-6.1s2.4-1,2.4-1
	c0.9-1,1.8,0,1.6,0.9C1060.5,333.5,1060,336.8,1060,336.8z"/>
<polygon class="st68" points="1014.5,392 1039.1,378.8 1032.3,365.1 1004.4,372.9 "/>
<path class="st67" d="M996.1,335.3l-0.3,0h-0.1c-0.4,0.1-0.7,0.1-1.1,0.2c0,0,0,0,0,0c-7.6,2-12.1,9.8-10.1,17.4
	c2,7.6,9.8,12.1,17.4,10.1c7.6-2,12.1-9.8,10.1-17.4c0-0.1-0.1-0.3-0.1-0.4c-0.1-0.4-0.3-0.9-0.4-1.1s-0.2-0.4-0.3-0.6
	C1008.7,337.7,1002.4,334.3,996.1,335.3z"/>
<path class="st67" d="M1011.9,345.2c-0.1-0.4-0.3-0.7-0.4-1.1l-4.9,3.3l-1.7,1.1l-1.9,1.3l-14.5,9.8l0.1,0.1c1.1,1.1,2.1,2.2,3,3.4
	c3.6,4.8,4.2,8.8,2.8,14.2l0.3,0l16.1,0.9c0,0-2.9-12.7,1.1-16c3.8-3.2,3.7-3.4,2.4-7.9c-0.8-2.4,1.2-2.6,0.8-4.1
	C1014.8,349,1013,347.9,1011.9,345.2z"/>
<polygon class="st69" points="1095.7,466.4 1086.1,471.2 1082.8,467.1 1091.3,456.7 1095.8,461.4 "/>
<polyline class="st70" points="1071.6,384.1 1066.2,415.2 1036.6,420.3 "/>
<line class="st71" x1="1013.2" y1="350.9" x2="1011.6" y2="344.2"/>
<line class="st71" x1="1000.5" y1="350.4" x2="1012.4" y2="347.5"/>
<path class="st72" d="M985.9,447c1.6,14.3,27.1,6.1,27.1,6.1l35.1-12.8l34.9,31.2l11.7-11.2l-29.9-33.3c-6.2-5.1-13.4-8.7-21.4-6.7
	l-51.1,12.9"/>
<path class="st68" d="M1010.5,373.4c-0.1,2,0.5,3.9,1.6,5.5c6.7,8,9.4,50,9.4,50c-32.1,2.5-28.3,19.5-41.6,19.5v-49.8
	c0-17.2,11.9-26.8,14.7-30L1010.5,373.4z"/>
<path class="st37" d="M1050.8,416.4l4.2-3.3c0.2-0.1,0.3-0.4,0.3-0.6l0,0c0-0.1,0-0.2-0.1-0.3c-0.2-0.4-0.6-0.6-1-0.5
	c-1.2,0.4-2.3,0.9-3.4,1.5L1050.8,416.4z"/>
<path class="st37" d="M1052.5,409.3l6,1.9c0.4,0.1,0.8,0,1.1-0.3l0,0c0.1-0.1,0.2-0.2,0.2-0.3c0.2-0.6,0-1.2-0.6-1.4l-5.4-2.4"/>
<path class="st67" d="M1006.6,425.3c0.1,0.1,0.1,0.3,0.2,0.4c2.4,5,8.4,7.1,13.4,4.7l24.1-11.5l3.6-0.9c1.9-0.4,3.4-1.7,4.2-3.4
	l2.6-5.3l10-1.3c0.4-0.1,0.8-0.3,0.9-0.8l0,0c0-0.1,0.1-0.2,0.1-0.3c0-0.6-0.4-1.2-1.1-1.2l-10.6-0.5c-1,0-2,0.4-2.6,1.1l-3.8,4.4
	c-1.1,1.3-2.6,2.2-4.3,2.5l-37.6,9.9L1006.6,425.3z"/>
<polygon class="st68" points="1019.9,410.7 996.3,417.2 998,425.1 1020.9,419.1 "/>
<path class="st42" d="M1095.8,461.4c-1.2,7.8-4.6,4.2-10,9.4l6.9,9.2l23.5-21.6C1107.6,454,1107.6,466.2,1095.8,461.4z"/>
<path class="st40" d="M1000.1,348.6c0,0-4.7,3.3-4.5,4.4s1.1,1.5,3.1,3.4c1.6,1.5,1.4,4.7,0,6.5c-0.3,0.4-0.7,0.8-1,1.2
	c-0.4,0.7-0.7,1.5-0.9,2.3c-0.2,0.8-0.7,1.5-1.4,1.9c-1,0.5-2.2,0-3.4,0c-0.7,0.1-1.5,0.1-2.2,0.1c-1-0.1-1.8-0.8-2.1-1.7
	c-0.5-1.4,0.2-3.1-0.7-4.3c-0.5-0.5-1.1-1-1.8-1.3c-0.9-0.6-1.5-1.6-1.6-2.6c0-1.1-0.2-2.2-0.7-3.3c-0.4-0.6-0.9-1.2-1.4-1.7
	c-0.9-0.9-1.2-2.2-1-3.5c0.3-1.1,1.2-2,1.5-3.1c0.3-1.3-0.1-2.7,0-4c0-0.8,0.2-1.6,0.7-2.3c1-1.5,3.2-1.9,4.7-3
	c1.4-1,2.2-2.6,3.6-3.5c1.3-0.8,2.9-1.1,4.4-0.7c1,0.4,2.1,0.6,3.1,0.7c1.3,0,2.5-0.8,3.7-1c1.5-0.2,2.9,0.2,4.1,1.1
	c0.8,0.7,1.3,1.5,1.6,2.5c0.5,1.9-0.4,3.8-2.2,4.6c-0.8,0.4-1.7,0.6-2,1.3s0.1,1.7-0.3,2.3s-1.4,0.6-1.7,1.2c-0.2,0.4,0,0.8-0.1,1.2
	C1001.5,348.3,1000.8,348.7,1000.1,348.6L1000.1,348.6z"/>
<circle class="st67" cx="999.2" cy="351.8" r="3.6"/>
<path class="st73" d="M993.3,413c7.1,26.6,19.1,24.1,49.6,25.3c30.6,1.2,35.8,40,9,40.6c0,0,0,1.2-30.1,1.1
	c-30.2-0.1-72.2,5.4-70-63.5C951,384.6,986.2,386.4,993.3,413z"/>
<circle class="st40" cx="977.3" cy="343.6" r="6.2"/>
<path class="st74" d="M920.7,468.3c0,0,6.5,11.7,21.4,11.7l22.1,0c14.9,0,23.2-11.6,23.2-11.6s-8.3-11.7-23.2-11.7h-20.2
	C929,456.6,920.7,468.3,920.7,468.3z"/>
<rect x="1050.3" y="331.6" class="st18" width="9.8" height="9.8"/>
<path class="st75" d="M1228.7,465.6c0.2-7.6-5.9-13.9-13.5-14c-8-0.2-14.6,6.2-14.8,14.2c0,0,0,0,0,0.1c0,7.8,6.4,14.1,14.2,14.1
	s14.1-6.4,14.1-14.2C1228.7,465.7,1228.7,465.7,1228.7,465.6z"/>
<line class="st76" x1="1240.1" y1="460.7" x2="1315" y2="460.7"/>
<line class="st76" x1="1241.7" y1="461.5" x2="1219.2" y2="431.5"/>
<line class="st76" x1="1216.5" y1="452.4" x2="1231.2" y2="354"/>
<circle class="st75" cx="1312.9" cy="465.8" r="14.2"/>
<line class="st76" x1="1249.4" y1="356.7" x2="1213.2" y2="351.5"/>
<line class="st77" x1="1224.8" y1="353.2" x2="1213.1" y2="351.5"/>
<line class="st77" x1="1249.5" y1="356.7" x2="1237.7" y2="355"/>
<path class="st78" d="M1214.4,449.8c8.7,0,15.8,7,15.9,15.8v2h-3.8v-1.7c0-4.1-2.1-7.9-5.5-10.2c-1.9-1.2-4.1-1.9-6.4-1.9
	c-2.8,0-5.6,1.1-7.7,3c-2.6,2.4-4.1,5.7-4.2,9.2v1.6h-3.9v-1.5c0-8.5,6.5-15.8,15-16.2C1213.9,449.8,1214.2,449.8,1214.4,449.8z"/>
<path class="st78" d="M1313,449.8c8.7,0,15.8,7.1,15.8,15.8v2h-3.9v-1.7c0-4.1-2.1-7.9-5.5-10.2c-1.9-1.2-4.1-1.9-6.4-1.9
	c-2.8,0-5.6,1.1-7.7,3c-2.6,2.4-4.1,5.7-4.1,9.2v1.6h-3.9v-1.5c0-8.5,6.5-15.8,15-16.2C1312.5,449.8,1312.7,449.8,1313,449.8z"/>
<circle class="st78" cx="1214.2" cy="466.2" r="3.7"/>
<circle class="st78" cx="1312.5" cy="466.4" r="3.7"/>
<path class="st8" d="M225.4,466.7l7.1-0.3l2.3-3c0,0,0.8-6.4,0.9-9l-13.8,3.9l-0.1,5.4L225.4,466.7z"/>
<path class="st8" d="M204.8,420.9l-31,42.6l-11.7-6.3c0,0,6.9-11.7,13.9-24.2c4.9-8.7,9.2-15.7,12.6-18.4l0,0l1.7-11.7l19,2.7l0,0
	C208.6,410.7,207.8,416.8,204.8,420.9z"/>
<path class="st8" d="M226.6,268.5c1.8-4.7,5.9-8.1,10.9-8.9c7.6-1.2,14.8,4,16,11.6c0.3,2,0.3,4-0.3,5.9c0,0,0,0.1,0,0.1
	c-0.1,0.3-0.1,0.5-0.2,0.8l0,0c-0.1,0.2-0.1,0.4-0.2,0.6c-1.7,4.4-5.4,7.7-10,8.8c-7.5,1.7-15-3-16.7-10.6l-0.1-0.3
	C225.4,273.8,225.6,271,226.6,268.5L226.6,268.5z"/>
<path class="st8" d="M226,276.8l-0.1-0.3l9.3,0.2l7.3,0.2h1.8l9,0.2l0,0v0.1c-0.1,0.3-0.2,0.5-0.2,0.8l0,0c-0.8,2.9,0,4.7-0.5,6
	s-2.2,0.4-3,2.8c-1.5,4.3-1.8,4.3-6.7,4.2s-7.9,14.3-7.9,14.3l-14.4-11.5l-0.2-0.2c7.4-4.3,7.9-7,6.8-12.3
	C226.8,280,226.4,278.5,226,276.8z"/>
<path class="st42" d="M226.6,268.4c1.8-4.7,5.9-8.1,10.9-8.9c7.6-1.2,14.8,4,16,11.6c-0.1-0.1-0.2-0.1-0.4-0.2
	c-0.6-0.2-1.2-0.2-1.8,0.2c-0.3,0.2-0.5,0.6-0.9,0.8c-0.9,0.5-2,0.2-2.6-0.7c-0.2-0.4-0.4-0.7-0.7-1.1c-0.5-0.3-1.1-0.3-1.6,0
	c-0.5,0.4-0.8,0.9-0.9,1.5c0,0-0.1,2.8-0.1,4.4c0,0.3-0.1,0.6-0.3,0.8c0,0.1-0.1,0.1-0.1,0.1c-0.5,0.4-1.2,0.3-1.6-0.1
	c-0.2-0.3-0.3-0.7-0.3-1.1l-6.7-0.5c-0.1,0.5-0.2,0.9-0.3,1.4c-0.9,3-3.1,5.6-7,4.9c-0.4-0.1-0.8-0.2-1.2-0.3
	c-0.2-1.3-0.6-2.9-1-4.6l-0.1-0.3C225.4,273.8,225.6,271,226.6,268.4L226.6,268.4z"/>
<line class="st47" x1="250.3" y1="281.5" x2="251.6" y2="276"/>
<line class="st47" x1="239.9" y1="276.2" x2="251" y2="278.8"/>
<circle class="st8" cx="238.9" cy="275.7" r="3.4"/>
<circle class="st42" cx="254.7" cy="268.4" r="2.9"/>
<polygon class="st42" points="251.7,267.7 246,260.9 256.2,265.9 "/>
<path class="st20" d="M240.1,325.4l1.4-3.7c3.1-7.9,2.9-16.7-0.7-24.4c-0.3-0.7-0.7-1.9-1-2.7l-14.3-4.9
	c-10.4,5-17.7,14.7-19.9,26.1c-3,15-6.5,33.3-8.3,44.9l42.9,5.7C244,353.2,241.3,336.3,240.1,325.4L240.1,325.4z"/>
<path class="st79" d="M239.7,324.3c0-0.1,0.1-0.1,0.1-0.2l-0.4-0.2L239.7,324.3z"/>
<path id="_Clipping_Path_5_2_" class="st78" d="M222.2,476.7l-0.4-13c2.6,1,5.2,1.3,7.9,1.4c0.4-0.4,0.2-2.6,5.1-1.9
	c1.8,11.2,11,10.9,17.7,13.6l0,3.2l-30.3,0L222.2,476.7z"/>
<g>
	<defs>
		<path id="SVGID_3_" d="M222.2,476.7l-0.5-13.2c2.6,1,5.3,1.5,8,1.6c0.4-0.4,0.2-2.6,5.2-1.9c1.8,11.2,10.9,10.9,17.7,13.6l0,3.2
			l-30.3,0L222.2,476.7z"/>
	</defs>
	<clipPath id="SVGID_4_">
		<use xlink:href="#SVGID_3_"  style="overflow:visible;"/>
	</clipPath>
	<g class="st80">
		<line class="st81" x1="237.7" y1="469.2" x2="235.3" y2="470.7"/>
		<line class="st81" x1="238.8" y1="470.2" x2="237" y2="472.1"/>
		<line class="st81" x1="240.2" y1="471.1" x2="238.8" y2="473.3"/>
		<line class="st81" x1="241.5" y1="472.2" x2="240.4" y2="474.2"/>
		<line class="st81" x1="243.2" y1="473.3" x2="242.2" y2="474.8"/>
	</g>
</g>
<polygon class="st42" points="222.2,476.7 252.6,476.8 252.5,480 222.3,480 "/>
<path class="st81" d="M230.2,468.9c-0.5,0.3-0.9,0.7-1.2,1.2c-0.3,0.5-0.2,1.2,0.2,1.6c0.8,0.6,2.1,0.1,2.7-0.5
	c0.3-0.3,0.5-0.6,0.7-0.9c0.5-0.7,0.9-1.5,1.2-2.4c0.2-0.6,0.5-1.4,1.2-1.6c1.1-0.3,2.8,1.1,3.8,1.5c1,0.4,2,0.7,3,0.8
	c0.4,0.1,0.8,0,1.1-0.1c0.4-0.1,0.6-0.5,0.6-0.9c0-0.4-0.2-0.7-0.5-0.9c-1-0.8-2.3-1.2-3.6-1.1C236.1,465.7,232.9,466.8,230.2,468.9
	z"/>
<rect x="239.4" y="327.2" class="st25" width="225.9" height="152.8"/>
<rect x="239.4" y="308.3" class="st26" width="12.5" height="171.6"/>
<path class="st82" d="M403.4,306.7c0-0.2,0.1-0.3,0.1-0.5c0.1-0.3,0.2-0.6,0.2-0.9l0,0c0.5-1.8,1.5-3.4,2.7-4.8
	c3.1-3.5,7.8-5.1,12.4-4.2c7.2,1.4,11.8,8.3,10.4,15.5l-0.1,0.5l0,0c0,0,0,0.1,0,0.1c-0.6,2.3-1.7,4.4-3.4,6l0,0
	c-3.1,3.2-7.6,4.6-12,3.7c-0.7-0.1-1.5-0.4-2.2-0.6C405.7,319.3,402.2,313,403.4,306.7z"/>
<path class="st82" d="M422.5,332.1c-2.6-6.6-2.5-7.7,3.4-13.7l-22-13.2c-0.7,3.3-2.6,4.6-2.9,5.9s1.6,1.4,1,3.7
	c-0.9,4.2-0.7,4.3,3.2,6.7s1.5,9.9,1.5,9.9L422.5,332.1z"/>
<rect x="354.4" y="330.7" class="st9" width="9.4" height="9.3"/>
<path class="st8" d="M265.8,294.3l-0.7-1.8c-0.2-0.8-1.1-1.3-1.9-1.2h-0.1c-0.4,0.1-0.9,0-1.2-0.2l-0.4-0.3c-0.5-0.4-1.2-0.4-1.6,0
	l0,0c-0.4,0.3-0.9,0.4-1.4,0.2l-0.6-0.2c-0.4-0.2-1-0.1-1.3,0.2l-2.8,2.3L265.8,294.3z"/>
<path class="st83" d="M370.9,334h-9.8c0,0,0,7.7,1.5,9.8h9.8C371.2,341.9,370.9,334,370.9,334z"/>
<path class="st20" d="M268,297.2c-1-2.4-3.2-3.9-5.8-4c-8.4-0.3-26.7-0.8-29.4-0.1c-2.3,0.6-4.7,0.7-6.5,2.3l0,0c0,0,0,0,0,0
	c-3.6,3.3-3.9,8.9-0.6,12.5c5.2,5.6,25.3,1,37.7-2c0.3-0.1,0.6-0.2,0.9-0.3C267.8,304.2,269.4,300.5,268,297.2L268,297.2z"/>
<path class="st82" d="M330.6,469l-3.8-4.8l2.6-2.5l14.3-30.9l21.4-0.2c0,0-2.2,4.9-8.6,12.1c-8.9,10.1-18.5,24.5-19.2,25.5
	L330.6,469z"/>
<path id="_Clipping_Path_6_2_" class="st78" d="M156.7,466.2l6.8-11.3c1.7,2.3,3.7,4.3,6,5.9c0.5-0.1,1.6-1.9,5.3,1.4
	c-4.9,10.3,5.1,8.8,9.5,14.5l-10.4,2.3l-18.7-10.1L156.7,466.2z"/>
<g>
	<defs>
		<path id="SVGID_5_" d="M156.7,466.2l6.8-11.3c1.7,2.3,3.7,4.3,6,5.9c0.5-0.1,1.7-1.8,5.4,1.5c-4.9,10.3,5.1,8.7,9.4,14.4
			l-10.4,2.3l-18.7-10.1L156.7,466.2z"/>
	</defs>
	<clipPath id="SVGID_6_">
		<use xlink:href="#SVGID_5_"  style="overflow:visible;"/>
	</clipPath>
	<g class="st84">
		<line class="st81" x1="173.5" y1="467.7" x2="170.7" y2="468.2"/>
		<line class="st81" x1="174" y1="469.2" x2="171.8" y2="470.5"/>
		<line class="st81" x1="175.1" y1="470.1" x2="173.6" y2="472.2"/>
		<line class="st81" x1="176.4" y1="471.3" x2="175.1" y2="473.2"/>
		<line class="st81" x1="177.9" y1="472.1" x2="176.9" y2="473.9"/>
	</g>
</g>
<polygon class="st42" points="156.7,466.2 172.4,476.9 171,480 155.1,468.9 "/>
<polygon class="st42" points="184.2,476.7 171,476.7 170.9,480 184.2,480 "/>
<path class="st81" d="M167.8,464.1c-0.6,0-1.2,0.1-1.7,0.4c-0.5,0.3-0.8,0.8-0.7,1.4c0.3,1,1.7,1.2,2.5,1.1c0.4-0.1,0.7-0.2,1.1-0.3
	c0.8-0.3,1.6-0.8,2.3-1.3c0.5-0.4,1.3-0.9,1.9-0.7c1.1,0.3,1.6,2.4,2.3,3.3c0.5,0.9,1.2,1.7,2,2.4c0.3,0.3,0.6,0.4,1,0.5
	c0.4,0.1,0.8-0.1,1-0.4c0.2-0.3,0.2-0.7,0.1-1c-0.4-1.2-1.3-2.3-2.4-2.9C174.4,464.8,171.1,463.9,167.8,464.1z"/>
<polygon class="st82" points="384.8,460 377.8,462.5 374.7,460.8 364.9,430.8 382.4,430.7 383.8,454.9 "/>
<path class="st85" d="M419.7,326.7c3.9,5.8,17.5,17.2,18.3,34.4l-5.4,31.6l-42.4-2c0,0,6.8-5.9,8.6-24c1.7-16.7,4.8-26.1,8.4-38.2
	C407.3,328.5,418.2,326.8,419.7,326.7z"/>
<path class="st82" d="M374.6,370.4l1.6,3h-3.3l-2.9,2.3c-0.2,0.2-0.6,0.2-0.8,0l0,0c0,0,0,0-0.1,0c-0.2-0.2-0.2-0.6,0-0.9l1.1-1.2
	l-3,1.8c-0.4,0.2-0.9,0.1-1.1-0.2l0,0c0,0,0,0,0,0c-0.3-0.4-0.2-0.9,0.2-1.2l2.5-1.8L374.6,370.4z"/>
<path class="st82" d="M386.5,376.5L386.5,376.5z"/>
<path class="st82" d="M376.8,373.7c0.1,0,0.2,0.1,0.3,0.1L376.8,373.7z"/>
<path class="st82" d="M392.3,369.9l0.2,7.1l-5.9-0.6h-0.2c-3.2-0.3-6.4-1.2-9.2-2.6c-0.1-0.1-0.2-0.1-0.3-0.1l-3.6-1.2l-3.9,0.5
	l-4.2,2.2c-0.4,0.2-0.9,0.1-1.1-0.3c-0.3-0.4-0.2-1,0.2-1.3l1.6-1.1l-2.1,0.4c-0.5,0.1-0.9-0.2-1-0.6c-0.1-0.5,0.1-1,0.6-1.1
	l5.4-1.5l6.6-0.4l11,1.7L392.3,369.9z"/>
<path class="st40" d="M435.8,392l-0.3,8.9l0,0c-0.2,9.7-6.2,18.3-15.3,21.7l-21.1,8l-55.6,0.4l4.2-10.8
	c4.6-11.7,13.8-20.9,25.5-25.5l0.3-0.1l16.7-3.9L435.8,392z"/>
<polygon class="st85" points="409.8,380.2 387.7,382.5 387.2,370.7 408.8,367.4 "/>
<path class="st86" d="M271,428.1c-2.2-3.9-3.1-8.4-2.8-12.9c0.4-4.5,2.7-8.6,6.4-11.2c2-1.3,4.5-2.1,6-4c1.8-2.2,1.7-5.5,0.9-8.2
	s-2.4-5.2-3.4-7.9c-3.8-10.2,1.4-23,11.4-27.6c6.6-3,14.9-2.8,20.2-7.8"/>
<path id="_Clipping_Path_7_2_" class="st42" d="M391.2,465l-7.6-9.3c-1,1.6-2.4,2.8-4,3.7c-0.5-0.1-1.4-2-5.1,0.9
	c2,9.6-1.4,9.8-5,12.2c-1.8,1.2-2.6,3.4-2.1,5.5l0.2,0.2l15.9-6.9L391.2,465z"/>
<g>
	<defs>
		<path id="SVGID_7_" d="M391.2,465l-7.6-9.3c-1,1.6-2.4,2.8-4,3.7c-0.5-0.1-1.4-2-5.1,0.9c2,9.6-1.4,9.8-5,12.2
			c-1.8,1.2-2.6,3.3-2.1,5.4l0.1,0.3l16-6.9L391.2,465z"/>
	</defs>
	<clipPath id="SVGID_8_">
		<use xlink:href="#SVGID_7_"  style="overflow:visible;"/>
	</clipPath>
	<g class="st87">
		<line class="st88" x1="375.2" y1="466.4" x2="377.8" y2="466.5"/>
		<line class="st88" x1="374.8" y1="467.8" x2="377.2" y2="468.4"/>
		<line class="st88" x1="374.1" y1="469.2" x2="376.2" y2="470.2"/>
		<line class="st88" x1="373.6" y1="470.7" x2="375.4" y2="471.7"/>
		<line class="st88" x1="372.8" y1="472.4" x2="374.3" y2="473.1"/>
	</g>
</g>
<polygon class="st6" points="390.4,464.1 367.4,478 368.6,480 392.2,466.3 "/>
<path class="st89" d="M381,462.6c0.5,0,1.1,0.1,1.5,0.4c0.5,0.3,0.7,0.8,0.6,1.4c-0.3,0.9-1.6,1.1-2.4,0.9c-0.3-0.1-0.7-0.2-1-0.4
	c-0.7-0.4-1.4-0.8-2.1-1.3c-0.5-0.4-1.1-0.9-1.8-0.7c-1,0.3-1.7,2.2-2.3,3c-0.6,0.8-1.2,1.5-2,2.1c-0.3,0.2-0.6,0.4-1,0.4
	c-0.4,0.1-0.7-0.1-0.9-0.4c-0.1-0.3-0.1-0.6,0-0.9c0.5-1.1,1.3-2,2.4-2.6C374.8,462.8,377.9,462.2,381,462.6z"/>
<path class="st86" d="M266.5,430.6c6.9,3,15,0.5,19.2-5.7c4.8-7.2,2.8-16.9-4.4-21.7c-1.4-0.9-2.9-1.6-4.3-2.5
	c-2.6-1.8-4.9-4.8-4.3-7.9c0.4-2.3,2.2-4,4.2-5.3s4.1-2,6.1-3.2c3.9-2.5,6.6-6.5,7.4-11.1c1-6.1-1.4-12.6,1-18.3
	c1.6-3.5,4.7-6.1,8.4-7.1c3.7-0.9,7.6-0.6,11.1,1"/>
<path class="st86" d="M338.4,340.9c-8.1-4.8-19.4-3.8-24.5,2.2s-3.4,16,3.8,21.9c1.6,1.3,3.3,2.4,4.9,3.6c3,2.4,5.2,6,4.2,9
	c-0.8,2.2-3.1,3.5-5.6,4.3s-5.2,1-7.7,1.8c-4.7,1.3-8.5,4.8-10.1,9.4c-1.9,5.9,0.3,13.1-3.2,18.1c-2.2,3.1-6.4,4.9-10.8,5.1
	c-4.6,0-9.2-1.3-13.1-3.7"/>
<rect x="263.6" y="411.2" class="st12" width="29.3" height="68.8"/>
<rect x="263.6" y="411.3" class="st32" width="29.3" height="41.1"/>
<path class="st12" d="M263.6,411.3v19.8c9.3,4.5,20.1,4.5,29.3,0v-19.8H263.6z"/>
<circle class="st49" cx="268.2" cy="457.8" r="1.7"/>
<circle class="st49" cx="273.4" cy="457.8" r="1.7"/>
<rect x="273.4" y="465.6" class="st33" width="19.5" height="1"/>
<rect x="273.4" y="468.1" class="st90" width="19.5" height="1"/>
<rect x="273.4" y="470.7" class="st33" width="19.5" height="1"/>
<line class="st47" x1="440.1" y1="373.2" x2="435.1" y2="411.3"/>
<path class="st3" d="M377.9,425h63.5c0.7-1.4,1-2.9,1-4.5c0-5.7-4.6-10.4-10.4-10.4h-44.8c0,0,0,0,0,0c-5.7,0-10.4,4.6-10.4,10.4
	C376.9,422.1,377.3,423.6,377.9,425z"/>
<path class="st3" d="M377.9,425c1.7,3.6,5.3,5.9,9.3,5.9h44.8c4,0,7.6-2.3,9.3-5.9H377.9z"/>
<line class="st47" x1="409.7" y1="430.9" x2="409.7" y2="475.7"/>
<path class="st47" d="M393.5,475.7v-3.8c0-2.6,2.1-4.6,4.6-4.6h23.1c0,0,0,0,0,0c2.5,0,4.6,2.1,4.6,4.6v3.8"/>
<circle class="st41" cx="409.7" cy="476" r="4"/>
<circle class="st41" cx="425.9" cy="476" r="4"/>
<circle class="st41" cx="393.5" cy="476" r="4"/>
<path class="st3" d="M437.1,401.4c-4.5-0.4-7.9-4.4-7.5-9l3.8-43.1c0,0,0,0,0,0c0.4-4.6,4.4-7.9,9-7.5l5.5,0.5c0,0,0,0,0,0
	c4.6,0.4,7.9,4.4,7.5,9l-3.8,43.1c0,0,0,0,0,0c-0.4,4.6-4.4,7.9-9,7.5L437.1,401.4C437.1,401.4,437.1,401.4,437.1,401.4z"/>
<path class="st20" d="M275.6,379.3h96c8.6,0,15.5,6.4,15.5,14.9L387,480h-3.5l-2.4-84.2c-0.2-6-5.2-10.8-11.2-10.8h-92.8
	c-6,0-11,4.8-11.2,10.8l-2.4,84.2h-3.5v-85.8C260.1,385.6,267.1,379.3,275.6,379.3z"/>
<polygon class="st42" points="352.3,361.1 340.7,291.7 313.3,291.7 324.9,361.1 "/>
<path class="st91" d="M339.9,292.8h-25.4l11.3,67.4h25.4L339.9,292.8 M353.5,362.1h-29.5l-11.9-71.4h29.5L353.5,362.1z"/>
<polygon class="st42" points="342.4,362.1 333.2,362.1 334.4,377.1 343.6,377.1 "/>
<polygon class="st91" points="331.2,379.2 348.8,379.2 347.9,376.3 331.2,376.3 "/>
<line class="st92" x1="320.1" y1="297.8" x2="317.9" y2="297.8"/>
<line class="st92" x1="324" y1="301.8" x2="319.1" y2="301.8"/>
<line class="st92" x1="332.6" y1="305.8" x2="320.1" y2="305.8"/>
<line class="st92" x1="329.1" y1="309.8" x2="322.9" y2="309.8"/>
<line class="st92" x1="333.3" y1="309.8" x2="330.3" y2="309.8"/>
<line class="st92" x1="328.2" y1="313.8" x2="321.6" y2="313.8"/>
<line class="st92" x1="323.4" y1="317.7" x2="322.3" y2="317.7"/>
<line class="st92" x1="337.6" y1="321.7" x2="322.3" y2="321.7"/>
<line class="st92" x1="329.7" y1="325.7" x2="323.3" y2="325.7"/>
<line class="st92" x1="326.3" y1="329.7" x2="323.9" y2="329.7"/>
<line class="st92" x1="331.2" y1="333.7" x2="324.9" y2="333.7"/>
<line class="st92" x1="336.2" y1="337.7" x2="326.1" y2="337.7"/>
<line class="st92" x1="332.2" y1="341.6" x2="326.7" y2="341.6"/>
<line class="st92" x1="335.9" y1="347.6" x2="327.7" y2="347.6"/>
<line class="st92" x1="331.4" y1="351.6" x2="327.9" y2="351.6"/>
<line class="st92" x1="337.5" y1="355.6" x2="330.8" y2="355.6"/>
<line class="st92" x1="336.7" y1="313.8" x2="329.3" y2="313.8"/>
<line class="st92" x1="331.5" y1="317.7" x2="324.5" y2="317.7"/>
<line class="st92" x1="342.8" y1="317.7" x2="332.9" y2="317.7"/>
<line class="st92" x1="337.8" y1="305.8" x2="333.9" y2="305.8"/>
<line class="st92" x1="326.9" y1="301.8" x2="325.2" y2="301.8"/>
<line class="st92" x1="329.6" y1="301.8" x2="327.9" y2="301.8"/>
<line class="st92" x1="332.1" y1="301.8" x2="330.4" y2="301.8"/>
<line class="st92" x1="334.6" y1="301.8" x2="332.9" y2="301.8"/>
<line class="st92" x1="339.6" y1="301.8" x2="335.3" y2="301.8"/>
<line class="st92" x1="324.9" y1="297.8" x2="322.7" y2="297.8"/>
<line class="st92" x1="328.5" y1="297.8" x2="326.2" y2="297.8"/>
<line class="st92" x1="335.6" y1="297.8" x2="329.8" y2="297.8"/>
<line class="st92" x1="333.1" y1="329.7" x2="327.2" y2="329.7"/>
<line class="st92" x1="337.1" y1="341.6" x2="333.4" y2="341.6"/>
<line class="st92" x1="335.7" y1="351.6" x2="332.2" y2="351.6"/>
<g>
	<defs>
		<circle id="SVGID_9_" cx="270.9" cy="461.3" r="18.7"/>
	</defs>
	<clipPath id="SVGID_10_">
		<use xlink:href="#SVGID_9_"  style="overflow:visible;"/>
	</clipPath>
	<g class="st93">
		<circle class="st40" cx="270.8" cy="461.4" r="18.7"/>
		<line class="st94" x1="289.9" y1="464.9" x2="252" y2="458.8"/>
		<line class="st94" x1="268.2" y1="442.4" x2="261" y2="477.5"/>
		<path class="st94" d="M277.4,480l-6-9.8c-1.7-2.8-4.5-4.7-7.8-5.2l0,0c-2.9-0.5-6,0.2-8.4,2l-2.2,1.6"/>
		<path class="st94" d="M285.8,449.9l-12,5.7c-2.8,1.1-5.9,1.2-8.7,0.1l0,0c-2.7-0.9-5.2-2.6-6.9-4.9l-1.5-2"/>
	</g>
</g>
<polygon class="st6" points="299.3,292.1 304.5,291.1 317.9,367.2 312.7,368.1 "/>
<circle class="st6" cx="301" cy="332.4" r="5.5"/>
<polygon class="st6" points="287.9,365.3 287.9,365.3 287.9,365.3 287.9,365.3 "/>
<path class="st6" d="M294.7,377L294.7,377c2.6,0,4.7-2.1,4.7-4.7v-38h3.2V377h8.2v2.3h-20.5V377L294.7,377z"/>
<path class="st42" d="M347,377.3c0,1,0.9,1.9,1.9,1.9h18c0,0,0,0,0,0c0.4,0,0.8-0.3,0.8-0.8l0,0c0-0.4-0.3-0.7-0.7-0.8l-18.9-1.4
	C347.5,376.3,347,376.8,347,377.3L347,377.3z"/>
<rect x="384.4" y="331" class="st85" width="13" height="15.2"/>
<rect x="387.6" y="330" class="st95" width="6.7" height="2"/>
<line class="st96" x1="386.9" y1="339.3" x2="393.3" y2="339.3"/>
<line class="st96" x1="395.5" y1="341.6" x2="386.9" y2="341.6"/>
<circle class="st97" cx="421.1" cy="341.8" r="9.1"/>
<path class="st42" d="M412,311c0.5,0.5,1.2,0.8,2,0.6c0.1,0,0.2,0,0.3,0c0.2,0,0.4,0.1,0.6,0.1c1.5,0.4,1.9,0.6,3.3,1l-0.9,1.9
	c-0.8,1-0.8,2.3-0.2,3.3c0.4,0.6,1.3,1.6,1.3,2.3c0,0.5-0.2,1.1-0.4,1.6c-0.3,0.7-0.3,1.4,0,2.1c0.4,0.6,0.7,1.2,1,1.8
	c0,0.8-0.2,1.6-0.5,2.3c-0.2,0.9-0.1,1.9,0.4,2.8c0.5,0.8,1.3,1.4,2.2,1.6c0.7,0.1,1.3,0.6,1.7,1.2c0.5,0.9,0.3,1.9,0.7,2.8
	c0.5,1.2,1.8,1.9,3.1,1.6c0.3-0.1,0.7-0.2,1-0.2c0.4,0.1,0.8,0.2,1.2,0.5c0.2,0.1,0.4,0.2,0.7,0.2c1.7,0.4,3.5-0.7,3.8-2.5
	c0.2-1,0-2.1,0.7-2.8c0.5-0.3,1-0.5,1.6-0.7c0,0,0.1,0,0.1,0c1.3-0.7,1.8-2.3,1.1-3.6c-0.3-0.6-0.9-1-1-1.7s0.5-1.2,0.9-1.8
	c0.6-1,0.6-2.2,0-3.2c-0.4-0.8-1.2-1.3-1.6-2.1c-0.4-0.9-0.2-2,0.3-2.8c0.7-1.1,1.1-2.4,1.2-3.8c0-1.4-0.6-2.7-1.7-3.4
	c-0.9-0.4-1.8-0.7-2.8-0.9c-1-0.2-1.9-0.7-2.6-1.5c-0.5-1-0.1-2.2,0-3.4c0.1-0.6,0-1.2-0.1-1.8c-0.2-0.6-0.6-1.1-1.1-1.4
	c-0.9-0.4-2.1-0.2-2.7-1c-0.2-0.4-0.4-0.8-0.5-1.2c-0.5-1.1-1.7-1.9-2.9-1.8c-0.7,0.1-1.3,0.5-2,0.5c-0.8-0.1-1.5-0.5-1.9-1.2
	c-0.4-0.6-1-1.2-1.6-1.6c-0.9-0.4-1.9-0.4-2.7,0.1c-0.8,0.5-1.4,1.3-1.7,2.1c-0.1,0.5-0.3,1-0.6,1.4c-0.3,0.4-0.9,0.6-1.4,0.5
	c-0.7-0.3-1.6-0.3-2.3,0.2c-0.7,0.4-1.1,1.2-1,2c0,0.6,0.3,1.1,0.7,1.4c0.6,0.4,1.3,0.1,1.9,0.8s0.1,1.8,0.5,2.6s1.2,1,1.6,1.8
	C412,308.8,411.2,310,412,311z"/>
<circle class="st82" cx="415.5" cy="312.4" r="3.2"/>
<path class="st98" d="M406.1,298.8c1.7-3.3,4.7-5.6,8.3-6.4c6.7-1.5,13.3,2.7,14.8,9.4c0.1,0.3,0.2,0.7,0.2,1
	c0.1,0.7,0.2,1.5,0.1,2.2c0,0.6-0.1,1.2-0.2,1.7l-23.9-6.4c0.2-0.4,0.3-0.9,0.5-1.3l0.1-0.1L406.1,298.8z"/>
<line class="st99" x1="410.3" y1="301.2" x2="397.4" y2="297.8"/>
<path class="st97" d="M387.7,382.5c9.8-0.5,19.5-1.7,29-3.8c2.3-0.5,4.2-2.3,4.8-4.6l8.3-29.7l-17.8-3.9l-4,26.2l-20.9,4
	L387.7,382.5z"/>
<path class="st38" d="M239.4,366.3l0.2,54.1l-4.6,41.2l-18.6-0.2c1.4-17.4,3.8-27.6,4.4-38.6c0.4-8,0.9-17-0.9-24.8l-2.1-9.7
	l-7.9,25.3c-0.9,3-2.2,5.9-3.8,8.6l-24.4,39.5l-16.9-8.8c8.5-20.6,22.6-40.6,22.6-40.6c2-30.5,10-51.5,10-51.5L239.4,366.3z"/>
<path id="_Clipping_Path_8_2_" class="st42" d="M332.4,478.7l5.2-11c-1.8-0.2-3.6-0.9-5.1-2c-0.1-0.5,1.1-2.1-3.1-4.1
	c-7.7,6-9.5,3-13.1,0.8c-1.8-1.1-4.1-0.9-5.8,0.5l-0.2,0.2l13.2,11.4L332.4,478.7z"/>
<g>
	<defs>
		<path id="SVGID_11_" d="M332.5,478.6l5.1-10.9c-1.8-0.2-3.6-0.9-5.1-2c-0.1-0.5,1.1-2.1-3.1-4.1c-7.7,6-9.5,3-13.1,0.8
			c-1.8-1.1-4.1-0.9-5.8,0.5l-0.2,0.2l13.2,11.4L332.5,478.6z"/>
	</defs>
	<clipPath id="SVGID_12_">
		<use xlink:href="#SVGID_11_"  style="overflow:visible;"/>
	</clipPath>
	<g class="st100">
		<line class="st88" x1="324.2" y1="464.8" x2="325.3" y2="467.2"/>
		<line class="st88" x1="322.8" y1="465" x2="323.4" y2="467.5"/>
		<line class="st88" x1="321.3" y1="465.1" x2="321.3" y2="467.5"/>
		<line class="st88" x1="319.7" y1="465.3" x2="319.6" y2="467.4"/>
		<line class="st88" x1="317.9" y1="465.3" x2="317.8" y2="467"/>
	</g>
</g>
<polygon class="st6" points="333,477.5 310.5,462.9 309,465 331.8,480 "/>
<path class="st89" d="M330.3,468.3c0.2,0.5,0.3,1,0.3,1.6c0,0.6-0.4,1-1,1.1c-0.9,0.1-1.6-1-1.9-1.7c-0.1-0.3-0.1-0.7-0.1-1
	c0-0.8,0.1-1.6,0.2-2.5c0.1-0.6,0.3-1.4-0.1-1.9c-0.7-0.7-2.7-0.5-3.7-0.7c-1-0.2-1.9-0.5-2.8-0.9c-0.3-0.1-0.6-0.4-0.8-0.7
	c-0.2-0.3-0.2-0.7,0-1c0.2-0.3,0.5-0.4,0.9-0.4c1.2-0.1,2.4,0.3,3.4,1C327.3,462.9,329.3,465.4,330.3,468.3z"/>
<path class="st82" d="M371.9,353.2l-0.4-2.7c0-0.2-0.2-0.3-0.4-0.4l0,0c0,0,0,0,0,0c-0.2,0-0.4,0.2-0.4,0.4l-0.2,2.4L371.9,353.2z"
	/>
<path class="st82" d="M370.8,353.3l-0.9-4.6c-0.1-0.3-0.3-0.5-0.7-0.5l0,0c0,0,0,0-0.1,0c-0.3,0.1-0.6,0.4-0.5,0.7l0.6,3.9
	L370.8,353.3z"/>
<path class="st82" d="M369.7,352.9l-2.2-4.8c-0.2-0.4-0.6-0.6-1-0.4l0,0c-0.4,0.2-0.6,0.6-0.5,1l1.6,4.5L369.7,352.9z"/>
<path class="st82" d="M382.1,350.9c-2.7-0.3-9.1-3-10.3-3.7c-0.2-0.1-0.5-0.1-0.7,0l0,0c0,0,0,0,0,0c-0.3,0.2-0.3,0.6,0,0.9
	c0.5,0.6,1.1,1.1,1.7,1.6c0.1,0.1,0.2,0.2,0.2,0.3c0.2,0.4,0,0.9-0.4,1.1l-2.1,1l-6.3-2.8c0,0-0.1,0-0.1,0c-0.4-0.1-0.8,0.1-0.9,0.4
	l0,0c-0.1,0.3,0,0.7,0.3,0.8c2.4,1.6,4.6,3.4,6.7,5.4c0.7,0.6,1.7,0.9,2.6,0.6c2.8-0.6,5.7-0.7,8.6-0.5L382.1,350.9z"/>
<path class="st82" d="M357.6,321.8"/>
<polygon class="st97" points="398.6,369.1 380.7,359.9 382,350.9 400,357.5 "/>
<path class="st101" d="M242.2,292.2v2.4c0,0.8,0.7,1.5,1.5,1.5h0c0.8,0,1.5-0.7,1.5-1.5v-2.4c0-0.8-0.7-1.5-1.5-1.5h0
	C242.9,290.6,242.2,291.3,242.2,292.2z"/>
<path class="st101" d="M244.7,292.2v2.4c0,0.8,0.7,1.5,1.5,1.5h0c0.8,0,1.5-0.7,1.5-1.5v-2.4c0-0.8-0.7-1.5-1.5-1.5h0
	C245.4,290.6,244.7,291.3,244.7,292.2z"/>
<path class="st101" d="M247.4,292.2v2.4c0,0.8,0.7,1.5,1.5,1.5h0c0.8,0,1.5-0.7,1.5-1.5v-2.4c0-0.8-0.7-1.5-1.5-1.5h0
	C248,290.6,247.4,291.3,247.4,292.2z"/>
<path class="st101" d="M250.2,292.2v2.4c0,0.8,0.7,1.5,1.5,1.5h0c0.8,0,1.5-0.7,1.5-1.5v-2.4c0-0.8-0.7-1.5-1.5-1.5h0
	C250.8,290.7,250.2,291.4,250.2,292.2z"/>
<path class="st102" d="M1144.3,451.6c0,0,0.1,6.5,1.3,9.5s2.3,7.1-1.3,7.8l-10.7,7.6l-1.9,0.3l-4.6,0.8l-5.3,0.9l-1.6-0.8
	c-1.5-0.4-1.6-2.6-1.6-2.6c1.7,0.3,4.1-0.4,6.6-1.7c1-0.5,2-1.2,2.8-1.9c2-1.5,3.6-3.4,4.9-5.5c0.6-1,1.1-2.1,1.5-3.3
	c0.8-2.4,0.9-5,0.4-7.5"/>
<path class="st103" d="M1118.5,480h20.9l4-6.6l1,6.6h3.1l0-11.4c-6.1,0.2-10.8,9.7-29,9.1L1118.5,480z"/>
<path class="st102" d="M1177.5,444.2c0,0,2.6,5.8,4.9,8.1s4.6,6,1.5,8l-7.1,11l-1.7,1l-4,2.4l-4.6,2.8l-1.8-0.1
	c-1.5,0.2-2.5-1.8-2.5-1.8c1.7-0.4,3.7-1.9,5.5-4c0.7-0.9,1.4-1.8,2-2.8c1.3-2.2,2.1-4.5,2.6-7c0.2-1.2,0.3-2.4,0.2-3.6
	c-0.1-2.5-1-5-2.4-7.1"/>
<path class="st103" d="M1164,479.8l19.1-7.5l1.3-7.5l3.3,5.6l2.8-1.1l-4.1-10.4c-5.6,2.5-6.3,13-23.2,19L1164,479.8z"/>
<path class="st102" d="M1094.4,335.6l-2.7-0.4c-0.7-0.1-1.4-0.1-2.1,0.1l-5.8,1.6c-0.7,0.2-1.4,0.1-2-0.2l-2.5-1.3
	c-0.4-0.2-0.7-0.6-0.8-1.1l-0.1-0.4h-0.7c-0.5,0-0.9-0.3-1-0.8l-0.1-0.5l-2.6,0.5c-0.5,0.1-0.9-0.2-1-0.6l0,0
	c-0.1-0.4,0.1-0.8,0.5-1l6.4-2.8c0.1-0.1,0.2-0.2,0.3-0.3c0.1-0.3-0.1-0.5-0.3-0.6c-1-0.3-2-0.7-2.9-1.4c-0.2-0.2-0.4-0.5-0.3-0.8
	c0.1-0.4,0.5-0.7,0.9-0.6l8.2,1.8c0.4,0.1,0.8,0.2,1.2,0.4c1.8,0.8,3.8,1.2,5.7,1.3"/>
<path class="st40" d="M1155.9,354.6c0,0-5.3,67.1-9.5,108.7l-26.5,0.7l11.4-109.4H1155.9z"/>
<path class="st40" d="M1140.1,350.3c0,0,3.4,68,21.4,109.3l21.2-7.3c0,0-12.4-30.7-14.5-60.1l-0.3-31.6L1140.1,350.3z"/>
<path class="st102" d="M1151.6,269.7c-1.9-5.3-6.8-9-12.5-9.3c-7.8-0.5-14.5,5.5-14.9,13.3c-0.1,1.4,0,2.8,0.4,4.1
	c0.1,0.3,0.2,0.7,0.3,1.1c0.1,0.2,0.1,0.3,0.2,0.5c1.6,4.4,5.4,7.8,10,8.9c7.6,1.8,15.2-2.8,17-10.4c0.3-1.1,0.4-2.2,0.4-3.3v-0.1
	C1152.4,272.7,1152.1,271.2,1151.6,269.7L1151.6,269.7z"/>
<path class="st102" d="M1156.7,293.8c-4.3-5.7-5.5-9.6-4.7-15.9h-27.5c1.1,3.4,0.1,5.6,0.6,7s2.3,0.4,3,2.9c1.5,4.3,1.7,4.4,6.7,4.3
	c4.9,0,5.3,2.7,3.3,5.9L1156.7,293.8z"/>
<path class="st104" d="M1139,295.8l-2,4.2c-3.5,7.3-8.2,15.7-5.7,26.6c1.1,9.3,1.1,18.7,0,28c24,0.4,36.5,9,36.5,9s0.9-33.8,0-42.6
	c-1.4-14.9-8.2-21.9-11.2-27.4L1139,295.8z"/>
<circle class="st102" cx="1139.1" cy="276.7" r="3.4"/>
<polygon class="st9" points="1156.7,293.7 1154.1,289.7 1139,295.8 "/>
<path class="st104" d="M1123.6,324.8l10.9-13.1c3.7-4.4,8.8-7.5,14.5-8.6l0,0c0.1,0,0.3,0,0.4-0.1c3.5-0.4,6.6,2,7.1,5.4l0,0
	c0.6,4.5-1.2,8.9-4.7,11.7l-18.2,14.6c-4,3.2-9,5.1-14.2,5.2l-27.7,0.7l-0.4-12.5L1123.6,324.8z"/>
<path class="st105" d="M1137,277.8c-0.5-0.8-1-1.5-1.6-2.2c-1.4-1.8-3.1-3.5-4.9-4.9c-1.4-1.2-2.9-1.6-4.7-2.8l0,0
	c0.4-1.2,1-2.4,1.9-3.3c1.7-1.7,3.7-3,6-3.7c7.6-2.4,15.8,1.8,18.2,9.4l0.2,0.6l0.8,2.8c1.1,3.1,4.4,4.9,5.8,7.9
	c0.9,1.8-0.1,4.2,0.9,5.9c1.3,2.2,2.2,4.5,2.8,7c0.6,2.8,1.9,12.4,1.9,12.4s-3.3-6.8-10.9-7.2s-5.9,0.5-12.3,1.5
	c-5.7,0.9-6.8,1.8-4.8-3.4l0,0c0.2-0.6,0.5-1.2,0.9-1.8c1.2-2,2-4.3,2.3-6.6c0.4-2.9,0.1-5.9-1.1-8.6
	C1137.9,279.5,1137.5,278.7,1137,277.8z"/>
<path class="st103" d="M1130.9,477.8l16.6-9.1c-0.7-5.4-1.1-5.4-1.1-5.4l-12.4,0.2c-2.6,5.2-6.3,8.2-8.8,9.8
	c-1.4,0.9-3.1,1.3-4.7,1.4c-6.4,0.3-5.8,5.3-5.8,5.3h4L1130.9,477.8z"/>
<path class="st103" d="M1174.6,473.6l11.9-14.2c-2.5-6.3-3.9-7-3.9-7l-10.3,3.5c-0.2,10-6.4,17.7-6.4,17.7c-7.8,2.2-6,6.4-6,6.4h4.2
	L1174.6,473.6z"/>
<path class="st28" d="M1119.4,317.4l-3.8-1.4l-6.9-0.9c-1.1-0.1-2.2-0.6-3.1-1.2l-3-2.3c0,0-2.4-2.1-2-3c-0.7-0.5-0.7-1.8,0.6-1.6
	c0,0,0.5-1.3,2.4-0.8s6.9,1.7,6.9,1.7c-1.1-0.4-2.2-1-3.2-1.6c-0.3-0.2-0.5-0.6-0.4-1c0,0,0-0.1,0-0.1c0.1-0.2,0.3-0.3,0.5-0.2
	l5.4,2.2c0.4,0.2,0.7,0.4,1,0.8l1.5,1.8c0.9,1.1,2.2,1.9,3.6,2.1l1.7,0.3"/>
<polygon class="st18" points="1099.3,309.4 1103.2,300.4 1112.2,304.3 1108.3,313.3 "/>
<path class="st28" d="M1113.5,307.4l-3.2-2c-0.5-0.3-1.2-0.3-1.7,0.2l-0.3,0.2l4.2,3.6L1113.5,307.4z"/>
<polygon class="st104" points="1120.7,312.1 1131.6,312.9 1131.2,316 1124.8,323.7 1118,321.4 "/>
<path class="st67" d="M1051.4,342.4l2.7-2.6c0.5-0.4,0.6-1.1,0.2-1.7l-0.2-0.3l-4.4,3.3L1051.4,342.4z"/>
<path class="st20" d="M109.3,394l0,86h-3.4l-2.4-84.3c-0.2-6-5.1-10.8-11.2-10.8l-92.2,0v-5.8l93.8,0
	C102.3,379.1,109.3,385.5,109.3,394z"/>
</svg>
