<svg width="423" height="77" viewBox="0 0 423 77" fill="none" xmlns="http://www.w3.org/2000/svg">
<circle cx="45" cy="20.4545" r="20.4545" fill="#29A7C9"/>
<circle cx="45" cy="20.4546" r="12.2727" fill="white"/>
<rect y="20.4546" width="90" height="55.9091" rx="18" fill="#29A7C9"/>
<path d="M20.4545 32.7273H52.7686V38.6604H20.4545V32.7273ZM20.4545 44.5936H52.7686V50.5267H20.4545V44.5936ZM20.4545 56.4599H41.018V62.393H20.4545V56.4599ZM65.3975 48.4264L52.7656 61.156L48.9702 57.3261L44.8164 61.5238L52.7656 69.5454L69.5455 52.6271L65.3975 48.4264Z" fill="white"/>
<path d="M144.528 28.792C147.76 28.792 150.32 29.752 152.208 31.672C154.128 33.56 155.088 36.408 155.088 40.216V55H147.6V41.368C147.6 39.32 147.168 37.8 146.304 36.808C145.472 35.784 144.272 35.272 142.704 35.272C140.944 35.272 139.552 35.848 138.528 37C137.504 38.12 136.992 39.8 136.992 42.04V55H129.504V41.368C129.504 37.304 127.872 35.272 124.608 35.272C122.88 35.272 121.504 35.848 120.48 37C119.456 38.12 118.944 39.8 118.944 42.04V55H111.456V29.176H118.608V32.152C119.568 31.064 120.736 30.232 122.112 29.656C123.52 29.08 125.056 28.792 126.72 28.792C128.544 28.792 130.192 29.16 131.664 29.896C133.136 30.6 134.32 31.64 135.216 33.016C136.272 31.672 137.6 30.632 139.2 29.896C140.832 29.16 142.608 28.792 144.528 28.792ZM186.963 29.176L175.299 56.584C174.115 59.56 172.643 61.656 170.883 62.872C169.155 64.088 167.059 64.696 164.595 64.696C163.251 64.696 161.923 64.488 160.611 64.072C159.299 63.656 158.227 63.08 157.395 62.344L160.131 57.016C160.707 57.528 161.363 57.928 162.099 58.216C162.867 58.504 163.619 58.648 164.355 58.648C165.379 58.648 166.211 58.392 166.851 57.88C167.491 57.4 168.067 56.584 168.579 55.432L168.675 55.192L157.491 29.176H165.219L172.467 46.696L179.763 29.176H186.963ZM201.795 55.384C199.043 55.384 196.563 54.824 194.355 53.704C192.179 52.552 190.467 50.968 189.219 48.952C188.003 46.936 187.395 44.648 187.395 42.088C187.395 39.528 188.003 37.24 189.219 35.224C190.467 33.208 192.179 31.64 194.355 30.52C196.563 29.368 199.043 28.792 201.795 28.792C204.515 28.792 206.883 29.368 208.899 30.52C210.947 31.64 212.435 33.256 213.363 35.368L207.555 38.488C206.211 36.12 204.275 34.936 201.747 34.936C199.795 34.936 198.179 35.576 196.899 36.856C195.619 38.136 194.979 39.88 194.979 42.088C194.979 44.296 195.619 46.04 196.899 47.32C198.179 48.6 199.795 49.24 201.747 49.24C204.307 49.24 206.243 48.056 207.555 45.688L213.363 48.856C212.435 50.904 210.947 52.504 208.899 53.656C206.883 54.808 204.515 55.384 201.795 55.384ZM228.091 28.792C232.091 28.792 235.163 29.752 237.307 31.672C239.451 33.56 240.523 36.424 240.523 40.264V55H233.515V51.784C232.107 54.184 229.483 55.384 225.643 55.384C223.659 55.384 221.931 55.048 220.459 54.376C219.019 53.704 217.915 52.776 217.147 51.592C216.379 50.408 215.995 49.064 215.995 47.56C215.995 45.16 216.891 43.272 218.683 41.896C220.507 40.52 223.307 39.832 227.083 39.832H233.035C233.035 38.2 232.539 36.952 231.547 36.088C230.555 35.192 229.067 34.744 227.083 34.744C225.707 34.744 224.347 34.968 223.003 35.416C221.691 35.832 220.571 36.408 219.643 37.144L216.955 31.912C218.363 30.92 220.043 30.152 221.995 29.608C223.979 29.064 226.011 28.792 228.091 28.792ZM227.515 50.344C228.795 50.344 229.931 50.056 230.923 49.48C231.915 48.872 232.619 47.992 233.035 46.84V44.2H227.899C224.827 44.2 223.291 45.208 223.291 47.224C223.291 48.184 223.659 48.952 224.395 49.528C225.163 50.072 226.203 50.344 227.515 50.344ZM254.452 32.584C255.348 31.336 256.548 30.392 258.052 29.752C259.588 29.112 261.348 28.792 263.332 28.792V35.704C262.5 35.64 261.94 35.608 261.652 35.608C259.508 35.608 257.828 36.216 256.612 37.432C255.396 38.616 254.788 40.408 254.788 42.808V55H247.3V29.176H254.452V32.584ZM292.846 42.184C292.846 42.28 292.798 42.952 292.702 44.2H273.166C273.518 45.8 274.35 47.064 275.662 47.992C276.974 48.92 278.606 49.384 280.558 49.384C281.902 49.384 283.086 49.192 284.11 48.808C285.166 48.392 286.142 47.752 287.038 46.888L291.022 51.208C288.59 53.992 285.038 55.384 280.366 55.384C277.454 55.384 274.878 54.824 272.638 53.704C270.398 52.552 268.67 50.968 267.454 48.952C266.238 46.936 265.63 44.648 265.63 42.088C265.63 39.56 266.222 37.288 267.406 35.272C268.622 33.224 270.27 31.64 272.35 30.52C274.462 29.368 276.814 28.792 279.406 28.792C281.934 28.792 284.222 29.336 286.27 30.424C288.318 31.512 289.918 33.08 291.07 35.128C292.254 37.144 292.846 39.496 292.846 42.184ZM279.454 34.456C277.758 34.456 276.334 34.936 275.182 35.896C274.03 36.856 273.326 38.168 273.07 39.832H285.79C285.534 38.2 284.83 36.904 283.678 35.944C282.526 34.952 281.118 34.456 279.454 34.456ZM323.127 42.184C323.127 42.28 323.079 42.952 322.983 44.2H303.447C303.799 45.8 304.631 47.064 305.943 47.992C307.255 48.92 308.887 49.384 310.839 49.384C312.183 49.384 313.367 49.192 314.391 48.808C315.447 48.392 316.423 47.752 317.319 46.888L321.303 51.208C318.871 53.992 315.319 55.384 310.647 55.384C307.735 55.384 305.159 54.824 302.919 53.704C300.679 52.552 298.951 50.968 297.735 48.952C296.519 46.936 295.911 44.648 295.911 42.088C295.911 39.56 296.503 37.288 297.687 35.272C298.903 33.224 300.551 31.64 302.631 30.52C304.743 29.368 307.095 28.792 309.687 28.792C312.215 28.792 314.503 29.336 316.551 30.424C318.599 31.512 320.199 33.08 321.351 35.128C322.535 37.144 323.127 39.496 323.127 42.184ZM309.735 34.456C308.039 34.456 306.615 34.936 305.463 35.896C304.311 36.856 303.607 38.168 303.351 39.832H316.071C315.815 38.2 315.111 36.904 313.959 35.944C312.807 34.952 311.399 34.456 309.735 34.456ZM335.264 32.584C336.16 31.336 337.36 30.392 338.864 29.752C340.4 29.112 342.16 28.792 344.144 28.792V35.704C343.312 35.64 342.752 35.608 342.464 35.608C340.32 35.608 338.64 36.216 337.424 37.432C336.208 38.616 335.6 40.408 335.6 42.808V55H328.112V29.176H335.264V32.584ZM348.597 19.384H356.085V55H348.597V19.384ZM363.034 29.176H370.522V55H363.034V29.176ZM366.778 25.576C365.402 25.576 364.282 25.176 363.418 24.376C362.554 23.576 362.122 22.584 362.122 21.4C362.122 20.216 362.554 19.224 363.418 18.424C364.282 17.624 365.402 17.224 366.778 17.224C368.154 17.224 369.274 17.608 370.138 18.376C371.002 19.144 371.434 20.104 371.434 21.256C371.434 22.504 371.002 23.544 370.138 24.376C369.274 25.176 368.154 25.576 366.778 25.576ZM386.16 55.384C384.016 55.384 381.92 55.128 379.872 54.616C377.824 54.072 376.192 53.4 374.976 52.6L377.472 47.224C378.624 47.96 380.016 48.568 381.648 49.048C383.28 49.496 384.88 49.72 386.448 49.72C389.616 49.72 391.2 48.936 391.2 47.368C391.2 46.632 390.768 46.104 389.904 45.784C389.04 45.464 387.712 45.192 385.92 44.968C383.808 44.648 382.064 44.28 380.688 43.864C379.312 43.448 378.112 42.712 377.088 41.656C376.096 40.6 375.6 39.096 375.6 37.144C375.6 35.512 376.064 34.072 376.992 32.824C377.952 31.544 379.328 30.552 381.12 29.848C382.944 29.144 385.088 28.792 387.552 28.792C389.376 28.792 391.184 29 392.976 29.416C394.8 29.8 396.304 30.344 397.488 31.048L394.992 36.376C392.72 35.096 390.24 34.456 387.552 34.456C385.952 34.456 384.752 34.68 383.952 35.128C383.152 35.576 382.752 36.152 382.752 36.856C382.752 37.656 383.184 38.216 384.048 38.536C384.912 38.856 386.288 39.16 388.176 39.448C390.288 39.8 392.016 40.184 393.36 40.6C394.704 40.984 395.872 41.704 396.864 42.76C397.856 43.816 398.352 45.288 398.352 47.176C398.352 48.776 397.872 50.2 396.912 51.448C395.952 52.696 394.544 53.672 392.688 54.376C390.864 55.048 388.688 55.384 386.16 55.384ZM419.628 53.752C418.892 54.296 417.98 54.712 416.892 55C415.836 55.256 414.716 55.384 413.532 55.384C410.46 55.384 408.076 54.6 406.38 53.032C404.716 51.464 403.884 49.16 403.884 46.12V35.512H399.9V29.752H403.884V23.464H411.372V29.752H417.804V35.512H411.372V46.024C411.372 47.112 411.644 47.96 412.188 48.568C412.764 49.144 413.564 49.432 414.588 49.432C415.772 49.432 416.78 49.112 417.612 48.472L419.628 53.752Z" fill="black"/>
</svg>
